<?xml version="1.0" encoding="UTF-8"?><svg xmlns="http://www.w3.org/2000/svg" xmlns:xlink="http://www.w3.org/1999/xlink" clip-rule="evenodd" stroke-miterlimit="4.00" viewBox="0 0 720 405"><desc>SVG generated by Keynote</desc><defs></defs><g transform="matrix(1.00, 0.00, -0.00, -1.00, 0.0, 405.0)"><path d="M 0.0 0.0 L 720.0 0.0 L 720.0 405.0 L 0.0 405.0 Z M 0.0 0.0 " fill="#212121"></path><g><clipPath id="clip-69"><path d="M 0.0 15.0 L 720.0 15.0 L 720.0 0.0 L 0.0 0.0 Z M 0.0 14.6 "></path></clipPath><g clip-path="url(#clip-69)"><image xlink:href="../../F9151A63-6472-4580-9350-F8B065CF0AEF/assets/E727F7411E2471EE462B064648A9C275.jpeg" width="721.00" height="26.00" transform="matrix(1.00, 0.00, -0.00, -1.04, 0.0, 27.0)"></image></g></g><text xml:space="preserve" font-family="ProximaNova-Regular" font-size="25.8" fill="#FFAB40" transform="matrix(1.00, 0.00, -0.00, -1.00, 32.0, 338.0)">O</text><text xml:space="preserve" font-family="ProximaNova-Regular" font-size="25.8" fill="#FFAB40" transform="matrix(1.00, 0.00, -0.00, -1.00, 51.7, 338.0)">P</text><text xml:space="preserve" font-family="ProximaNova-Regular" font-size="25.8" fill="#FFAB40" transform="matrix(1.00, 0.00, -0.00, -1.00, 66.8, 338.0)">P</text><text xml:space="preserve" font-family="ProximaNova-Regular" font-size="25.8" fill="#FFAB40" transform="matrix(1.00, 0.00, -0.00, -1.00, 81.9, 338.0)">O</text><text xml:space="preserve" font-family="ProximaNova-Regular" font-size="25.8" fill="#FFAB40" transform="matrix(1.00, 0.00, -0.00, -1.00, 101.7, 338.0)">R</text><text xml:space="preserve" font-family="ProximaNova-Regular" font-size="25.8" fill="#FFAB40" transform="matrix(1.00, 0.00, -0.00, -1.00, 117.1, 338.0)">T</text><text xml:space="preserve" font-family="ProximaNova-Regular" font-size="25.8" fill="#FFAB40" transform="matrix(1.00, 0.00, -0.00, -1.00, 131.8, 338.0)">U</text><text xml:space="preserve" font-family="ProximaNova-Regular" font-size="25.8" fill="#FFAB40" transform="matrix(1.00, 0.00, -0.00, -1.00, 149.8, 338.0)">N</text><text xml:space="preserve" font-family="ProximaNova-Regular" font-size="25.8" fill="#FFAB40" transform="matrix(1.00, 0.00, -0.00, -1.00, 168.1, 338.0)">I</text><text xml:space="preserve" font-family="ProximaNova-Regular" font-size="25.8" fill="#FFAB40" transform="matrix(1.00, 0.00, -0.00, -1.00, 174.2, 338.0)">T</text><text xml:space="preserve" font-family="ProximaNova-Regular" font-size="25.8" fill="#FFAB40" transform="matrix(1.00, 0.00, -0.00, -1.00, 188.9, 338.0)">Y</text><text xml:space="preserve" font-family="ProximaNova-Regular" font-size="30.0" fill="#FFE499" transform="matrix(1.00, 0.00, -0.00, -1.00, 46.0, 237.0)">A</text><text xml:space="preserve" font-family="ProximaNova-Regular" font-size="30.0" fill="#FFE499" transform="matrix(1.00, 0.00, -0.00, -1.00, 65.7, 237.0)">n</text><text xml:space="preserve" font-family="ProximaNova-Regular" font-size="30.0" fill="#FFE499" transform="matrix(1.00, 0.00, -0.00, -1.00, 82.3, 237.0)"> </text><text xml:space="preserve" font-family="ProximaNova-Regular" font-size="30.0" fill="#FFE499" transform="matrix(1.00, 0.00, -0.00, -1.00, 90.1, 237.0)">a</text><text xml:space="preserve" font-family="ProximaNova-Regular" font-size="30.0" fill="#FFE499" transform="matrix(1.00, 0.00, -0.00, -1.00, 105.9, 237.0)">d</text><text xml:space="preserve" font-family="ProximaNova-Regular" font-size="30.0" fill="#FFE499" transform="matrix(1.00, 0.00, -0.00, -1.00, 123.2, 237.0)">m</text><text xml:space="preserve" font-family="ProximaNova-Regular" font-size="30.0" fill="#FFE499" transform="matrix(1.00, 0.00, -0.00, -1.00, 147.4, 237.0)">i</text><text xml:space="preserve" font-family="ProximaNova-Regular" font-size="30.0" fill="#FFE499" transform="matrix(1.00, 0.00, -0.00, -1.00, 154.1, 237.0)">s</text><text xml:space="preserve" font-family="ProximaNova-Regular" font-size="30.0" fill="#FFE499" transform="matrix(1.00, 0.00, -0.00, -1.00, 168.1, 237.0)">s</text><text xml:space="preserve" font-family="ProximaNova-Regular" font-size="30.0" fill="#FFE499" transform="matrix(1.00, 0.00, -0.00, -1.00, 182.0, 237.0)">i</text><text xml:space="preserve" font-family="ProximaNova-Regular" font-size="30.0" fill="#FFE499" transform="matrix(1.00, 0.00, -0.00, -1.00, 188.8, 237.0)">o</text><text xml:space="preserve" font-family="ProximaNova-Regular" font-size="30.0" fill="#FFE499" transform="matrix(1.00, 0.00, -0.00, -1.00, 206.0, 237.0)">n</text><text xml:space="preserve" font-family="ProximaNova-Regular" font-size="30.0" fill="#FFE499" transform="matrix(1.00, 0.00, -0.00, -1.00, 222.5, 237.0)">s</text><text xml:space="preserve" font-family="ProximaNova-Regular" font-size="30.0" fill="#FFE499" transform="matrix(1.00, 0.00, -0.00, -1.00, 236.5, 237.0)"> </text><text xml:space="preserve" font-family="ProximaNova-Regular" font-size="30.0" fill="#FFE499" transform="matrix(1.00, 0.00, -0.00, -1.00, 244.2, 237.0)">g</text><text xml:space="preserve" font-family="ProximaNova-Regular" font-size="30.0" fill="#FFE499" transform="matrix(1.00, 0.00, -0.00, -1.00, 261.5, 237.0)">u</text><text xml:space="preserve" font-family="ProximaNova-Regular" font-size="30.0" fill="#FFE499" transform="matrix(1.00, 0.00, -0.00, -1.00, 278.0, 237.0)">i</text><text xml:space="preserve" font-family="ProximaNova-Regular" font-size="30.0" fill="#FFE499" transform="matrix(1.00, 0.00, -0.00, -1.00, 284.8, 237.0)">d</text><text xml:space="preserve" font-family="ProximaNova-Regular" font-size="30.0" fill="#FFE499" transform="matrix(1.00, 0.00, -0.00, -1.00, 302.0, 237.0)">e</text><text xml:space="preserve" font-family="ProximaNova-Regular" font-size="30.0" fill="#FFE499" transform="matrix(1.00, 0.00, -0.00, -1.00, 318.9, 237.0)"> </text><text xml:space="preserve" font-family="ProximaNova-Regular" font-size="30.0" fill="#FFE499" transform="matrix(1.00, 0.00, -0.00, -1.00, 326.7, 237.0)">-</text><text xml:space="preserve" font-family="ProximaNova-Regular" font-size="30.0" fill="#FFE499" transform="matrix(1.00, 0.00, -0.00, -1.00, 335.7, 237.0)">-</text><text xml:space="preserve" font-family="ProximaNova-Regular" font-size="30.0" fill="#FFE499" transform="matrix(1.00, 0.00, -0.00, -1.00, 344.7, 237.0)"> </text><text xml:space="preserve" font-family="ProximaNova-Regular" font-size="30.0" fill="#FFE499" transform="matrix(1.00, 0.00, -0.00, -1.00, 352.4, 237.0)">a</text><text xml:space="preserve" font-family="ProximaNova-Regular" font-size="30.0" fill="#FFE499" transform="matrix(1.00, 0.00, -0.00, -1.00, 368.3, 237.0)"> </text><text xml:space="preserve" font-family="ProximaNova-Regular" font-size="30.0" fill="#FFE499" transform="matrix(1.00, 0.00, -0.00, -1.00, 376.1, 237.0)">c</text><text xml:space="preserve" font-family="ProximaNova-Regular" font-size="30.0" fill="#FFE499" transform="matrix(1.00, 0.00, -0.00, -1.00, 390.9, 237.0)">o</text><text xml:space="preserve" font-family="ProximaNova-Regular" font-size="30.0" fill="#FFE499" transform="matrix(1.00, 0.00, -0.00, -1.00, 408.1, 237.0)">m</text><text xml:space="preserve" font-family="ProximaNova-Regular" font-size="30.0" fill="#FFE499" transform="matrix(1.00, 0.00, -0.00, -1.00, 432.3, 237.0)">p</text><text xml:space="preserve" font-family="ProximaNova-Regular" font-size="30.0" fill="#FFE499" transform="matrix(1.00, 0.00, -0.00, -1.00, 449.5, 237.0)">a</text><text xml:space="preserve" font-family="ProximaNova-Regular" font-size="30.0" fill="#FFE499" transform="matrix(1.00, 0.00, -0.00, -1.00, 465.3, 237.0)">n</text><text xml:space="preserve" font-family="ProximaNova-Regular" font-size="30.0" fill="#FFE499" transform="matrix(1.00, 0.00, -0.00, -1.00, 481.9, 237.0)">i</text><text xml:space="preserve" font-family="ProximaNova-Regular" font-size="30.0" fill="#FFE499" transform="matrix(1.00, 0.00, -0.00, -1.00, 488.6, 237.0)">o</text><text xml:space="preserve" font-family="ProximaNova-Regular" font-size="30.0" fill="#FFE499" transform="matrix(1.00, 0.00, -0.00, -1.00, 505.8, 237.0)">n</text><text xml:space="preserve" font-family="ProximaNova-Regular" font-size="30.0" fill="#FFE499" transform="matrix(1.00, 0.00, -0.00, -1.00, 522.4, 237.0)"> </text><text xml:space="preserve" font-family="ProximaNova-Regular" font-size="30.0" fill="#FFE499" transform="matrix(1.00, 0.00, -0.00, -1.00, 530.1, 237.0)">f</text><text xml:space="preserve" font-family="ProximaNova-Regular" font-size="30.0" fill="#FFE499" transform="matrix(1.00, 0.00, -0.00, -1.00, 538.7, 237.0)">o</text><text xml:space="preserve" font-family="ProximaNova-Regular" font-size="30.0" fill="#FFE499" transform="matrix(1.00, 0.00, -0.00, -1.00, 555.8, 237.0)">r</text><text xml:space="preserve" font-family="ProximaNova-Regular" font-size="30.0" fill="#FFE499" transform="matrix(1.00, 0.00, -0.00, -1.00, 565.7, 237.0)"> </text><text xml:space="preserve" font-family="ProximaNova-Regular" font-size="30.0" fill="#FFE499" transform="matrix(1.00, 0.00, -0.00, -1.00, 573.5, 237.0)">w</text><text xml:space="preserve" font-family="ProximaNova-Regular" font-size="30.0" fill="#FFE499" transform="matrix(1.00, 0.00, -0.00, -1.00, 595.5, 237.0)">a</text><text xml:space="preserve" font-family="ProximaNova-Regular" font-size="30.0" fill="#FFE499" transform="matrix(1.00, 0.00, -0.00, -1.00, 611.3, 237.0)">l</text><text xml:space="preserve" font-family="ProximaNova-Regular" font-size="30.0" fill="#FFE499" transform="matrix(1.00, 0.00, -0.00, -1.00, 618.1, 237.0)">k</text><text xml:space="preserve" font-family="ProximaNova-Regular" font-size="30.0" fill="#FFE499" transform="matrix(1.00, 0.00, -0.00, -1.00, 633.5, 237.0)">i</text><text xml:space="preserve" font-family="ProximaNova-Regular" font-size="30.0" fill="#FFE499" transform="matrix(1.00, 0.00, -0.00, -1.00, 640.3, 237.0)">n</text><text xml:space="preserve" font-family="ProximaNova-Regular" font-size="30.0" fill="#FFE499" transform="matrix(1.00, 0.00, -0.00, -1.00, 656.8, 237.0)">g</text><text xml:space="preserve" font-family="ProximaNova-Regular" font-size="30.0" fill="#FFE499" transform="matrix(1.00, 0.00, -0.00, -1.00, 674.1, 237.0)"> </text><text xml:space="preserve" font-family="ProximaNova-Regular" font-size="30.0" fill="#FFE499" transform="matrix(1.00, 0.00, -0.00, -1.00, 119.0, 196.0)">y</text><text xml:space="preserve" font-family="ProximaNova-Regular" font-size="30.0" fill="#FFE499" transform="matrix(1.00, 0.00, -0.00, -1.00, 133.7, 196.0)">o</text><text xml:space="preserve" font-family="ProximaNova-Regular" font-size="30.0" fill="#FFE499" transform="matrix(1.00, 0.00, -0.00, -1.00, 150.9, 196.0)">u</text><text xml:space="preserve" font-family="ProximaNova-Regular" font-size="30.0" fill="#FFE499" transform="matrix(1.00, 0.00, -0.00, -1.00, 167.4, 196.0)"> </text><text xml:space="preserve" font-family="ProximaNova-Regular" font-size="30.0" fill="#FFE499" transform="matrix(1.00, 0.00, -0.00, -1.00, 175.2, 196.0)">t</text><text xml:space="preserve" font-family="ProximaNova-Regular" font-size="30.0" fill="#FFE499" transform="matrix(1.00, 0.00, -0.00, -1.00, 184.0, 196.0)">h</text><text xml:space="preserve" font-family="ProximaNova-Regular" font-size="30.0" fill="#FFE499" transform="matrix(1.00, 0.00, -0.00, -1.00, 200.5, 196.0)">r</text><text xml:space="preserve" font-family="ProximaNova-Regular" font-size="30.0" fill="#FFE499" transform="matrix(1.00, 0.00, -0.00, -1.00, 210.4, 196.0)">o</text><text xml:space="preserve" font-family="ProximaNova-Regular" font-size="30.0" fill="#FFE499" transform="matrix(1.00, 0.00, -0.00, -1.00, 227.6, 196.0)">u</text><text xml:space="preserve" font-family="ProximaNova-Regular" font-size="30.0" fill="#FFE499" transform="matrix(1.00, 0.00, -0.00, -1.00, 244.1, 196.0)">g</text><text xml:space="preserve" font-family="ProximaNova-Regular" font-size="30.0" fill="#FFE499" transform="matrix(1.00, 0.00, -0.00, -1.00, 261.4, 196.0)">h</text><text xml:space="preserve" font-family="ProximaNova-Regular" font-size="30.0" fill="#FFE499" transform="matrix(1.00, 0.00, -0.00, -1.00, 277.9, 196.0)"> </text><text xml:space="preserve" font-family="ProximaNova-Regular" font-size="30.0" fill="#FFE499" transform="matrix(1.00, 0.00, -0.00, -1.00, 285.7, 196.0)">t</text><text xml:space="preserve" font-family="ProximaNova-Regular" font-size="30.0" fill="#FFE499" transform="matrix(1.00, 0.00, -0.00, -1.00, 294.5, 196.0)">h</text><text xml:space="preserve" font-family="ProximaNova-Regular" font-size="30.0" fill="#FFE499" transform="matrix(1.00, 0.00, -0.00, -1.00, 311.1, 196.0)">e</text><text xml:space="preserve" font-family="ProximaNova-Regular" font-size="30.0" fill="#FFE499" transform="matrix(1.00, 0.00, -0.00, -1.00, 328.0, 196.0)"> </text><text xml:space="preserve" font-family="ProximaNova-Regular" font-size="30.0" fill="#FFE499" transform="matrix(1.00, 0.00, -0.00, -1.00, 335.8, 196.0)">a</text><text xml:space="preserve" font-family="ProximaNova-Regular" font-size="30.0" fill="#FFE499" transform="matrix(1.00, 0.00, -0.00, -1.00, 351.6, 196.0)">d</text><text xml:space="preserve" font-family="ProximaNova-Regular" font-size="30.0" fill="#FFE499" transform="matrix(1.00, 0.00, -0.00, -1.00, 368.8, 196.0)">m</text><text xml:space="preserve" font-family="ProximaNova-Regular" font-size="30.0" fill="#FFE499" transform="matrix(1.00, 0.00, -0.00, -1.00, 393.1, 196.0)">i</text><text xml:space="preserve" font-family="ProximaNova-Regular" font-size="30.0" fill="#FFE499" transform="matrix(1.00, 0.00, -0.00, -1.00, 399.8, 196.0)">s</text><text xml:space="preserve" font-family="ProximaNova-Regular" font-size="30.0" fill="#FFE499" transform="matrix(1.00, 0.00, -0.00, -1.00, 413.8, 196.0)">s</text><text xml:space="preserve" font-family="ProximaNova-Regular" font-size="30.0" fill="#FFE499" transform="matrix(1.00, 0.00, -0.00, -1.00, 427.7, 196.0)">i</text><text xml:space="preserve" font-family="ProximaNova-Regular" font-size="30.0" fill="#FFE499" transform="matrix(1.00, 0.00, -0.00, -1.00, 434.5, 196.0)">o</text><text xml:space="preserve" font-family="ProximaNova-Regular" font-size="30.0" fill="#FFE499" transform="matrix(1.00, 0.00, -0.00, -1.00, 451.6, 196.0)">n</text><text xml:space="preserve" font-family="ProximaNova-Regular" font-size="30.0" fill="#FFE499" transform="matrix(1.00, 0.00, -0.00, -1.00, 468.2, 196.0)">s</text><text xml:space="preserve" font-family="ProximaNova-Regular" font-size="30.0" fill="#FFE499" transform="matrix(1.00, 0.00, -0.00, -1.00, 482.2, 196.0)"> </text><text xml:space="preserve" font-family="ProximaNova-Regular" font-size="30.0" fill="#FFE499" transform="matrix(1.00, 0.00, -0.00, -1.00, 489.9, 196.0)">p</text><text xml:space="preserve" font-family="ProximaNova-Regular" font-size="30.0" fill="#FFE499" transform="matrix(1.00, 0.00, -0.00, -1.00, 507.1, 196.0)">r</text><text xml:space="preserve" font-family="ProximaNova-Regular" font-size="30.0" fill="#FFE499" transform="matrix(1.00, 0.00, -0.00, -1.00, 517.0, 196.0)">o</text><text xml:space="preserve" font-family="ProximaNova-Regular" font-size="30.0" fill="#FFE499" transform="matrix(1.00, 0.00, -0.00, -1.00, 534.1, 196.0)">c</text><text xml:space="preserve" font-family="ProximaNova-Regular" font-size="30.0" fill="#FFE499" transform="matrix(1.00, 0.00, -0.00, -1.00, 549.0, 196.0)">e</text><text xml:space="preserve" font-family="ProximaNova-Regular" font-size="30.0" fill="#FFE499" transform="matrix(1.00, 0.00, -0.00, -1.00, 565.9, 196.0)">s</text><text xml:space="preserve" font-family="ProximaNova-Regular" font-size="30.0" fill="#FFE499" transform="matrix(1.00, 0.00, -0.00, -1.00, 579.9, 196.0)">s</text><text xml:space="preserve" font-family="ProximaNova-Regular" font-size="30.0" fill="#FFE499" transform="matrix(1.00, 0.00, -0.00, -1.00, 593.8, 196.0)">.</text><text xml:space="preserve" font-family="ProximaNova-Regular" font-size="30.0" fill="#FFE499" transform="matrix(1.00, 0.00, -0.00, -1.00, 600.7, 196.0)"> </text><text xml:space="preserve" font-family="ProximaNova-Regular" font-size="18.0" fill="#FFE499" transform="matrix(1.00, 0.00, -0.00, -1.00, 42.0, 150.0)">P</text><text xml:space="preserve" font-family="ProximaNova-Regular" font-size="18.0" fill="#FFE499" transform="matrix(1.00, 0.00, -0.00, -1.00, 52.6, 150.0)">r</text><text xml:space="preserve" font-family="ProximaNova-Regular" font-size="18.0" fill="#FFE499" transform="matrix(1.00, 0.00, -0.00, -1.00, 58.5, 150.0)">o</text><text xml:space="preserve" font-family="ProximaNova-Regular" font-size="18.0" fill="#FFE499" transform="matrix(1.00, 0.00, -0.00, -1.00, 68.8, 150.0)">v</text><text xml:space="preserve" font-family="ProximaNova-Regular" font-size="18.0" fill="#FFE499" transform="matrix(1.00, 0.00, -0.00, -1.00, 77.6, 150.0)">i</text><text xml:space="preserve" font-family="ProximaNova-Regular" font-size="18.0" fill="#FFE499" transform="matrix(1.00, 0.00, -0.00, -1.00, 81.7, 150.0)">d</text><text xml:space="preserve" font-family="ProximaNova-Regular" font-size="18.0" fill="#FFE499" transform="matrix(1.00, 0.00, -0.00, -1.00, 92.0, 150.0)">i</text><text xml:space="preserve" font-family="ProximaNova-Regular" font-size="18.0" fill="#FFE499" transform="matrix(1.00, 0.00, -0.00, -1.00, 96.1, 150.0)">n</text><text xml:space="preserve" font-family="ProximaNova-Regular" font-size="18.0" fill="#FFE499" transform="matrix(1.00, 0.00, -0.00, -1.00, 106.0, 150.0)">g</text><text xml:space="preserve" font-family="ProximaNova-Regular" font-size="18.0" fill="#FFE499" transform="matrix(1.00, 0.00, -0.00, -1.00, 116.4, 150.0)"> </text><text xml:space="preserve" font-family="ProximaNova-Regular" font-size="18.0" fill="#FFE499" transform="matrix(1.00, 0.00, -0.00, -1.00, 121.0, 150.0)">p</text><text xml:space="preserve" font-family="ProximaNova-Regular" font-size="18.0" fill="#FFE499" transform="matrix(1.00, 0.00, -0.00, -1.00, 131.3, 150.0)">e</text><text xml:space="preserve" font-family="ProximaNova-Regular" font-size="18.0" fill="#FFE499" transform="matrix(1.00, 0.00, -0.00, -1.00, 141.4, 150.0)">r</text><text xml:space="preserve" font-family="ProximaNova-Regular" font-size="18.0" fill="#FFE499" transform="matrix(1.00, 0.00, -0.00, -1.00, 147.4, 150.0)">s</text><text xml:space="preserve" font-family="ProximaNova-Regular" font-size="18.0" fill="#FFE499" transform="matrix(1.00, 0.00, -0.00, -1.00, 155.8, 150.0)">o</text><text xml:space="preserve" font-family="ProximaNova-Regular" font-size="18.0" fill="#FFE499" transform="matrix(1.00, 0.00, -0.00, -1.00, 166.1, 150.0)">n</text><text xml:space="preserve" font-family="ProximaNova-Regular" font-size="18.0" fill="#FFE499" transform="matrix(1.00, 0.00, -0.00, -1.00, 176.0, 150.0)">a</text><text xml:space="preserve" font-family="ProximaNova-Regular" font-size="18.0" fill="#FFE499" transform="matrix(1.00, 0.00, -0.00, -1.00, 185.5, 150.0)">l</text><text xml:space="preserve" font-family="ProximaNova-Regular" font-size="18.0" fill="#FFE499" transform="matrix(1.00, 0.00, -0.00, -1.00, 189.5, 150.0)">i</text><text xml:space="preserve" font-family="ProximaNova-Regular" font-size="18.0" fill="#FFE499" transform="matrix(1.00, 0.00, -0.00, -1.00, 193.6, 150.0)">z</text><text xml:space="preserve" font-family="ProximaNova-Regular" font-size="18.0" fill="#FFE499" transform="matrix(1.00, 0.00, -0.00, -1.00, 202.1, 150.0)">e</text><text xml:space="preserve" font-family="ProximaNova-Regular" font-size="18.0" fill="#FFE499" transform="matrix(1.00, 0.00, -0.00, -1.00, 212.2, 150.0)">d</text><text xml:space="preserve" font-family="ProximaNova-Regular" font-size="18.0" fill="#FFE499" transform="matrix(1.00, 0.00, -0.00, -1.00, 222.6, 150.0)"> </text><text xml:space="preserve" font-family="ProximaNova-Regular" font-size="18.0" fill="#FFE499" transform="matrix(1.00, 0.00, -0.00, -1.00, 227.2, 150.0)">a</text><text xml:space="preserve" font-family="ProximaNova-Regular" font-size="18.0" fill="#FFE499" transform="matrix(1.00, 0.00, -0.00, -1.00, 236.7, 150.0)">n</text><text xml:space="preserve" font-family="ProximaNova-Regular" font-size="18.0" fill="#FFE499" transform="matrix(1.00, 0.00, -0.00, -1.00, 246.7, 150.0)">d</text><text xml:space="preserve" font-family="ProximaNova-Regular" font-size="18.0" fill="#FFE499" transform="matrix(1.00, 0.00, -0.00, -1.00, 257.0, 150.0)"> </text><text xml:space="preserve" font-family="ProximaNova-Regular" font-size="18.0" fill="#FFE499" transform="matrix(1.00, 0.00, -0.00, -1.00, 261.7, 150.0)">g</text><text xml:space="preserve" font-family="ProximaNova-Regular" font-size="18.0" fill="#FFE499" transform="matrix(1.00, 0.00, -0.00, -1.00, 272.0, 150.0)">e</text><text xml:space="preserve" font-family="ProximaNova-Regular" font-size="18.0" fill="#FFE499" transform="matrix(1.00, 0.00, -0.00, -1.00, 282.2, 150.0)">n</text><text xml:space="preserve" font-family="ProximaNova-Regular" font-size="18.0" fill="#FFE499" transform="matrix(1.00, 0.00, -0.00, -1.00, 292.1, 150.0)">e</text><text xml:space="preserve" font-family="ProximaNova-Regular" font-size="18.0" fill="#FFE499" transform="matrix(1.00, 0.00, -0.00, -1.00, 302.2, 150.0)">r</text><text xml:space="preserve" font-family="ProximaNova-Regular" font-size="18.0" fill="#FFE499" transform="matrix(1.00, 0.00, -0.00, -1.00, 308.2, 150.0)">a</text><text xml:space="preserve" font-family="ProximaNova-Regular" font-size="18.0" fill="#FFE499" transform="matrix(1.00, 0.00, -0.00, -1.00, 317.7, 150.0)">l</text><text xml:space="preserve" font-family="ProximaNova-Regular" font-size="18.0" fill="#FFE499" transform="matrix(1.00, 0.00, -0.00, -1.00, 321.7, 150.0)"> </text><text xml:space="preserve" font-family="ProximaNova-Regular" font-size="18.0" fill="#FFE499" transform="matrix(1.00, 0.00, -0.00, -1.00, 326.4, 150.0)">t</text><text xml:space="preserve" font-family="ProximaNova-Regular" font-size="18.0" fill="#FFE499" transform="matrix(1.00, 0.00, -0.00, -1.00, 331.7, 150.0)">a</text><text xml:space="preserve" font-family="ProximaNova-Regular" font-size="18.0" fill="#FFE499" transform="matrix(1.00, 0.00, -0.00, -1.00, 341.2, 150.0)">s</text><text xml:space="preserve" font-family="ProximaNova-Regular" font-size="18.0" fill="#FFE499" transform="matrix(1.00, 0.00, -0.00, -1.00, 349.6, 150.0)">k</text><text xml:space="preserve" font-family="ProximaNova-Regular" font-size="18.0" fill="#FFE499" transform="matrix(1.00, 0.00, -0.00, -1.00, 358.8, 150.0)"> </text><text xml:space="preserve" font-family="ProximaNova-Regular" font-size="18.0" fill="#FFE499" transform="matrix(1.00, 0.00, -0.00, -1.00, 363.5, 150.0)">l</text><text xml:space="preserve" font-family="ProximaNova-Regular" font-size="18.0" fill="#FFE499" transform="matrix(1.00, 0.00, -0.00, -1.00, 367.5, 150.0)">i</text><text xml:space="preserve" font-family="ProximaNova-Regular" font-size="18.0" fill="#FFE499" transform="matrix(1.00, 0.00, -0.00, -1.00, 371.6, 150.0)">s</text><text xml:space="preserve" font-family="ProximaNova-Regular" font-size="18.0" fill="#FFE499" transform="matrix(1.00, 0.00, -0.00, -1.00, 380.0, 150.0)">t</text><text xml:space="preserve" font-family="ProximaNova-Regular" font-size="18.0" fill="#FFE499" transform="matrix(1.00, 0.00, -0.00, -1.00, 385.2, 150.0)">s</text><text xml:space="preserve" font-family="ProximaNova-Regular" font-size="18.0" fill="#FFE499" transform="matrix(1.00, 0.00, -0.00, -1.00, 393.6, 150.0)">,</text><text xml:space="preserve" font-family="ProximaNova-Regular" font-size="18.0" fill="#FFE499" transform="matrix(1.00, 0.00, -0.00, -1.00, 397.8, 150.0)"> </text><text xml:space="preserve" font-family="ProximaNova-Regular" font-size="18.0" fill="#FFE499" transform="matrix(1.00, 0.00, -0.00, -1.00, 402.4, 150.0)">d</text><text xml:space="preserve" font-family="ProximaNova-Regular" font-size="18.0" fill="#FFE499" transform="matrix(1.00, 0.00, -0.00, -1.00, 412.8, 150.0)">e</text><text xml:space="preserve" font-family="ProximaNova-Regular" font-size="18.0" fill="#FFE499" transform="matrix(1.00, 0.00, -0.00, -1.00, 422.9, 150.0)">a</text><text xml:space="preserve" font-family="ProximaNova-Regular" font-size="18.0" fill="#FFE499" transform="matrix(1.00, 0.00, -0.00, -1.00, 432.4, 150.0)">d</text><text xml:space="preserve" font-family="ProximaNova-Regular" font-size="18.0" fill="#FFE499" transform="matrix(1.00, 0.00, -0.00, -1.00, 442.8, 150.0)">l</text><text xml:space="preserve" font-family="ProximaNova-Regular" font-size="18.0" fill="#FFE499" transform="matrix(1.00, 0.00, -0.00, -1.00, 446.8, 150.0)">i</text><text xml:space="preserve" font-family="ProximaNova-Regular" font-size="18.0" fill="#FFE499" transform="matrix(1.00, 0.00, -0.00, -1.00, 450.9, 150.0)">n</text><text xml:space="preserve" font-family="ProximaNova-Regular" font-size="18.0" fill="#FFE499" transform="matrix(1.00, 0.00, -0.00, -1.00, 460.8, 150.0)">e</text><text xml:space="preserve" font-family="ProximaNova-Regular" font-size="18.0" fill="#FFE499" transform="matrix(1.00, 0.00, -0.00, -1.00, 470.9, 150.0)">s</text><text xml:space="preserve" font-family="ProximaNova-Regular" font-size="18.0" fill="#FFE499" transform="matrix(1.00, 0.00, -0.00, -1.00, 479.3, 150.0)">,</text><text xml:space="preserve" font-family="ProximaNova-Regular" font-size="18.0" fill="#FFE499" transform="matrix(1.00, 0.00, -0.00, -1.00, 483.4, 150.0)"> </text><text xml:space="preserve" font-family="ProximaNova-Regular" font-size="18.0" fill="#FFE499" transform="matrix(1.00, 0.00, -0.00, -1.00, 488.1, 150.0)">f</text><text xml:space="preserve" font-family="ProximaNova-Regular" font-size="18.0" fill="#FFE499" transform="matrix(1.00, 0.00, -0.00, -1.00, 493.2, 150.0)">i</text><text xml:space="preserve" font-family="ProximaNova-Regular" font-size="18.0" fill="#FFE499" transform="matrix(1.00, 0.00, -0.00, -1.00, 497.3, 150.0)">n</text><text xml:space="preserve" font-family="ProximaNova-Regular" font-size="18.0" fill="#FFE499" transform="matrix(1.00, 0.00, -0.00, -1.00, 507.2, 150.0)">a</text><text xml:space="preserve" font-family="ProximaNova-Regular" font-size="18.0" fill="#FFE499" transform="matrix(1.00, 0.00, -0.00, -1.00, 516.7, 150.0)">n</text><text xml:space="preserve" font-family="ProximaNova-Regular" font-size="18.0" fill="#FFE499" transform="matrix(1.00, 0.00, -0.00, -1.00, 526.6, 150.0)">c</text><text xml:space="preserve" font-family="ProximaNova-Regular" font-size="18.0" fill="#FFE499" transform="matrix(1.00, 0.00, -0.00, -1.00, 535.6, 150.0)">i</text><text xml:space="preserve" font-family="ProximaNova-Regular" font-size="18.0" fill="#FFE499" transform="matrix(1.00, 0.00, -0.00, -1.00, 539.6, 150.0)">a</text><text xml:space="preserve" font-family="ProximaNova-Regular" font-size="18.0" fill="#FFE499" transform="matrix(1.00, 0.00, -0.00, -1.00, 549.1, 150.0)">l</text><text xml:space="preserve" font-family="ProximaNova-Regular" font-size="18.0" fill="#FFE499" transform="matrix(1.00, 0.00, -0.00, -1.00, 553.2, 150.0)"> </text><text xml:space="preserve" font-family="ProximaNova-Regular" font-size="18.0" fill="#FFE499" transform="matrix(1.00, 0.00, -0.00, -1.00, 557.8, 150.0)">a</text><text xml:space="preserve" font-family="ProximaNova-Regular" font-size="18.0" fill="#FFE499" transform="matrix(1.00, 0.00, -0.00, -1.00, 567.3, 150.0)">i</text><text xml:space="preserve" font-family="ProximaNova-Regular" font-size="18.0" fill="#FFE499" transform="matrix(1.00, 0.00, -0.00, -1.00, 571.4, 150.0)">d</text><text xml:space="preserve" font-family="ProximaNova-Regular" font-size="18.0" fill="#FFE499" transform="matrix(1.00, 0.00, -0.00, -1.00, 581.7, 150.0)"> </text><text xml:space="preserve" font-family="ProximaNova-Regular" font-size="18.0" fill="#FFE499" transform="matrix(1.00, 0.00, -0.00, -1.00, 586.4, 150.0)">g</text><text xml:space="preserve" font-family="ProximaNova-Regular" font-size="18.0" fill="#FFE499" transform="matrix(1.00, 0.00, -0.00, -1.00, 596.7, 150.0)">u</text><text xml:space="preserve" font-family="ProximaNova-Regular" font-size="18.0" fill="#FFE499" transform="matrix(1.00, 0.00, -0.00, -1.00, 606.7, 150.0)">i</text><text xml:space="preserve" font-family="ProximaNova-Regular" font-size="18.0" fill="#FFE499" transform="matrix(1.00, 0.00, -0.00, -1.00, 610.7, 150.0)">d</text><text xml:space="preserve" font-family="ProximaNova-Regular" font-size="18.0" fill="#FFE499" transform="matrix(1.00, 0.00, -0.00, -1.00, 621.1, 150.0)">e</text><text xml:space="preserve" font-family="ProximaNova-Regular" font-size="18.0" fill="#FFE499" transform="matrix(1.00, 0.00, -0.00, -1.00, 631.2, 150.0)">s</text><text xml:space="preserve" font-family="ProximaNova-Regular" font-size="18.0" fill="#FFE499" transform="matrix(1.00, 0.00, -0.00, -1.00, 639.6, 150.0)">,</text><text xml:space="preserve" font-family="ProximaNova-Regular" font-size="18.0" fill="#FFE499" transform="matrix(1.00, 0.00, -0.00, -1.00, 643.7, 150.0)"> </text><text xml:space="preserve" font-family="ProximaNova-Regular" font-size="18.0" fill="#FFE499" transform="matrix(1.00, 0.00, -0.00, -1.00, 648.4, 150.0)">a</text><text xml:space="preserve" font-family="ProximaNova-Regular" font-size="18.0" fill="#FFE499" transform="matrix(1.00, 0.00, -0.00, -1.00, 657.9, 150.0)">n</text><text xml:space="preserve" font-family="ProximaNova-Regular" font-size="18.0" fill="#FFE499" transform="matrix(1.00, 0.00, -0.00, -1.00, 667.8, 150.0)">d</text><text xml:space="preserve" font-family="ProximaNova-Regular" font-size="18.0" fill="#FFE499" transform="matrix(1.00, 0.00, -0.00, -1.00, 678.2, 150.0)"> </text><text xml:space="preserve" font-family="ProximaNova-Regular" font-size="18.0" fill="#FFE499" transform="matrix(1.00, 0.00, -0.00, -1.00, 187.0, 125.0)">s</text><text xml:space="preserve" font-family="ProximaNova-Regular" font-size="18.0" fill="#FFE499" transform="matrix(1.00, 0.00, -0.00, -1.00, 195.4, 125.0)">c</text><text xml:space="preserve" font-family="ProximaNova-Regular" font-size="18.0" fill="#FFE499" transform="matrix(1.00, 0.00, -0.00, -1.00, 204.3, 125.0)">h</text><text xml:space="preserve" font-family="ProximaNova-Regular" font-size="18.0" fill="#FFE499" transform="matrix(1.00, 0.00, -0.00, -1.00, 214.2, 125.0)">o</text><text xml:space="preserve" font-family="ProximaNova-Regular" font-size="18.0" fill="#FFE499" transform="matrix(1.00, 0.00, -0.00, -1.00, 224.5, 125.0)">l</text><text xml:space="preserve" font-family="ProximaNova-Regular" font-size="18.0" fill="#FFE499" transform="matrix(1.00, 0.00, -0.00, -1.00, 228.6, 125.0)">a</text><text xml:space="preserve" font-family="ProximaNova-Regular" font-size="18.0" fill="#FFE499" transform="matrix(1.00, 0.00, -0.00, -1.00, 238.1, 125.0)">r</text><text xml:space="preserve" font-family="ProximaNova-Regular" font-size="18.0" fill="#FFE499" transform="matrix(1.00, 0.00, -0.00, -1.00, 244.0, 125.0)">s</text><text xml:space="preserve" font-family="ProximaNova-Regular" font-size="18.0" fill="#FFE499" transform="matrix(1.00, 0.00, -0.00, -1.00, 252.4, 125.0)">h</text><text xml:space="preserve" font-family="ProximaNova-Regular" font-size="18.0" fill="#FFE499" transform="matrix(1.00, 0.00, -0.00, -1.00, 262.3, 125.0)">i</text><text xml:space="preserve" font-family="ProximaNova-Regular" font-size="18.0" fill="#FFE499" transform="matrix(1.00, 0.00, -0.00, -1.00, 266.4, 125.0)">p</text><text xml:space="preserve" font-family="ProximaNova-Regular" font-size="18.0" fill="#FFE499" transform="matrix(1.00, 0.00, -0.00, -1.00, 276.7, 125.0)"> </text><text xml:space="preserve" font-family="ProximaNova-Regular" font-size="18.0" fill="#FFE499" transform="matrix(1.00, 0.00, -0.00, -1.00, 281.3, 125.0)">f</text><text xml:space="preserve" font-family="ProximaNova-Regular" font-size="18.0" fill="#FFE499" transform="matrix(1.00, 0.00, -0.00, -1.00, 286.4, 125.0)">i</text><text xml:space="preserve" font-family="ProximaNova-Regular" font-size="18.0" fill="#FFE499" transform="matrix(1.00, 0.00, -0.00, -1.00, 290.5, 125.0)">n</text><text xml:space="preserve" font-family="ProximaNova-Regular" font-size="18.0" fill="#FFE499" transform="matrix(1.00, 0.00, -0.00, -1.00, 300.4, 125.0)">d</text><text xml:space="preserve" font-family="ProximaNova-Regular" font-size="18.0" fill="#FFE499" transform="matrix(1.00, 0.00, -0.00, -1.00, 310.8, 125.0)">e</text><text xml:space="preserve" font-family="ProximaNova-Regular" font-size="18.0" fill="#FFE499" transform="matrix(1.00, 0.00, -0.00, -1.00, 320.9, 125.0)">r</text><text xml:space="preserve" font-family="ProximaNova-Regular" font-size="18.0" fill="#FFE499" transform="matrix(1.00, 0.00, -0.00, -1.00, 326.9, 125.0)">s</text><text xml:space="preserve" font-family="ProximaNova-Regular" font-size="18.0" fill="#FFE499" transform="matrix(1.00, 0.00, -0.00, -1.00, 335.2, 125.0)"> </text><text xml:space="preserve" font-family="ProximaNova-Regular" font-size="18.0" fill="#FFE499" transform="matrix(1.00, 0.00, -0.00, -1.00, 339.9, 125.0)">f</text><text xml:space="preserve" font-family="ProximaNova-Regular" font-size="18.0" fill="#FFE499" transform="matrix(1.00, 0.00, -0.00, -1.00, 345.0, 125.0)">o</text><text xml:space="preserve" font-family="ProximaNova-Regular" font-size="18.0" fill="#FFE499" transform="matrix(1.00, 0.00, -0.00, -1.00, 355.3, 125.0)">r</text><text xml:space="preserve" font-family="ProximaNova-Regular" font-size="18.0" fill="#FFE499" transform="matrix(1.00, 0.00, -0.00, -1.00, 361.2, 125.0)"> </text><text xml:space="preserve" font-family="ProximaNova-Regular" font-size="18.0" fill="#FFE499" transform="matrix(1.00, 0.00, -0.00, -1.00, 365.9, 125.0)">a</text><text xml:space="preserve" font-family="ProximaNova-Regular" font-size="18.0" fill="#FFE499" transform="matrix(1.00, 0.00, -0.00, -1.00, 375.4, 125.0)">n</text><text xml:space="preserve" font-family="ProximaNova-Regular" font-size="18.0" fill="#FFE499" transform="matrix(1.00, 0.00, -0.00, -1.00, 385.3, 125.0)">y</text><text xml:space="preserve" font-family="ProximaNova-Regular" font-size="18.0" fill="#FFE499" transform="matrix(1.00, 0.00, -0.00, -1.00, 394.2, 125.0)"> </text><text xml:space="preserve" font-family="ProximaNova-Regular" font-size="18.0" fill="#FFE499" transform="matrix(1.00, 0.00, -0.00, -1.00, 398.8, 125.0)">c</text><text xml:space="preserve" font-family="ProximaNova-Regular" font-size="18.0" fill="#FFE499" transform="matrix(1.00, 0.00, -0.00, -1.00, 407.8, 125.0)">o</text><text xml:space="preserve" font-family="ProximaNova-Regular" font-size="18.0" fill="#FFE499" transform="matrix(1.00, 0.00, -0.00, -1.00, 418.0, 125.0)">l</text><text xml:space="preserve" font-family="ProximaNova-Regular" font-size="18.0" fill="#FFE499" transform="matrix(1.00, 0.00, -0.00, -1.00, 422.1, 125.0)">l</text><text xml:space="preserve" font-family="ProximaNova-Regular" font-size="18.0" fill="#FFE499" transform="matrix(1.00, 0.00, -0.00, -1.00, 426.1, 125.0)">e</text><text xml:space="preserve" font-family="ProximaNova-Regular" font-size="18.0" fill="#FFE499" transform="matrix(1.00, 0.00, -0.00, -1.00, 436.3, 125.0)">g</text><text xml:space="preserve" font-family="ProximaNova-Regular" font-size="18.0" fill="#FFE499" transform="matrix(1.00, 0.00, -0.00, -1.00, 446.6, 125.0)">e</text><text xml:space="preserve" font-family="ProximaNova-Regular" font-size="18.0" fill="#FFE499" transform="matrix(1.00, 0.00, -0.00, -1.00, 456.8, 125.0)"> </text><text xml:space="preserve" font-family="ProximaNova-Regular" font-size="18.0" fill="#FFE499" transform="matrix(1.00, 0.00, -0.00, -1.00, 461.4, 125.0)">a</text><text xml:space="preserve" font-family="ProximaNova-Regular" font-size="18.0" fill="#FFE499" transform="matrix(1.00, 0.00, -0.00, -1.00, 470.9, 125.0)">p</text><text xml:space="preserve" font-family="ProximaNova-Regular" font-size="18.0" fill="#FFE499" transform="matrix(1.00, 0.00, -0.00, -1.00, 481.2, 125.0)">p</text><text xml:space="preserve" font-family="ProximaNova-Regular" font-size="18.0" fill="#FFE499" transform="matrix(1.00, 0.00, -0.00, -1.00, 491.5, 125.0)">l</text><text xml:space="preserve" font-family="ProximaNova-Regular" font-size="18.0" fill="#FFE499" transform="matrix(1.00, 0.00, -0.00, -1.00, 495.6, 125.0)">i</text><text xml:space="preserve" font-family="ProximaNova-Regular" font-size="18.0" fill="#FFE499" transform="matrix(1.00, 0.00, -0.00, -1.00, 499.6, 125.0)">c</text><text xml:space="preserve" font-family="ProximaNova-Regular" font-size="18.0" fill="#FFE499" transform="matrix(1.00, 0.00, -0.00, -1.00, 508.6, 125.0)">a</text><text xml:space="preserve" font-family="ProximaNova-Regular" font-size="18.0" fill="#FFE499" transform="matrix(1.00, 0.00, -0.00, -1.00, 518.1, 125.0)">n</text><text xml:space="preserve" font-family="ProximaNova-Regular" font-size="18.0" fill="#FFE499" transform="matrix(1.00, 0.00, -0.00, -1.00, 528.0, 125.0)">t</text></g></svg>