<?xml version="1.0" encoding="UTF-8"?><svg xmlns="http://www.w3.org/2000/svg" xmlns:xlink="http://www.w3.org/1999/xlink" clip-rule="evenodd" stroke-miterlimit="4.00" viewBox="0 0 720 405"><desc>SVG generated by Keynote</desc><defs></defs><g transform="matrix(1.00, 0.00, -0.00, -1.00, 0.0, 405.0)"><path d="M 0.0 0.0 L 720.0 0.0 L 720.0 405.0 L 0.0 405.0 Z M 0.0 0.0 " fill="#212121"></path><g><clipPath id="clip-72"><path d="M 0.0 15.0 L 720.0 15.0 L 720.0 0.0 L 0.0 0.0 Z M 0.0 14.6 "></path></clipPath><g clip-path="url(#clip-72)"><image xlink:href="../../F9151A63-6472-4580-9350-F8B065CF0AEF/assets/E727F7411E2471EE462B064648A9C275.jpeg" width="721.00" height="26.00" transform="matrix(1.00, 0.00, -0.00, -1.04, 0.0, 27.0)"></image></g></g><text xml:space="preserve" font-family="ProximaNova-Regular" font-size="25.8" fill="#FFAB40" transform="matrix(1.00, 0.00, -0.00, -1.00, 32.0, 338.0)">S</text><text xml:space="preserve" font-family="ProximaNova-Regular" font-size="25.8" fill="#FFAB40" transform="matrix(1.00, 0.00, -0.00, -1.00, 46.9, 338.0)">T</text><text xml:space="preserve" font-family="ProximaNova-Regular" font-size="25.8" fill="#FFAB40" transform="matrix(1.00, 0.00, -0.00, -1.00, 59.9, 338.0)">A</text><text xml:space="preserve" font-family="ProximaNova-Regular" font-size="25.8" fill="#FFAB40" transform="matrix(1.00, 0.00, -0.00, -1.00, 75.1, 338.0)">T</text><text xml:space="preserve" font-family="ProximaNova-Regular" font-size="25.8" fill="#FFAB40" transform="matrix(1.00, 0.00, -0.00, -1.00, 89.8, 338.0)">I</text><text xml:space="preserve" font-family="ProximaNova-Regular" font-size="25.8" fill="#FFAB40" transform="matrix(1.00, 0.00, -0.00, -1.00, 96.0, 338.0)">C</text><text xml:space="preserve" font-family="ProximaNova-Regular" font-size="25.8" fill="#FFAB40" transform="matrix(1.00, 0.00, -0.00, -1.00, 113.4, 338.0)"> </text><text xml:space="preserve" font-family="ProximaNova-Regular" font-size="25.8" fill="#FFAB40" transform="matrix(1.00, 0.00, -0.00, -1.00, 120.0, 338.0)">S</text><text xml:space="preserve" font-family="ProximaNova-Regular" font-size="25.8" fill="#FFAB40" transform="matrix(1.00, 0.00, -0.00, -1.00, 135.1, 338.0)">C</text><text xml:space="preserve" font-family="ProximaNova-Regular" font-size="25.8" fill="#FFAB40" transform="matrix(1.00, 0.00, -0.00, -1.00, 152.6, 338.0)">R</text><text xml:space="preserve" font-family="ProximaNova-Regular" font-size="25.8" fill="#FFAB40" transform="matrix(1.00, 0.00, -0.00, -1.00, 168.2, 338.0)">E</text><text xml:space="preserve" font-family="ProximaNova-Regular" font-size="25.8" fill="#FFAB40" transform="matrix(1.00, 0.00, -0.00, -1.00, 182.9, 338.0)">E</text><text xml:space="preserve" font-family="ProximaNova-Regular" font-size="25.8" fill="#FFAB40" transform="matrix(1.00, 0.00, -0.00, -1.00, 197.6, 338.0)">N</text><text xml:space="preserve" font-family="ProximaNova-Regular" font-size="25.8" fill="#FFAB40" transform="matrix(1.00, 0.00, -0.00, -1.00, 215.8, 338.0)">S</text><image xlink:href="F07A659F9AA22C762EEECF2A257C98E3.png" width="146.00" height="287.00" transform="matrix(0.99, 0.00, -0.00, -1.00, 30.0, 313.0)"></image><image xlink:href="D134F6E8F278A3E252FF31E1B627DF8C.png" width="146.00" height="292.00" transform="matrix(1.00, 0.00, -0.00, -1.00, 204.0, 313.0)"></image><image xlink:href="5ED477AC8760B4F2621C73617A0A9D94.png" width="155.00" height="292.00" transform="matrix(1.00, 0.00, -0.00, -1.00, 374.0, 313.0)"></image><image xlink:href="750AC1F9C80AFD8EDCF72E0B466DD30E.png" width="148.00" height="292.00" transform="matrix(1.00, 0.00, -0.00, -1.00, 550.0, 313.0)"></image></g></svg>