<?xml version="1.0" encoding="UTF-8"?><svg xmlns="http://www.w3.org/2000/svg" xmlns:xlink="http://www.w3.org/1999/xlink" clip-rule="evenodd" stroke-miterlimit="4.00" viewBox="0 0 1024 768"><desc>SVG generated by Keynote</desc><defs></defs><g transform="matrix(1.00, 0.00, -0.00, -1.00, 0.0, 768.0)"><path d="M 0.0 0.0 L 1024.0 0.0 L 1024.0 768.0 L 0.0 768.0 Z M 0.0 0.0 " fill="#000000"></path><text xml:space="preserve" font-family="Avenir-Light" font-size="45.0" fill="#FEFFFF" transform="matrix(1.00, 0.00, -0.00, -1.00, 56.0, 644.0)">I</text><text xml:space="preserve" font-family="Avenir-Light" font-size="45.0" fill="#FEFFFF" transform="matrix(1.00, 0.00, -0.00, -1.00, 74.9, 644.0)">N</text><text xml:space="preserve" font-family="Avenir-Light" font-size="45.0" fill="#FEFFFF" transform="matrix(1.00, 0.00, -0.00, -1.00, 117.1, 644.0)">-</text><text xml:space="preserve" font-family="Avenir-Light" font-size="45.0" fill="#FEFFFF" transform="matrix(1.00, 0.00, -0.00, -1.00, 139.3, 644.0)">A</text><text xml:space="preserve" font-family="Avenir-Light" font-size="45.0" fill="#FEFFFF" transform="matrix(1.00, 0.00, -0.00, -1.00, 177.3, 644.0)">P</text><text xml:space="preserve" font-family="Avenir-Light" font-size="45.0" fill="#FEFFFF" transform="matrix(1.00, 0.00, -0.00, -1.00, 210.3, 644.0)">P</text><text xml:space="preserve" font-family="Avenir-Light" font-size="45.0" fill="#FEFFFF" transform="matrix(1.00, 0.00, -0.00, -1.00, 243.4, 644.0)"> </text><text xml:space="preserve" font-family="Avenir-Light" font-size="45.0" fill="#FEFFFF" transform="matrix(1.00, 0.00, -0.00, -1.00, 262.3, 644.0)">S</text><text xml:space="preserve" font-family="Avenir-Light" font-size="45.0" fill="#FEFFFF" transform="matrix(1.00, 0.00, -0.00, -1.00, 294.5, 644.0)">E</text><text xml:space="preserve" font-family="Avenir-Light" font-size="45.0" fill="#FEFFFF" transform="matrix(1.00, 0.00, -0.00, -1.00, 328.4, 644.0)">T</text><text xml:space="preserve" font-family="Avenir-Light" font-size="45.0" fill="#FEFFFF" transform="matrix(1.00, 0.00, -0.00, -1.00, 361.4, 644.0)">U</text><text xml:space="preserve" font-family="Avenir-Light" font-size="45.0" fill="#FEFFFF" transform="matrix(1.00, 0.00, -0.00, -1.00, 399.4, 644.0)">P</text><text xml:space="preserve" font-family="Avenir-Light" font-size="45.0" fill="#FEFFFF" transform="matrix(1.00, 0.00, -0.00, -1.00, 425.5, 644.0)">,</text><text xml:space="preserve" font-family="Avenir-Light" font-size="45.0" fill="#FEFFFF" transform="matrix(1.00, 0.00, -0.00, -1.00, 444.4, 644.0)"> </text><text xml:space="preserve" font-family="Avenir-Light" font-size="45.0" fill="#FEFFFF" transform="matrix(1.00, 0.00, -0.00, -1.00, 463.3, 644.0)">L</text><text xml:space="preserve" font-family="Avenir-Light" font-size="45.0" fill="#FEFFFF" transform="matrix(1.00, 0.00, -0.00, -1.00, 493.0, 644.0)">O</text><text xml:space="preserve" font-family="Avenir-Light" font-size="45.0" fill="#FEFFFF" transform="matrix(1.00, 0.00, -0.00, -1.00, 537.8, 644.0)">-</text><text xml:space="preserve" font-family="Avenir-Light" font-size="45.0" fill="#FEFFFF" transform="matrix(1.00, 0.00, -0.00, -1.00, 560.0, 644.0)">F</text><text xml:space="preserve" font-family="Avenir-Light" font-size="45.0" fill="#FEFFFF" transform="matrix(1.00, 0.00, -0.00, -1.00, 592.2, 644.0)">I</text><text xml:space="preserve" font-family="Avenir-Book" font-size="24.0" fill="#55D6FF" transform="matrix(1.00, 0.00, -0.00, -1.00, 57.0, 699.0)">S</text><text xml:space="preserve" font-family="Avenir-Book" font-size="24.0" fill="#55D6FF" transform="matrix(1.00, 0.00, -0.00, -1.00, 74.2, 699.0)">K</text><text xml:space="preserve" font-family="Avenir-Book" font-size="24.0" fill="#55D6FF" transform="matrix(1.00, 0.00, -0.00, -1.00, 93.1, 699.0)">E</text><text xml:space="preserve" font-family="Avenir-Book" font-size="24.0" fill="#55D6FF" transform="matrix(1.00, 0.00, -0.00, -1.00, 111.2, 699.0)">T</text><text xml:space="preserve" font-family="Avenir-Book" font-size="24.0" fill="#55D6FF" transform="matrix(1.00, 0.00, -0.00, -1.00, 128.8, 699.0)">C</text><text xml:space="preserve" font-family="Avenir-Book" font-size="24.0" fill="#55D6FF" transform="matrix(1.00, 0.00, -0.00, -1.00, 149.6, 699.0)">H</text><text xml:space="preserve" font-family="Avenir-Book" font-size="24.0" fill="#55D6FF" transform="matrix(1.00, 0.00, -0.00, -1.00, 170.7, 699.0)">E</text><text xml:space="preserve" font-family="Avenir-Book" font-size="24.0" fill="#55D6FF" transform="matrix(1.00, 0.00, -0.00, -1.00, 188.8, 699.0)">S</text><image xlink:href="../../A79BDE2A-7FDC-4197-A569-8809880AB0FA/assets/C6C9C6E041C66AED2FB9C14070D58A7C.jpeg" width="705.00" height="559.00" transform="matrix(1.00, 0.00, -0.00, -1.00, 160.0, 609.0)"></image></g></svg>