<?xml version="1.0" encoding="UTF-8"?><svg xmlns="http://www.w3.org/2000/svg" xmlns:xlink="http://www.w3.org/1999/xlink" clip-rule="evenodd" stroke-miterlimit="4.00" viewBox="0 0 1024 768"><desc>SVG generated by Keynote</desc><defs></defs><g transform="matrix(1.00, 0.00, -0.00, -1.00, 0.0, 768.0)"><path d="M 0.0 0.0 L 1024.0 0.0 L 1024.0 768.0 L 0.0 768.0 Z M 0.0 0.0 " fill="#000000"></path><text xml:space="preserve" font-family="Avenir-Light" font-size="33.3" fill="#FEFFFF" transform="matrix(1.00, 0.00, -0.00, -1.00, 47.0, 666.0)">S</text><text xml:space="preserve" font-family="Avenir-Light" font-size="33.3" fill="#FEFFFF" transform="matrix(1.00, 0.00, -0.00, -1.00, 70.8, 666.0)">O</text><text xml:space="preserve" font-family="Avenir-Light" font-size="33.3" fill="#FEFFFF" transform="matrix(1.00, 0.00, -0.00, -1.00, 103.9, 666.0)">C</text><text xml:space="preserve" font-family="Avenir-Light" font-size="33.3" fill="#FEFFFF" transform="matrix(1.00, 0.00, -0.00, -1.00, 132.7, 666.0)">I</text><text xml:space="preserve" font-family="Avenir-Light" font-size="33.3" fill="#FEFFFF" transform="matrix(1.00, 0.00, -0.00, -1.00, 146.7, 666.0)">A</text><text xml:space="preserve" font-family="Avenir-Light" font-size="33.3" fill="#FEFFFF" transform="matrix(1.00, 0.00, -0.00, -1.00, 174.8, 666.0)">L</text><text xml:space="preserve" font-family="Avenir-Light" font-size="33.3" fill="#FEFFFF" transform="matrix(1.00, 0.00, -0.00, -1.00, 196.8, 666.0)"> </text><text xml:space="preserve" font-family="Avenir-Light" font-size="33.3" fill="#FEFFFF" transform="matrix(1.00, 0.00, -0.00, -1.00, 210.8, 666.0)">M</text><text xml:space="preserve" font-family="Avenir-Light" font-size="33.3" fill="#FEFFFF" transform="matrix(1.00, 0.00, -0.00, -1.00, 245.7, 666.0)">E</text><text xml:space="preserve" font-family="Avenir-Light" font-size="33.3" fill="#FEFFFF" transform="matrix(1.00, 0.00, -0.00, -1.00, 270.8, 666.0)">D</text><text xml:space="preserve" font-family="Avenir-Light" font-size="33.3" fill="#FEFFFF" transform="matrix(1.00, 0.00, -0.00, -1.00, 300.8, 666.0)">I</text><text xml:space="preserve" font-family="Avenir-Light" font-size="33.3" fill="#FEFFFF" transform="matrix(1.00, 0.00, -0.00, -1.00, 314.8, 666.0)">A</text><text xml:space="preserve" font-family="Avenir-Light" font-size="33.3" fill="#FEFFFF" transform="matrix(1.00, 0.00, -0.00, -1.00, 342.9, 666.0)"> </text><text xml:space="preserve" font-family="Avenir-Light" font-size="33.3" fill="#FEFFFF" transform="matrix(1.00, 0.00, -0.00, -1.00, 47.0, 621.0)">M</text><text xml:space="preserve" font-family="Avenir-Light" font-size="33.3" fill="#FEFFFF" transform="matrix(1.00, 0.00, -0.00, -1.00, 81.9, 621.0)">A</text><text xml:space="preserve" font-family="Avenir-Light" font-size="33.3" fill="#FEFFFF" transform="matrix(1.00, 0.00, -0.00, -1.00, 110.1, 621.0)">N</text><text xml:space="preserve" font-family="Avenir-Light" font-size="33.3" fill="#FEFFFF" transform="matrix(1.00, 0.00, -0.00, -1.00, 141.3, 621.0)">A</text><text xml:space="preserve" font-family="Avenir-Light" font-size="33.3" fill="#FEFFFF" transform="matrix(1.00, 0.00, -0.00, -1.00, 169.4, 621.0)">G</text><text xml:space="preserve" font-family="Avenir-Light" font-size="33.3" fill="#FEFFFF" transform="matrix(1.00, 0.00, -0.00, -1.00, 200.7, 621.0)">E</text><text xml:space="preserve" font-family="Avenir-Light" font-size="33.3" fill="#FEFFFF" transform="matrix(1.00, 0.00, -0.00, -1.00, 225.8, 621.0)">M</text><text xml:space="preserve" font-family="Avenir-Light" font-size="33.3" fill="#FEFFFF" transform="matrix(1.00, 0.00, -0.00, -1.00, 260.7, 621.0)">E</text><text xml:space="preserve" font-family="Avenir-Light" font-size="33.3" fill="#FEFFFF" transform="matrix(1.00, 0.00, -0.00, -1.00, 285.8, 621.0)">N</text><text xml:space="preserve" font-family="Avenir-Light" font-size="33.3" fill="#FEFFFF" transform="matrix(1.00, 0.00, -0.00, -1.00, 317.0, 621.0)">T</text><text xml:space="preserve" font-family="Avenir-Light" font-size="33.3" fill="#FEFFFF" transform="matrix(1.00, 0.00, -0.00, -1.00, 341.4, 621.0)"> </text><text xml:space="preserve" font-family="Avenir-Light" font-size="33.3" fill="#FEFFFF" transform="matrix(1.00, 0.00, -0.00, -1.00, 47.0, 576.0)">T</text><text xml:space="preserve" font-family="Avenir-Light" font-size="33.3" fill="#FEFFFF" transform="matrix(1.00, 0.00, -0.00, -1.00, 71.4, 576.0)">O</text><text xml:space="preserve" font-family="Avenir-Light" font-size="33.3" fill="#FEFFFF" transform="matrix(1.00, 0.00, -0.00, -1.00, 104.5, 576.0)">O</text><text xml:space="preserve" font-family="Avenir-Light" font-size="33.3" fill="#FEFFFF" transform="matrix(1.00, 0.00, -0.00, -1.00, 137.6, 576.0)">L</text><text xml:space="preserve" font-family="Avenir-Light" font-size="33.3" fill="#FEFFFF" transform="matrix(1.00, 0.00, -0.00, -1.00, 159.6, 576.0)">S</text><text xml:space="preserve" font-family="Avenir-Book" font-size="24.0" fill="#55D6FF" transform="matrix(1.00, 0.00, -0.00, -1.00, 47.0, 711.0)">C</text><text xml:space="preserve" font-family="Avenir-Book" font-size="24.0" fill="#55D6FF" transform="matrix(1.00, 0.00, -0.00, -1.00, 67.7, 711.0)">O</text><text xml:space="preserve" font-family="Avenir-Book" font-size="24.0" fill="#55D6FF" transform="matrix(1.00, 0.00, -0.00, -1.00, 91.6, 711.0)">M</text><text xml:space="preserve" font-family="Avenir-Book" font-size="24.0" fill="#55D6FF" transform="matrix(1.00, 0.00, -0.00, -1.00, 116.8, 711.0)">P</text><text xml:space="preserve" font-family="Avenir-Book" font-size="24.0" fill="#55D6FF" transform="matrix(1.00, 0.00, -0.00, -1.00, 134.4, 711.0)">E</text><text xml:space="preserve" font-family="Avenir-Book" font-size="24.0" fill="#55D6FF" transform="matrix(1.00, 0.00, -0.00, -1.00, 152.5, 711.0)">T</text><text xml:space="preserve" font-family="Avenir-Book" font-size="24.0" fill="#55D6FF" transform="matrix(1.00, 0.00, -0.00, -1.00, 170.1, 711.0)">I</text><text xml:space="preserve" font-family="Avenir-Book" font-size="24.0" fill="#55D6FF" transform="matrix(1.00, 0.00, -0.00, -1.00, 180.3, 711.0)">T</text><text xml:space="preserve" font-family="Avenir-Book" font-size="24.0" fill="#55D6FF" transform="matrix(1.00, 0.00, -0.00, -1.00, 197.9, 711.0)">I</text><text xml:space="preserve" font-family="Avenir-Book" font-size="24.0" fill="#55D6FF" transform="matrix(1.00, 0.00, -0.00, -1.00, 208.1, 711.0)">V</text><text xml:space="preserve" font-family="Avenir-Book" font-size="24.0" fill="#55D6FF" transform="matrix(1.00, 0.00, -0.00, -1.00, 226.6, 711.0)">E</text><text xml:space="preserve" font-family="Avenir-Book" font-size="24.0" fill="#55D6FF" transform="matrix(1.00, 0.00, -0.00, -1.00, 244.6, 711.0)"> </text><text xml:space="preserve" font-family="Avenir-Book" font-size="24.0" fill="#55D6FF" transform="matrix(1.00, 0.00, -0.00, -1.00, 255.2, 711.0)">R</text><text xml:space="preserve" font-family="Avenir-Book" font-size="24.0" fill="#55D6FF" transform="matrix(1.00, 0.00, -0.00, -1.00, 273.2, 711.0)">E</text><text xml:space="preserve" font-family="Avenir-Book" font-size="24.0" fill="#55D6FF" transform="matrix(1.00, 0.00, -0.00, -1.00, 291.3, 711.0)">S</text><text xml:space="preserve" font-family="Avenir-Book" font-size="24.0" fill="#55D6FF" transform="matrix(1.00, 0.00, -0.00, -1.00, 308.5, 711.0)">E</text><text xml:space="preserve" font-family="Avenir-Book" font-size="24.0" fill="#55D6FF" transform="matrix(1.00, 0.00, -0.00, -1.00, 326.6, 711.0)">A</text><text xml:space="preserve" font-family="Avenir-Book" font-size="24.0" fill="#55D6FF" transform="matrix(1.00, 0.00, -0.00, -1.00, 346.9, 711.0)">R</text><text xml:space="preserve" font-family="Avenir-Book" font-size="24.0" fill="#55D6FF" transform="matrix(1.00, 0.00, -0.00, -1.00, 364.9, 711.0)">C</text><text xml:space="preserve" font-family="Avenir-Book" font-size="24.0" fill="#55D6FF" transform="matrix(1.00, 0.00, -0.00, -1.00, 385.7, 711.0)">H</text><text xml:space="preserve" font-family="Avenir-Light" font-size="26.5" fill="#636363" transform="matrix(1.00, 0.00, -0.00, -1.00, 56.0, 512.7)">•</text><text xml:space="preserve" font-family="Avenir-Light" font-size="29.4" fill="#FEFFFF" transform="matrix(1.00, 0.00, -0.00, -1.00, 86.0, 512.0)">W</text><text xml:space="preserve" font-family="Avenir-Light" font-size="29.4" fill="#FEFFFF" transform="matrix(1.00, 0.00, -0.00, -1.00, 113.2, 512.0)">e</text><text xml:space="preserve" font-family="Avenir-Light" font-size="29.4" fill="#FEFFFF" transform="matrix(1.00, 0.00, -0.00, -1.00, 129.6, 512.0)">b</text><text xml:space="preserve" font-family="Avenir-Light" font-size="29.4" fill="#FEFFFF" transform="matrix(1.00, 0.00, -0.00, -1.00, 147.5, 512.0)">-</text><text xml:space="preserve" font-family="Avenir-Light" font-size="29.4" fill="#FEFFFF" transform="matrix(1.00, 0.00, -0.00, -1.00, 157.3, 512.0)">b</text><text xml:space="preserve" font-family="Avenir-Light" font-size="29.4" fill="#FEFFFF" transform="matrix(1.00, 0.00, -0.00, -1.00, 175.3, 512.0)">a</text><text xml:space="preserve" font-family="Avenir-Light" font-size="29.4" fill="#FEFFFF" transform="matrix(1.00, 0.00, -0.00, -1.00, 190.5, 512.0)">s</text><text xml:space="preserve" font-family="Avenir-Light" font-size="29.4" fill="#FEFFFF" transform="matrix(1.00, 0.00, -0.00, -1.00, 203.1, 512.0)">e</text><text xml:space="preserve" font-family="Avenir-Light" font-size="29.4" fill="#FEFFFF" transform="matrix(1.00, 0.00, -0.00, -1.00, 219.4, 512.0)">d</text><text xml:space="preserve" font-family="Avenir-Light" font-size="29.4" fill="#FEFFFF" transform="matrix(1.00, 0.00, -0.00, -1.00, 237.4, 512.0)"> </text><text xml:space="preserve" font-family="Avenir-Light" font-size="29.4" fill="#FEFFFF" transform="matrix(1.00, 0.00, -0.00, -1.00, 245.0, 512.0)">t</text><text xml:space="preserve" font-family="Avenir-Light" font-size="29.4" fill="#FEFFFF" transform="matrix(1.00, 0.00, -0.00, -1.00, 254.8, 512.0)">o</text><text xml:space="preserve" font-family="Avenir-Light" font-size="29.4" fill="#FEFFFF" transform="matrix(1.00, 0.00, -0.00, -1.00, 272.3, 512.0)">o</text><text xml:space="preserve" font-family="Avenir-Light" font-size="29.4" fill="#FEFFFF" transform="matrix(1.00, 0.00, -0.00, -1.00, 289.7, 512.0)">l</text><text xml:space="preserve" font-family="Avenir-Light" font-size="29.4" fill="#FEFFFF" transform="matrix(1.00, 0.00, -0.00, -1.00, 296.8, 512.0)">s</text><text xml:space="preserve" font-family="Avenir-Light" font-size="29.4" fill="#FEFFFF" transform="matrix(1.00, 0.00, -0.00, -1.00, 309.3, 512.0)"> </text><text xml:space="preserve" font-family="Avenir-Light" font-size="29.4" fill="#FEFFFF" transform="matrix(1.00, 0.00, -0.00, -1.00, 317.0, 512.0)">a</text><text xml:space="preserve" font-family="Avenir-Light" font-size="29.4" fill="#FEFFFF" transform="matrix(1.00, 0.00, -0.00, -1.00, 332.2, 512.0)">r</text><text xml:space="preserve" font-family="Avenir-Light" font-size="29.4" fill="#FEFFFF" transform="matrix(1.00, 0.00, -0.00, -1.00, 341.5, 512.0)">e</text><text xml:space="preserve" font-family="Avenir-Light" font-size="29.4" fill="#FEFFFF" transform="matrix(1.00, 0.00, -0.00, -1.00, 357.8, 512.0)"> </text><text xml:space="preserve" font-family="Avenir-Light" font-size="29.4" fill="#FEFFFF" transform="matrix(1.00, 0.00, -0.00, -1.00, 86.0, 472.0)">t</text><text xml:space="preserve" font-family="Avenir-Light" font-size="29.4" fill="#FEFFFF" transform="matrix(1.00, 0.00, -0.00, -1.00, 95.8, 472.0)">a</text><text xml:space="preserve" font-family="Avenir-Light" font-size="29.4" fill="#FEFFFF" transform="matrix(1.00, 0.00, -0.00, -1.00, 111.0, 472.0)">r</text><text xml:space="preserve" font-family="Avenir-Light" font-size="29.4" fill="#FEFFFF" transform="matrix(1.00, 0.00, -0.00, -1.00, 120.3, 472.0)">g</text><text xml:space="preserve" font-family="Avenir-Light" font-size="29.4" fill="#FEFFFF" transform="matrix(1.00, 0.00, -0.00, -1.00, 138.3, 472.0)">e</text><text xml:space="preserve" font-family="Avenir-Light" font-size="29.4" fill="#FEFFFF" transform="matrix(1.00, 0.00, -0.00, -1.00, 154.6, 472.0)">t</text><text xml:space="preserve" font-family="Avenir-Light" font-size="29.4" fill="#FEFFFF" transform="matrix(1.00, 0.00, -0.00, -1.00, 164.4, 472.0)">e</text><text xml:space="preserve" font-family="Avenir-Light" font-size="29.4" fill="#FEFFFF" transform="matrix(1.00, 0.00, -0.00, -1.00, 180.8, 472.0)">d</text><text xml:space="preserve" font-family="Avenir-Light" font-size="29.4" fill="#FEFFFF" transform="matrix(1.00, 0.00, -0.00, -1.00, 198.7, 472.0)"> </text><text xml:space="preserve" font-family="Avenir-Light" font-size="29.4" fill="#FEFFFF" transform="matrix(1.00, 0.00, -0.00, -1.00, 206.4, 472.0)">t</text><text xml:space="preserve" font-family="Avenir-Light" font-size="29.4" fill="#FEFFFF" transform="matrix(1.00, 0.00, -0.00, -1.00, 216.2, 472.0)">o</text><text xml:space="preserve" font-family="Avenir-Light" font-size="29.4" fill="#FEFFFF" transform="matrix(1.00, 0.00, -0.00, -1.00, 233.6, 472.0)"> </text><text xml:space="preserve" font-family="Avenir-Light" font-size="29.4" fill="#FEFFFF" transform="matrix(1.00, 0.00, -0.00, -1.00, 241.3, 472.0)">b</text><text xml:space="preserve" font-family="Avenir-Light" font-size="29.4" fill="#FEFFFF" transform="matrix(1.00, 0.00, -0.00, -1.00, 259.2, 472.0)">u</text><text xml:space="preserve" font-family="Avenir-Light" font-size="29.4" fill="#FEFFFF" transform="matrix(1.00, 0.00, -0.00, -1.00, 275.6, 472.0)">s</text><text xml:space="preserve" font-family="Avenir-Light" font-size="29.4" fill="#FEFFFF" transform="matrix(1.00, 0.00, -0.00, -1.00, 288.1, 472.0)">i</text><text xml:space="preserve" font-family="Avenir-Light" font-size="29.4" fill="#FEFFFF" transform="matrix(1.00, 0.00, -0.00, -1.00, 295.2, 472.0)">n</text><text xml:space="preserve" font-family="Avenir-Light" font-size="29.4" fill="#FEFFFF" transform="matrix(1.00, 0.00, -0.00, -1.00, 311.5, 472.0)">e</text><text xml:space="preserve" font-family="Avenir-Light" font-size="29.4" fill="#FEFFFF" transform="matrix(1.00, 0.00, -0.00, -1.00, 327.8, 472.0)">s</text><text xml:space="preserve" font-family="Avenir-Light" font-size="29.4" fill="#FEFFFF" transform="matrix(1.00, 0.00, -0.00, -1.00, 340.4, 472.0)">s</text><text xml:space="preserve" font-family="Avenir-Light" font-size="29.4" fill="#FEFFFF" transform="matrix(1.00, 0.00, -0.00, -1.00, 352.9, 472.0)">e</text><text xml:space="preserve" font-family="Avenir-Light" font-size="29.4" fill="#FEFFFF" transform="matrix(1.00, 0.00, -0.00, -1.00, 369.2, 472.0)">s</text><text xml:space="preserve" font-family="Avenir-Light" font-size="29.4" fill="#FEFFFF" transform="matrix(1.00, 0.00, -0.00, -1.00, 381.8, 472.0)"> </text><text xml:space="preserve" font-family="Avenir-Light" font-size="29.4" fill="#FEFFFF" transform="matrix(1.00, 0.00, -0.00, -1.00, 389.4, 472.0)">a</text><text xml:space="preserve" font-family="Avenir-Light" font-size="29.4" fill="#FEFFFF" transform="matrix(1.00, 0.00, -0.00, -1.00, 404.7, 472.0)">n</text><text xml:space="preserve" font-family="Avenir-Light" font-size="29.4" fill="#FEFFFF" transform="matrix(1.00, 0.00, -0.00, -1.00, 421.0, 472.0)">d</text><text xml:space="preserve" font-family="Avenir-Light" font-size="29.4" fill="#FEFFFF" transform="matrix(1.00, 0.00, -0.00, -1.00, 439.0, 472.0)"> </text><text xml:space="preserve" font-family="Avenir-Light" font-size="29.4" fill="#FEFFFF" transform="matrix(1.00, 0.00, -0.00, -1.00, 86.0, 432.0)">e</text><text xml:space="preserve" font-family="Avenir-Light" font-size="29.4" fill="#FEFFFF" transform="matrix(1.00, 0.00, -0.00, -1.00, 102.3, 432.0)">n</text><text xml:space="preserve" font-family="Avenir-Light" font-size="29.4" fill="#FEFFFF" transform="matrix(1.00, 0.00, -0.00, -1.00, 118.7, 432.0)">g</text><text xml:space="preserve" font-family="Avenir-Light" font-size="29.4" fill="#FEFFFF" transform="matrix(1.00, 0.00, -0.00, -1.00, 136.7, 432.0)">a</text><text xml:space="preserve" font-family="Avenir-Light" font-size="29.4" fill="#FEFFFF" transform="matrix(1.00, 0.00, -0.00, -1.00, 151.9, 432.0)">g</text><text xml:space="preserve" font-family="Avenir-Light" font-size="29.4" fill="#FEFFFF" transform="matrix(1.00, 0.00, -0.00, -1.00, 169.9, 432.0)">e</text><text xml:space="preserve" font-family="Avenir-Light" font-size="29.4" fill="#FEFFFF" transform="matrix(1.00, 0.00, -0.00, -1.00, 186.2, 432.0)">m</text><text xml:space="preserve" font-family="Avenir-Light" font-size="29.4" fill="#FEFFFF" transform="matrix(1.00, 0.00, -0.00, -1.00, 211.3, 432.0)">e</text><text xml:space="preserve" font-family="Avenir-Light" font-size="29.4" fill="#FEFFFF" transform="matrix(1.00, 0.00, -0.00, -1.00, 227.6, 432.0)">n</text><text xml:space="preserve" font-family="Avenir-Light" font-size="29.4" fill="#FEFFFF" transform="matrix(1.00, 0.00, -0.00, -1.00, 244.0, 432.0)">t</text><text xml:space="preserve" font-family="Avenir-Light" font-size="29.4" fill="#FEFFFF" transform="matrix(1.00, 0.00, -0.00, -1.00, 253.8, 432.0)"> </text><text xml:space="preserve" font-family="Avenir-Light" font-size="29.4" fill="#FEFFFF" transform="matrix(1.00, 0.00, -0.00, -1.00, 261.4, 432.0)">a</text><text xml:space="preserve" font-family="Avenir-Light" font-size="29.4" fill="#FEFFFF" transform="matrix(1.00, 0.00, -0.00, -1.00, 276.7, 432.0)">n</text><text xml:space="preserve" font-family="Avenir-Light" font-size="29.4" fill="#FEFFFF" transform="matrix(1.00, 0.00, -0.00, -1.00, 293.0, 432.0)">a</text><text xml:space="preserve" font-family="Avenir-Light" font-size="29.4" fill="#FEFFFF" transform="matrix(1.00, 0.00, -0.00, -1.00, 308.3, 432.0)">l</text><text xml:space="preserve" font-family="Avenir-Light" font-size="29.4" fill="#FEFFFF" transform="matrix(1.00, 0.00, -0.00, -1.00, 315.3, 432.0)">y</text><text xml:space="preserve" font-family="Avenir-Light" font-size="29.4" fill="#FEFFFF" transform="matrix(1.00, 0.00, -0.00, -1.00, 328.9, 432.0)">t</text><text xml:space="preserve" font-family="Avenir-Light" font-size="29.4" fill="#FEFFFF" transform="matrix(1.00, 0.00, -0.00, -1.00, 338.8, 432.0)">i</text><text xml:space="preserve" font-family="Avenir-Light" font-size="29.4" fill="#FEFFFF" transform="matrix(1.00, 0.00, -0.00, -1.00, 345.8, 432.0)">c</text><text xml:space="preserve" font-family="Avenir-Light" font-size="29.4" fill="#FEFFFF" transform="matrix(1.00, 0.00, -0.00, -1.00, 359.9, 432.0)">s</text><text xml:space="preserve" font-family="Avenir-Light" font-size="29.4" fill="#FEFFFF" transform="matrix(1.00, 0.00, -0.00, -1.00, 372.5, 432.0)"> </text><text xml:space="preserve" font-family="Avenir-Light" font-size="26.5" fill="#636363" transform="matrix(1.00, 0.00, -0.00, -1.00, 56.0, 361.3)">•</text><text xml:space="preserve" font-family="Avenir-Light" font-size="29.4" fill="#FEFFFF" transform="matrix(1.00, 0.00, -0.00, -1.00, 86.0, 360.0)">M</text><text xml:space="preserve" font-family="Avenir-Light" font-size="29.4" fill="#FEFFFF" transform="matrix(1.00, 0.00, -0.00, -1.00, 112.1, 360.0)">o</text><text xml:space="preserve" font-family="Avenir-Light" font-size="29.4" fill="#FEFFFF" transform="matrix(1.00, 0.00, -0.00, -1.00, 129.6, 360.0)">b</text><text xml:space="preserve" font-family="Avenir-Light" font-size="29.4" fill="#FEFFFF" transform="matrix(1.00, 0.00, -0.00, -1.00, 147.6, 360.0)">i</text><text xml:space="preserve" font-family="Avenir-Light" font-size="29.4" fill="#FEFFFF" transform="matrix(1.00, 0.00, -0.00, -1.00, 154.6, 360.0)">l</text><text xml:space="preserve" font-family="Avenir-Light" font-size="29.4" fill="#FEFFFF" transform="matrix(1.00, 0.00, -0.00, -1.00, 161.7, 360.0)">e</text><text xml:space="preserve" font-family="Avenir-Light" font-size="29.4" fill="#FEFFFF" transform="matrix(1.00, 0.00, -0.00, -1.00, 178.0, 360.0)">-</text><text xml:space="preserve" font-family="Avenir-Light" font-size="29.4" fill="#FEFFFF" transform="matrix(1.00, 0.00, -0.00, -1.00, 187.8, 360.0)">b</text><text xml:space="preserve" font-family="Avenir-Light" font-size="29.4" fill="#FEFFFF" transform="matrix(1.00, 0.00, -0.00, -1.00, 205.8, 360.0)">a</text><text xml:space="preserve" font-family="Avenir-Light" font-size="29.4" fill="#FEFFFF" transform="matrix(1.00, 0.00, -0.00, -1.00, 221.0, 360.0)">s</text><text xml:space="preserve" font-family="Avenir-Light" font-size="29.4" fill="#FEFFFF" transform="matrix(1.00, 0.00, -0.00, -1.00, 233.6, 360.0)">e</text><text xml:space="preserve" font-family="Avenir-Light" font-size="29.4" fill="#FEFFFF" transform="matrix(1.00, 0.00, -0.00, -1.00, 249.9, 360.0)">d</text><text xml:space="preserve" font-family="Avenir-Light" font-size="29.4" fill="#FEFFFF" transform="matrix(1.00, 0.00, -0.00, -1.00, 267.9, 360.0)"> </text><text xml:space="preserve" font-family="Avenir-Light" font-size="29.4" fill="#FEFFFF" transform="matrix(1.00, 0.00, -0.00, -1.00, 275.5, 360.0)">t</text><text xml:space="preserve" font-family="Avenir-Light" font-size="29.4" fill="#FEFFFF" transform="matrix(1.00, 0.00, -0.00, -1.00, 285.3, 360.0)">o</text><text xml:space="preserve" font-family="Avenir-Light" font-size="29.4" fill="#FEFFFF" transform="matrix(1.00, 0.00, -0.00, -1.00, 302.8, 360.0)">o</text><text xml:space="preserve" font-family="Avenir-Light" font-size="29.4" fill="#FEFFFF" transform="matrix(1.00, 0.00, -0.00, -1.00, 320.2, 360.0)">l</text><text xml:space="preserve" font-family="Avenir-Light" font-size="29.4" fill="#FEFFFF" transform="matrix(1.00, 0.00, -0.00, -1.00, 327.3, 360.0)">s</text><text xml:space="preserve" font-family="Avenir-Light" font-size="29.4" fill="#FEFFFF" transform="matrix(1.00, 0.00, -0.00, -1.00, 339.8, 360.0)"> </text><text xml:space="preserve" font-family="Avenir-Light" font-size="29.4" fill="#FEFFFF" transform="matrix(1.00, 0.00, -0.00, -1.00, 347.5, 360.0)">a</text><text xml:space="preserve" font-family="Avenir-Light" font-size="29.4" fill="#FEFFFF" transform="matrix(1.00, 0.00, -0.00, -1.00, 362.7, 360.0)">r</text><text xml:space="preserve" font-family="Avenir-Light" font-size="29.4" fill="#FEFFFF" transform="matrix(1.00, 0.00, -0.00, -1.00, 372.0, 360.0)">e</text><text xml:space="preserve" font-family="Avenir-Light" font-size="29.4" fill="#FEFFFF" transform="matrix(1.00, 0.00, -0.00, -1.00, 388.3, 360.0)"> </text><text xml:space="preserve" font-family="Avenir-Light" font-size="29.4" fill="#FEFFFF" transform="matrix(1.00, 0.00, -0.00, -1.00, 86.0, 320.0)">e</text><text xml:space="preserve" font-family="Avenir-Light" font-size="29.4" fill="#FEFFFF" transform="matrix(1.00, 0.00, -0.00, -1.00, 102.3, 320.0)">i</text><text xml:space="preserve" font-family="Avenir-Light" font-size="29.4" fill="#FEFFFF" transform="matrix(1.00, 0.00, -0.00, -1.00, 109.4, 320.0)">t</text><text xml:space="preserve" font-family="Avenir-Light" font-size="29.4" fill="#FEFFFF" transform="matrix(1.00, 0.00, -0.00, -1.00, 119.2, 320.0)">h</text><text xml:space="preserve" font-family="Avenir-Light" font-size="29.4" fill="#FEFFFF" transform="matrix(1.00, 0.00, -0.00, -1.00, 135.6, 320.0)">e</text><text xml:space="preserve" font-family="Avenir-Light" font-size="29.4" fill="#FEFFFF" transform="matrix(1.00, 0.00, -0.00, -1.00, 151.9, 320.0)">r</text><text xml:space="preserve" font-family="Avenir-Light" font-size="29.4" fill="#FEFFFF" transform="matrix(1.00, 0.00, -0.00, -1.00, 161.7, 320.0)"> </text><text xml:space="preserve" font-family="Avenir-Light" font-size="29.4" fill="#FEFFFF" transform="matrix(1.00, 0.00, -0.00, -1.00, 169.3, 320.0)">a</text><text xml:space="preserve" font-family="Avenir-Light" font-size="29.4" fill="#FEFFFF" transform="matrix(1.00, 0.00, -0.00, -1.00, 184.6, 320.0)">b</text><text xml:space="preserve" font-family="Avenir-Light" font-size="29.4" fill="#FEFFFF" transform="matrix(1.00, 0.00, -0.00, -1.00, 202.6, 320.0)">o</text><text xml:space="preserve" font-family="Avenir-Light" font-size="29.4" fill="#FEFFFF" transform="matrix(1.00, 0.00, -0.00, -1.00, 220.0, 320.0)">u</text><text xml:space="preserve" font-family="Avenir-Light" font-size="29.4" fill="#FEFFFF" transform="matrix(1.00, 0.00, -0.00, -1.00, 236.4, 320.0)">t</text><text xml:space="preserve" font-family="Avenir-Light" font-size="29.4" fill="#FEFFFF" transform="matrix(1.00, 0.00, -0.00, -1.00, 246.2, 320.0)"> </text><text xml:space="preserve" font-family="Avenir-Light" font-size="29.4" fill="#FEFFFF" transform="matrix(1.00, 0.00, -0.00, -1.00, 253.8, 320.0)">g</text><text xml:space="preserve" font-family="Avenir-Light" font-size="29.4" fill="#FEFFFF" transform="matrix(1.00, 0.00, -0.00, -1.00, 271.8, 320.0)">e</text><text xml:space="preserve" font-family="Avenir-Light" font-size="29.4" fill="#FEFFFF" transform="matrix(1.00, 0.00, -0.00, -1.00, 288.1, 320.0)">t</text><text xml:space="preserve" font-family="Avenir-Light" font-size="29.4" fill="#FEFFFF" transform="matrix(1.00, 0.00, -0.00, -1.00, 297.9, 320.0)">t</text><text xml:space="preserve" font-family="Avenir-Light" font-size="29.4" fill="#FEFFFF" transform="matrix(1.00, 0.00, -0.00, -1.00, 307.8, 320.0)">i</text><text xml:space="preserve" font-family="Avenir-Light" font-size="29.4" fill="#FEFFFF" transform="matrix(1.00, 0.00, -0.00, -1.00, 314.8, 320.0)">n</text><text xml:space="preserve" font-family="Avenir-Light" font-size="29.4" fill="#FEFFFF" transform="matrix(1.00, 0.00, -0.00, -1.00, 331.2, 320.0)">g</text><text xml:space="preserve" font-family="Avenir-Light" font-size="29.4" fill="#FEFFFF" transform="matrix(1.00, 0.00, -0.00, -1.00, 349.1, 320.0)"> </text><text xml:space="preserve" font-family="Avenir-Light" font-size="29.4" fill="#FEFFFF" transform="matrix(1.00, 0.00, -0.00, -1.00, 356.8, 320.0)">m</text><text xml:space="preserve" font-family="Avenir-Light" font-size="29.4" fill="#FEFFFF" transform="matrix(1.00, 0.00, -0.00, -1.00, 381.8, 320.0)">o</text><text xml:space="preserve" font-family="Avenir-Light" font-size="29.4" fill="#FEFFFF" transform="matrix(1.00, 0.00, -0.00, -1.00, 399.3, 320.0)">r</text><text xml:space="preserve" font-family="Avenir-Light" font-size="29.4" fill="#FEFFFF" transform="matrix(1.00, 0.00, -0.00, -1.00, 408.5, 320.0)">e</text><text xml:space="preserve" font-family="Avenir-Light" font-size="29.4" fill="#FEFFFF" transform="matrix(1.00, 0.00, -0.00, -1.00, 424.9, 320.0)"> </text><text xml:space="preserve" font-family="Avenir-Light" font-size="29.4" fill="#FEFFFF" transform="matrix(1.00, 0.00, -0.00, -1.00, 86.0, 280.0)">I</text><text xml:space="preserve" font-family="Avenir-Light" font-size="29.4" fill="#FEFFFF" transform="matrix(1.00, 0.00, -0.00, -1.00, 93.6, 280.0)">n</text><text xml:space="preserve" font-family="Avenir-Light" font-size="29.4" fill="#FEFFFF" transform="matrix(1.00, 0.00, -0.00, -1.00, 110.0, 280.0)">s</text><text xml:space="preserve" font-family="Avenir-Light" font-size="29.4" fill="#FEFFFF" transform="matrix(1.00, 0.00, -0.00, -1.00, 122.5, 280.0)">t</text><text xml:space="preserve" font-family="Avenir-Light" font-size="29.4" fill="#FEFFFF" transform="matrix(1.00, 0.00, -0.00, -1.00, 132.3, 280.0)">a</text><text xml:space="preserve" font-family="Avenir-Light" font-size="29.4" fill="#FEFFFF" transform="matrix(1.00, 0.00, -0.00, -1.00, 147.6, 280.0)">g</text><text xml:space="preserve" font-family="Avenir-Light" font-size="29.4" fill="#FEFFFF" transform="matrix(1.00, 0.00, -0.00, -1.00, 165.5, 280.0)">r</text><text xml:space="preserve" font-family="Avenir-Light" font-size="29.4" fill="#FEFFFF" transform="matrix(1.00, 0.00, -0.00, -1.00, 175.3, 280.0)">a</text><text xml:space="preserve" font-family="Avenir-Light" font-size="29.4" fill="#FEFFFF" transform="matrix(1.00, 0.00, -0.00, -1.00, 190.6, 280.0)">m</text><text xml:space="preserve" font-family="Avenir-Light" font-size="29.4" fill="#FEFFFF" transform="matrix(1.00, 0.00, -0.00, -1.00, 215.6, 280.0)"> </text><text xml:space="preserve" font-family="Avenir-Light" font-size="29.4" fill="#FEFFFF" transform="matrix(1.00, 0.00, -0.00, -1.00, 223.3, 280.0)">f</text><text xml:space="preserve" font-family="Avenir-Light" font-size="29.4" fill="#FEFFFF" transform="matrix(1.00, 0.00, -0.00, -1.00, 232.0, 280.0)">o</text><text xml:space="preserve" font-family="Avenir-Light" font-size="29.4" fill="#FEFFFF" transform="matrix(1.00, 0.00, -0.00, -1.00, 249.4, 280.0)">l</text><text xml:space="preserve" font-family="Avenir-Light" font-size="29.4" fill="#FEFFFF" transform="matrix(1.00, 0.00, -0.00, -1.00, 256.5, 280.0)">l</text><text xml:space="preserve" font-family="Avenir-Light" font-size="29.4" fill="#FEFFFF" transform="matrix(1.00, 0.00, -0.00, -1.00, 263.6, 280.0)">o</text><text xml:space="preserve" font-family="Avenir-Light" font-size="29.4" fill="#FEFFFF" transform="matrix(1.00, 0.00, -0.00, -1.00, 281.0, 280.0)">w</text><text xml:space="preserve" font-family="Avenir-Light" font-size="29.4" fill="#FEFFFF" transform="matrix(1.00, 0.00, -0.00, -1.00, 301.7, 280.0)">e</text><text xml:space="preserve" font-family="Avenir-Light" font-size="29.4" fill="#FEFFFF" transform="matrix(1.00, 0.00, -0.00, -1.00, 318.1, 280.0)">r</text><text xml:space="preserve" font-family="Avenir-Light" font-size="29.4" fill="#FEFFFF" transform="matrix(1.00, 0.00, -0.00, -1.00, 327.9, 280.0)">s</text><text xml:space="preserve" font-family="Avenir-Light" font-size="29.4" fill="#FEFFFF" transform="matrix(1.00, 0.00, -0.00, -1.00, 340.4, 280.0)">,</text><text xml:space="preserve" font-family="Avenir-Light" font-size="29.4" fill="#FEFFFF" transform="matrix(1.00, 0.00, -0.00, -1.00, 348.0, 280.0)"> </text><text xml:space="preserve" font-family="Avenir-Light" font-size="29.4" fill="#FEFFFF" transform="matrix(1.00, 0.00, -0.00, -1.00, 355.7, 280.0)">o</text><text xml:space="preserve" font-family="Avenir-Light" font-size="29.4" fill="#FEFFFF" transform="matrix(1.00, 0.00, -0.00, -1.00, 373.1, 280.0)">r</text><text xml:space="preserve" font-family="Avenir-Light" font-size="29.4" fill="#FEFFFF" transform="matrix(1.00, 0.00, -0.00, -1.00, 382.9, 280.0)"> </text><text xml:space="preserve" font-family="Avenir-Light" font-size="29.4" fill="#FEFFFF" transform="matrix(1.00, 0.00, -0.00, -1.00, 86.0, 240.0)">s</text><text xml:space="preserve" font-family="Avenir-Light" font-size="29.4" fill="#FEFFFF" transform="matrix(1.00, 0.00, -0.00, -1.00, 98.5, 240.0)">h</text><text xml:space="preserve" font-family="Avenir-Light" font-size="29.4" fill="#FEFFFF" transform="matrix(1.00, 0.00, -0.00, -1.00, 114.9, 240.0)">o</text><text xml:space="preserve" font-family="Avenir-Light" font-size="29.4" fill="#FEFFFF" transform="matrix(1.00, 0.00, -0.00, -1.00, 132.3, 240.0)">w</text><text xml:space="preserve" font-family="Avenir-Light" font-size="29.4" fill="#FEFFFF" transform="matrix(1.00, 0.00, -0.00, -1.00, 153.0, 240.0)">i</text><text xml:space="preserve" font-family="Avenir-Light" font-size="29.4" fill="#FEFFFF" transform="matrix(1.00, 0.00, -0.00, -1.00, 160.1, 240.0)">n</text><text xml:space="preserve" font-family="Avenir-Light" font-size="29.4" fill="#FEFFFF" transform="matrix(1.00, 0.00, -0.00, -1.00, 176.4, 240.0)">g</text><text xml:space="preserve" font-family="Avenir-Light" font-size="29.4" fill="#FEFFFF" transform="matrix(1.00, 0.00, -0.00, -1.00, 194.4, 240.0)"> </text><text xml:space="preserve" font-family="Avenir-Light" font-size="29.4" fill="#FEFFFF" transform="matrix(1.00, 0.00, -0.00, -1.00, 202.0, 240.0)">y</text><text xml:space="preserve" font-family="Avenir-Light" font-size="29.4" fill="#FEFFFF" transform="matrix(1.00, 0.00, -0.00, -1.00, 215.7, 240.0)">o</text><text xml:space="preserve" font-family="Avenir-Light" font-size="29.4" fill="#FEFFFF" transform="matrix(1.00, 0.00, -0.00, -1.00, 233.1, 240.0)">u</text><text xml:space="preserve" font-family="Avenir-Light" font-size="29.4" fill="#FEFFFF" transform="matrix(1.00, 0.00, -0.00, -1.00, 249.5, 240.0)"> </text><text xml:space="preserve" font-family="Avenir-Light" font-size="29.4" fill="#FEFFFF" transform="matrix(1.00, 0.00, -0.00, -1.00, 257.1, 240.0)">w</text><text xml:space="preserve" font-family="Avenir-Light" font-size="29.4" fill="#FEFFFF" transform="matrix(1.00, 0.00, -0.00, -1.00, 277.8, 240.0)">h</text><text xml:space="preserve" font-family="Avenir-Light" font-size="29.4" fill="#FEFFFF" transform="matrix(1.00, 0.00, -0.00, -1.00, 294.2, 240.0)">o</text><text xml:space="preserve" font-family="Avenir-Light" font-size="29.4" fill="#FEFFFF" transform="matrix(1.00, 0.00, -0.00, -1.00, 311.6, 240.0)"> </text><text xml:space="preserve" font-family="Avenir-Light" font-size="29.4" fill="#FEFFFF" transform="matrix(1.00, 0.00, -0.00, -1.00, 319.3, 240.0)">i</text><text xml:space="preserve" font-family="Avenir-Light" font-size="29.4" fill="#FEFFFF" transform="matrix(1.00, 0.00, -0.00, -1.00, 326.3, 240.0)">s</text><text xml:space="preserve" font-family="Avenir-Light" font-size="29.4" fill="#FEFFFF" transform="matrix(1.00, 0.00, -0.00, -1.00, 338.8, 240.0)"> </text><text xml:space="preserve" font-family="Avenir-Light" font-size="29.4" fill="#FEFFFF" transform="matrix(1.00, 0.00, -0.00, -1.00, 346.5, 240.0)">l</text><text xml:space="preserve" font-family="Avenir-Light" font-size="29.4" fill="#FEFFFF" transform="matrix(1.00, 0.00, -0.00, -1.00, 353.5, 240.0)">o</text><text xml:space="preserve" font-family="Avenir-Light" font-size="29.4" fill="#FEFFFF" transform="matrix(1.00, 0.00, -0.00, -1.00, 371.0, 240.0)">o</text><text xml:space="preserve" font-family="Avenir-Light" font-size="29.4" fill="#FEFFFF" transform="matrix(1.00, 0.00, -0.00, -1.00, 388.5, 240.0)">k</text><text xml:space="preserve" font-family="Avenir-Light" font-size="29.4" fill="#FEFFFF" transform="matrix(1.00, 0.00, -0.00, -1.00, 402.6, 240.0)">i</text><text xml:space="preserve" font-family="Avenir-Light" font-size="29.4" fill="#FEFFFF" transform="matrix(1.00, 0.00, -0.00, -1.00, 409.7, 240.0)">n</text><text xml:space="preserve" font-family="Avenir-Light" font-size="29.4" fill="#FEFFFF" transform="matrix(1.00, 0.00, -0.00, -1.00, 426.0, 240.0)">g</text><text xml:space="preserve" font-family="Avenir-Light" font-size="29.4" fill="#FEFFFF" transform="matrix(1.00, 0.00, -0.00, -1.00, 444.0, 240.0)"> </text><text xml:space="preserve" font-family="Avenir-Light" font-size="29.4" fill="#FEFFFF" transform="matrix(1.00, 0.00, -0.00, -1.00, 86.0, 200.0)">a</text><text xml:space="preserve" font-family="Avenir-Light" font-size="29.4" fill="#FEFFFF" transform="matrix(1.00, 0.00, -0.00, -1.00, 101.3, 200.0)">t</text><text xml:space="preserve" font-family="Avenir-Light" font-size="29.4" fill="#FEFFFF" transform="matrix(1.00, 0.00, -0.00, -1.00, 111.0, 200.0)"> </text><text xml:space="preserve" font-family="Avenir-Light" font-size="29.4" fill="#FEFFFF" transform="matrix(1.00, 0.00, -0.00, -1.00, 118.7, 200.0)">y</text><text xml:space="preserve" font-family="Avenir-Light" font-size="29.4" fill="#FEFFFF" transform="matrix(1.00, 0.00, -0.00, -1.00, 132.3, 200.0)">o</text><text xml:space="preserve" font-family="Avenir-Light" font-size="29.4" fill="#FEFFFF" transform="matrix(1.00, 0.00, -0.00, -1.00, 149.8, 200.0)">u</text><text xml:space="preserve" font-family="Avenir-Light" font-size="29.4" fill="#FEFFFF" transform="matrix(1.00, 0.00, -0.00, -1.00, 166.1, 200.0)">r</text><text xml:space="preserve" font-family="Avenir-Light" font-size="29.4" fill="#FEFFFF" transform="matrix(1.00, 0.00, -0.00, -1.00, 175.9, 200.0)"> </text><text xml:space="preserve" font-family="Avenir-Light" font-size="29.4" fill="#FEFFFF" transform="matrix(1.00, 0.00, -0.00, -1.00, 183.5, 200.0)">o</text><text xml:space="preserve" font-family="Avenir-Light" font-size="29.4" fill="#FEFFFF" transform="matrix(1.00, 0.00, -0.00, -1.00, 201.0, 200.0)">w</text><text xml:space="preserve" font-family="Avenir-Light" font-size="29.4" fill="#FEFFFF" transform="matrix(1.00, 0.00, -0.00, -1.00, 221.7, 200.0)">n</text><text xml:space="preserve" font-family="Avenir-Light" font-size="29.4" fill="#FEFFFF" transform="matrix(1.00, 0.00, -0.00, -1.00, 238.1, 200.0)"> </text><text xml:space="preserve" font-family="Avenir-Light" font-size="29.4" fill="#FEFFFF" transform="matrix(1.00, 0.00, -0.00, -1.00, 245.7, 200.0)">c</text><text xml:space="preserve" font-family="Avenir-Light" font-size="29.4" fill="#FEFFFF" transform="matrix(1.00, 0.00, -0.00, -1.00, 259.8, 200.0)">o</text><text xml:space="preserve" font-family="Avenir-Light" font-size="29.4" fill="#FEFFFF" transform="matrix(1.00, 0.00, -0.00, -1.00, 277.3, 200.0)">n</text><text xml:space="preserve" font-family="Avenir-Light" font-size="29.4" fill="#FEFFFF" transform="matrix(1.00, 0.00, -0.00, -1.00, 293.7, 200.0)">t</text><text xml:space="preserve" font-family="Avenir-Light" font-size="29.4" fill="#FEFFFF" transform="matrix(1.00, 0.00, -0.00, -1.00, 303.4, 200.0)">e</text><text xml:space="preserve" font-family="Avenir-Light" font-size="29.4" fill="#FEFFFF" transform="matrix(1.00, 0.00, -0.00, -1.00, 319.8, 200.0)">n</text><text xml:space="preserve" font-family="Avenir-Light" font-size="29.4" fill="#FEFFFF" transform="matrix(1.00, 0.00, -0.00, -1.00, 336.1, 200.0)">t</text><text xml:space="preserve" font-family="Avenir-Light" font-size="29.4" fill="#FEFFFF" transform="matrix(1.00, 0.00, -0.00, -1.00, 345.9, 200.0)"> </text><text xml:space="preserve" font-family="Avenir-Heavy" font-weight="bold" font-size="26.5" fill="#636363" transform="matrix(1.00, 0.00, -0.00, -1.00, 56.0, 130.0)">•</text><text xml:space="preserve" font-family="Avenir-Heavy" font-weight="bold" font-size="29.4" fill="#FEFFFF" transform="matrix(1.00, 0.00, -0.00, -1.00, 86.0, 129.0)">F</text><text xml:space="preserve" font-family="Avenir-Heavy" font-weight="bold" font-size="29.4" fill="#FEFFFF" transform="matrix(1.00, 0.00, -0.00, -1.00, 102.9, 129.0)">r</text><text xml:space="preserve" font-family="Avenir-Heavy" font-weight="bold" font-size="29.4" fill="#FEFFFF" transform="matrix(1.00, 0.00, -0.00, -1.00, 114.3, 129.0)">i</text><text xml:space="preserve" font-family="Avenir-Heavy" font-weight="bold" font-size="29.4" fill="#FEFFFF" transform="matrix(1.00, 0.00, -0.00, -1.00, 122.0, 129.0)">e</text><text xml:space="preserve" font-family="Avenir-Heavy" font-weight="bold" font-size="29.4" fill="#FEFFFF" transform="matrix(1.00, 0.00, -0.00, -1.00, 138.8, 129.0)">n</text><text xml:space="preserve" font-family="Avenir-Heavy" font-weight="bold" font-size="29.4" fill="#FEFFFF" transform="matrix(1.00, 0.00, -0.00, -1.00, 155.7, 129.0)">d</text><text xml:space="preserve" font-family="Avenir-Heavy" font-weight="bold" font-size="29.4" fill="#FEFFFF" transform="matrix(1.00, 0.00, -0.00, -1.00, 174.3, 129.0)">l</text><text xml:space="preserve" font-family="Avenir-Heavy" font-weight="bold" font-size="29.4" fill="#FEFFFF" transform="matrix(1.00, 0.00, -0.00, -1.00, 181.9, 129.0)">y</text><text xml:space="preserve" font-family="Avenir-Light" font-size="29.4" fill="#FEFFFF" transform="matrix(1.00, 0.00, -0.00, -1.00, 197.2, 129.0)">:</text><text xml:space="preserve" font-family="Avenir-Light" font-size="29.4" fill="#FEFFFF" transform="matrix(1.00, 0.00, -0.00, -1.00, 204.8, 129.0)"> </text><text xml:space="preserve" font-family="Avenir-Light" font-size="29.4" fill="#FEFFFF" transform="matrix(1.00, 0.00, -0.00, -1.00, 212.4, 129.0)">c</text><text xml:space="preserve" font-family="Avenir-Light" font-size="29.4" fill="#FEFFFF" transform="matrix(1.00, 0.00, -0.00, -1.00, 226.6, 129.0)">l</text><text xml:space="preserve" font-family="Avenir-Light" font-size="29.4" fill="#FEFFFF" transform="matrix(1.00, 0.00, -0.00, -1.00, 233.6, 129.0)">o</text><text xml:space="preserve" font-family="Avenir-Light" font-size="29.4" fill="#FEFFFF" transform="matrix(1.00, 0.00, -0.00, -1.00, 251.1, 129.0)">s</text><text xml:space="preserve" font-family="Avenir-Light" font-size="29.4" fill="#FEFFFF" transform="matrix(1.00, 0.00, -0.00, -1.00, 263.6, 129.0)">e</text><text xml:space="preserve" font-family="Avenir-Light" font-size="29.4" fill="#FEFFFF" transform="matrix(1.00, 0.00, -0.00, -1.00, 280.0, 129.0)">s</text><text xml:space="preserve" font-family="Avenir-Light" font-size="29.4" fill="#FEFFFF" transform="matrix(1.00, 0.00, -0.00, -1.00, 292.5, 129.0)">t</text><text xml:space="preserve" font-family="Avenir-Light" font-size="29.4" fill="#FEFFFF" transform="matrix(1.00, 0.00, -0.00, -1.00, 302.3, 129.0)"> </text><text xml:space="preserve" font-family="Avenir-Light" font-size="29.4" fill="#FEFFFF" transform="matrix(1.00, 0.00, -0.00, -1.00, 309.9, 129.0)">t</text><text xml:space="preserve" font-family="Avenir-Light" font-size="29.4" fill="#FEFFFF" transform="matrix(1.00, 0.00, -0.00, -1.00, 319.7, 129.0)">o</text><text xml:space="preserve" font-family="Avenir-Light" font-size="29.4" fill="#FEFFFF" transform="matrix(1.00, 0.00, -0.00, -1.00, 337.2, 129.0)"> </text><text xml:space="preserve" font-family="Avenir-Light" font-size="29.4" fill="#FEFFFF" transform="matrix(1.00, 0.00, -0.00, -1.00, 344.8, 129.0)">a</text><text xml:space="preserve" font-family="Avenir-Light" font-size="29.4" fill="#FEFFFF" transform="matrix(1.00, 0.00, -0.00, -1.00, 360.1, 129.0)"> </text><text xml:space="preserve" font-family="Avenir-Light" font-size="29.4" fill="#FEFFFF" transform="matrix(1.00, 0.00, -0.00, -1.00, 86.0, 89.0)">p</text><text xml:space="preserve" font-family="Avenir-Light" font-size="29.4" fill="#FEFFFF" transform="matrix(1.00, 0.00, -0.00, -1.00, 104.0, 89.0)">o</text><text xml:space="preserve" font-family="Avenir-Light" font-size="29.4" fill="#FEFFFF" transform="matrix(1.00, 0.00, -0.00, -1.00, 121.4, 89.0)">t</text><text xml:space="preserve" font-family="Avenir-Light" font-size="29.4" fill="#FEFFFF" transform="matrix(1.00, 0.00, -0.00, -1.00, 131.2, 89.0)">e</text><text xml:space="preserve" font-family="Avenir-Light" font-size="29.4" fill="#FEFFFF" transform="matrix(1.00, 0.00, -0.00, -1.00, 147.6, 89.0)">n</text><text xml:space="preserve" font-family="Avenir-Light" font-size="29.4" fill="#FEFFFF" transform="matrix(1.00, 0.00, -0.00, -1.00, 163.9, 89.0)">t</text><text xml:space="preserve" font-family="Avenir-Light" font-size="29.4" fill="#FEFFFF" transform="matrix(1.00, 0.00, -0.00, -1.00, 173.7, 89.0)">i</text><text xml:space="preserve" font-family="Avenir-Light" font-size="29.4" fill="#FEFFFF" transform="matrix(1.00, 0.00, -0.00, -1.00, 180.8, 89.0)">a</text><text xml:space="preserve" font-family="Avenir-Light" font-size="29.4" fill="#FEFFFF" transform="matrix(1.00, 0.00, -0.00, -1.00, 196.0, 89.0)">l</text><text xml:space="preserve" font-family="Avenir-Light" font-size="29.4" fill="#FEFFFF" transform="matrix(1.00, 0.00, -0.00, -1.00, 203.1, 89.0)"> </text><text xml:space="preserve" font-family="Avenir-Light" font-size="29.4" fill="#FEFFFF" transform="matrix(1.00, 0.00, -0.00, -1.00, 210.7, 89.0)">s</text><text xml:space="preserve" font-family="Avenir-Light" font-size="29.4" fill="#FEFFFF" transform="matrix(1.00, 0.00, -0.00, -1.00, 223.3, 89.0)">o</text><text xml:space="preserve" font-family="Avenir-Light" font-size="29.4" fill="#FEFFFF" transform="matrix(1.00, 0.00, -0.00, -1.00, 240.7, 89.0)">l</text><text xml:space="preserve" font-family="Avenir-Light" font-size="29.4" fill="#FEFFFF" transform="matrix(1.00, 0.00, -0.00, -1.00, 247.8, 89.0)">u</text><text xml:space="preserve" font-family="Avenir-Light" font-size="29.4" fill="#FEFFFF" transform="matrix(1.00, 0.00, -0.00, -1.00, 264.1, 89.0)">t</text><text xml:space="preserve" font-family="Avenir-Light" font-size="29.4" fill="#FEFFFF" transform="matrix(1.00, 0.00, -0.00, -1.00, 274.0, 89.0)">i</text><text xml:space="preserve" font-family="Avenir-Light" font-size="29.4" fill="#FEFFFF" transform="matrix(1.00, 0.00, -0.00, -1.00, 281.0, 89.0)">o</text><text xml:space="preserve" font-family="Avenir-Light" font-size="29.4" fill="#FEFFFF" transform="matrix(1.00, 0.00, -0.00, -1.00, 298.5, 89.0)">n</text><text xml:space="preserve" font-family="Avenir-Light" font-size="29.4" fill="#FEFFFF" transform="matrix(1.00, 0.00, -0.00, -1.00, 314.8, 89.0)"> </text><image xlink:href="../../1D7E0FFB-25F8-4688-9C42-57A07FEC4D66/assets/6C208A9A92EE0CBD1F3EA0C7B19B2E01.png" width="152.00" height="152.00" transform="matrix(1.00, 0.00, -0.00, -1.00, 513.0, 720.0)"></image><image xlink:href="../../1D7E0FFB-25F8-4688-9C42-57A07FEC4D66/assets/5F3ED9A8D1ECD4E684A751D7835CA448.png" width="70.00" height="70.00" transform="matrix(1.00, 0.00, -0.00, -1.00, 798.0, 385.0)"></image><image xlink:href="../../1D7E0FFB-25F8-4688-9C42-57A07FEC4D66/assets/3C1A985E12915F8A38DF7C0C06FCB555.png" width="152.00" height="152.00" transform="matrix(1.00, 0.00, -0.00, -1.00, 752.0, 605.0)"></image><image xlink:href="../../1D7E0FFB-25F8-4688-9C42-57A07FEC4D66/assets/20AAE1DA7212CCA8162486853A2F21A9.png" width="112.00" height="112.00" transform="matrix(0.99, 0.00, -0.00, -0.99, 533.0, 609.0)"></image><image xlink:href="../../1D7E0FFB-25F8-4688-9C42-57A07FEC4D66/assets/D35405A786AAC5AA3521FB30C9819741.png" width="263.00" height="42.00" transform="matrix(1.00, 0.00, -0.00, -1.00, 697.0, 686.0)"></image><image xlink:href="../../1D7E0FFB-25F8-4688-9C42-57A07FEC4D66/assets/CE79EC033AC0BB8CEA14EE241F49E92C.png" width="313.00" height="89.00" transform="matrix(1.00, 0.00, -0.00, -1.00, 672.0, 639.0)"></image><image xlink:href="../../1D7E0FFB-25F8-4688-9C42-57A07FEC4D66/assets/D2DEE2C5CF0A6968DB8178CF58F3A94D.png" width="71.00" height="70.00" transform="matrix(0.99, 0.00, -0.00, -1.00, 883.0, 385.0)"></image><g><clipPath id="clip-110"><path d="M 749.4 100.7 L 994.5 100.7 L 994.5 159.5 L 749.4 159.5 Z M 749.4 100.7 "></path></clipPath><g clip-path="url(#clip-110)"><image xlink:href="../../1D7E0FFB-25F8-4688-9C42-57A07FEC4D66/assets/59CDD69962539161BA28B388B30A4DB0.jpeg" width="246.00" height="59.00" transform="matrix(1.00, 0.00, -0.00, -0.98, 749.0, 159.0)"></image></g></g><g><clipPath id="clip-111"><path d="M 493.1 378.0 L 738.1 378.0 L 738.1 436.8 L 493.1 436.8 Z M 493.1 378.0 "></path></clipPath><g clip-path="url(#clip-111)"><image xlink:href="../../1D7E0FFB-25F8-4688-9C42-57A07FEC4D66/assets/295699D7AC7B4551F4DD38397851FD18.jpeg" width="246.00" height="59.00" transform="matrix(1.00, 0.00, -0.00, -1.00, 493.0, 437.0)"></image></g></g><g><clipPath id="clip-112"><path d="M 493.1 308.0 L 738.1 308.0 L 738.1 367.7 L 493.1 367.7 Z M 493.1 308.0 "></path></clipPath><g clip-path="url(#clip-112)"><image xlink:href="../../1D7E0FFB-25F8-4688-9C42-57A07FEC4D66/assets/395D779BCBF4D8124CB63FFECF77C4CF.jpeg" width="246.00" height="59.00" transform="matrix(1.00, 0.00, -0.00, -1.02, 493.0, 368.0)"></image></g></g><g><clipPath id="clip-113"><path d="M 493.1 239.4 L 738.1 239.4 L 738.1 297.8 L 493.1 297.8 Z M 493.1 239.4 "></path></clipPath><g clip-path="url(#clip-113)"><image xlink:href="../../1D7E0FFB-25F8-4688-9C42-57A07FEC4D66/assets/AF71CBC0E09270E0AFC877E55EA81F04.jpeg" width="246.00" height="58.00" transform="matrix(1.00, 0.00, -0.00, -1.02, 493.0, 298.0)"></image></g></g><g><clipPath id="clip-114"><path d="M 493.1 169.0 L 738.1 169.0 L 738.1 228.1 L 493.1 228.1 Z M 493.1 169.0 "></path></clipPath><g clip-path="url(#clip-114)"><image xlink:href="../../1D7E0FFB-25F8-4688-9C42-57A07FEC4D66/assets/EB001BB7EA584E802BAAF9A5C57C2F03.jpeg" width="246.00" height="59.00" transform="matrix(1.00, 0.00, -0.00, -1.00, 493.0, 228.0)"></image></g></g><g><clipPath id="clip-115"><path d="M 493.1 102.2 L 738.1 102.2 L 738.1 159.3 L 493.1 159.3 Z M 493.1 102.2 "></path></clipPath><g clip-path="url(#clip-115)"><image xlink:href="../../1D7E0FFB-25F8-4688-9C42-57A07FEC4D66/assets/4DADA5CF479035BBE85140AE165B9CC8.jpeg" width="246.00" height="57.00" transform="matrix(1.00, 0.00, -0.00, -1.00, 493.0, 159.0)"></image></g></g><image xlink:href="../../1D7E0FFB-25F8-4688-9C42-57A07FEC4D66/assets/21A86E8108D6284EF6FF2BE33C39C0AE.png" width="78.00" height="82.00" transform="matrix(1.01, 0.00, -0.00, -1.00, 793.0, 310.0)"></image><image xlink:href="../../1D7E0FFB-25F8-4688-9C42-57A07FEC4D66/assets/9F6134B38D0B89F55ACD9ED78151E274.png" width="73.00" height="73.00" transform="matrix(1.00, 0.00, -0.00, -1.00, 883.0, 305.0)"></image></g></svg>