<?xml version="1.0" encoding="UTF-8"?><svg xmlns="http://www.w3.org/2000/svg" xmlns:xlink="http://www.w3.org/1999/xlink" clip-rule="evenodd" stroke-miterlimit="4.00" viewBox="0 0 720 405"><desc>SVG generated by Keynote</desc><defs></defs><g transform="matrix(1.00, 0.00, -0.00, -1.00, 0.0, 405.0)"><path d="M 0.0 0.0 L 720.0 0.0 L 720.0 405.0 L 0.0 405.0 Z M 0.0 0.0 " fill="#212121"></path><g><clipPath id="clip-100"><path d="M 0.0 15.0 L 720.0 15.0 L 720.0 0.0 L 0.0 0.0 Z M 0.0 14.6 "></path></clipPath><g clip-path="url(#clip-100)"><image xlink:href="../../F9151A63-6472-4580-9350-F8B065CF0AEF/assets/E727F7411E2471EE462B064648A9C275.jpeg" width="721.00" height="26.00" transform="matrix(1.00, 0.00, -0.00, -1.04, 0.0, 27.0)"></image></g></g><text xml:space="preserve" font-family="ProximaNova-Regular" font-size="25.8" fill="#FFAB40" transform="matrix(1.00, 0.00, -0.00, -1.00, 32.0, 338.0)">A</text><text xml:space="preserve" font-family="ProximaNova-Regular" font-size="25.8" fill="#FFAB40" transform="matrix(1.00, 0.00, -0.00, -1.00, 49.0, 338.0)">p</text><text xml:space="preserve" font-family="ProximaNova-Regular" font-size="25.8" fill="#FFAB40" transform="matrix(1.00, 0.00, -0.00, -1.00, 63.7, 338.0)">p</text><text xml:space="preserve" font-family="ProximaNova-Regular" font-size="25.8" fill="#FFAB40" transform="matrix(1.00, 0.00, -0.00, -1.00, 78.4, 338.0)">e</text><text xml:space="preserve" font-family="ProximaNova-Regular" font-size="25.8" fill="#FFAB40" transform="matrix(1.00, 0.00, -0.00, -1.00, 92.9, 338.0)">n</text><text xml:space="preserve" font-family="ProximaNova-Regular" font-size="25.8" fill="#FFAB40" transform="matrix(1.00, 0.00, -0.00, -1.00, 107.1, 338.0)">d</text><text xml:space="preserve" font-family="ProximaNova-Regular" font-size="25.8" fill="#FFAB40" transform="matrix(1.00, 0.00, -0.00, -1.00, 122.0, 338.0)">i</text><text xml:space="preserve" font-family="ProximaNova-Regular" font-size="25.8" fill="#FFAB40" transform="matrix(1.00, 0.00, -0.00, -1.00, 127.7, 338.0)">x</text><text xml:space="preserve" font-family="ProximaNova-Regular" font-size="25.8" fill="#FFAB40" transform="matrix(1.00, 0.00, -0.00, -1.00, 140.3, 338.0)"> </text><text xml:space="preserve" font-family="ProximaNova-Regular" font-size="25.8" fill="#FFAB40" transform="matrix(1.00, 0.00, -0.00, -1.00, 147.0, 338.0)">-</text><text xml:space="preserve" font-family="ProximaNova-Regular" font-size="25.8" fill="#FFAB40" transform="matrix(1.00, 0.00, -0.00, -1.00, 154.7, 338.0)">-</text><text xml:space="preserve" font-family="ProximaNova-Regular" font-size="25.8" fill="#FFAB40" transform="matrix(1.00, 0.00, -0.00, -1.00, 162.4, 338.0)"> </text><text xml:space="preserve" font-family="ProximaNova-Regular" font-size="25.8" fill="#FFAB40" transform="matrix(1.00, 0.00, -0.00, -1.00, 169.1, 338.0)">S</text><text xml:space="preserve" font-family="ProximaNova-Regular" font-size="25.8" fill="#FFAB40" transform="matrix(1.00, 0.00, -0.00, -1.00, 184.0, 338.0)">T</text><text xml:space="preserve" font-family="ProximaNova-Regular" font-size="25.8" fill="#FFAB40" transform="matrix(1.00, 0.00, -0.00, -1.00, 197.0, 338.0)">A</text><text xml:space="preserve" font-family="ProximaNova-Regular" font-size="25.8" fill="#FFAB40" transform="matrix(1.00, 0.00, -0.00, -1.00, 212.2, 338.0)">T</text><text xml:space="preserve" font-family="ProximaNova-Regular" font-size="25.8" fill="#FFAB40" transform="matrix(1.00, 0.00, -0.00, -1.00, 226.9, 338.0)">I</text><text xml:space="preserve" font-family="ProximaNova-Regular" font-size="25.8" fill="#FFAB40" transform="matrix(1.00, 0.00, -0.00, -1.00, 233.1, 338.0)">C</text><text xml:space="preserve" font-family="ProximaNova-Regular" font-size="25.8" fill="#FFAB40" transform="matrix(1.00, 0.00, -0.00, -1.00, 250.5, 338.0)"> </text><text xml:space="preserve" font-family="ProximaNova-Regular" font-size="25.8" fill="#FFAB40" transform="matrix(1.00, 0.00, -0.00, -1.00, 257.1, 338.0)">S</text><text xml:space="preserve" font-family="ProximaNova-Regular" font-size="25.8" fill="#FFAB40" transform="matrix(1.00, 0.00, -0.00, -1.00, 272.2, 338.0)">C</text><text xml:space="preserve" font-family="ProximaNova-Regular" font-size="25.8" fill="#FFAB40" transform="matrix(1.00, 0.00, -0.00, -1.00, 289.7, 338.0)">R</text><text xml:space="preserve" font-family="ProximaNova-Regular" font-size="25.8" fill="#FFAB40" transform="matrix(1.00, 0.00, -0.00, -1.00, 305.3, 338.0)">E</text><text xml:space="preserve" font-family="ProximaNova-Regular" font-size="25.8" fill="#FFAB40" transform="matrix(1.00, 0.00, -0.00, -1.00, 320.0, 338.0)">E</text><text xml:space="preserve" font-family="ProximaNova-Regular" font-size="25.8" fill="#FFAB40" transform="matrix(1.00, 0.00, -0.00, -1.00, 334.7, 338.0)">N</text><text xml:space="preserve" font-family="ProximaNova-Regular" font-size="25.8" fill="#FFAB40" transform="matrix(1.00, 0.00, -0.00, -1.00, 352.9, 338.0)">S</text><text xml:space="preserve" font-family="ProximaNova-Regular" font-size="25.8" fill="#FFAB40" transform="matrix(1.00, 0.00, -0.00, -1.00, 368.0, 338.0)"> </text><text xml:space="preserve" font-family="ProximaNova-Regular" font-size="25.8" fill="#FFAB40" transform="matrix(1.00, 0.00, -0.00, -1.00, 374.7, 338.0)">(</text><text xml:space="preserve" font-family="ProximaNova-Regular" font-size="25.8" fill="#FFAB40" transform="matrix(1.00, 0.00, -0.00, -1.00, 381.0, 338.0)">b</text><text xml:space="preserve" font-family="ProximaNova-Regular" font-size="25.8" fill="#FFAB40" transform="matrix(1.00, 0.00, -0.00, -1.00, 395.9, 338.0)">e</text><text xml:space="preserve" font-family="ProximaNova-Regular" font-size="25.8" fill="#FFAB40" transform="matrix(1.00, 0.00, -0.00, -1.00, 410.4, 338.0)">f</text><text xml:space="preserve" font-family="ProximaNova-Regular" font-size="25.8" fill="#FFAB40" transform="matrix(1.00, 0.00, -0.00, -1.00, 417.7, 338.0)">o</text><text xml:space="preserve" font-family="ProximaNova-Regular" font-size="25.8" fill="#FFAB40" transform="matrix(1.00, 0.00, -0.00, -1.00, 432.4, 338.0)">r</text><text xml:space="preserve" font-family="ProximaNova-Regular" font-size="25.8" fill="#FFAB40" transform="matrix(1.00, 0.00, -0.00, -1.00, 440.9, 338.0)">e</text><text xml:space="preserve" font-family="ProximaNova-Regular" font-size="25.8" fill="#FFAB40" transform="matrix(1.00, 0.00, -0.00, -1.00, 455.4, 338.0)"> </text><text xml:space="preserve" font-family="ProximaNova-Regular" font-size="25.8" fill="#FFAB40" transform="matrix(1.00, 0.00, -0.00, -1.00, 462.1, 338.0)">i</text><text xml:space="preserve" font-family="ProximaNova-Regular" font-size="25.8" fill="#FFAB40" transform="matrix(1.00, 0.00, -0.00, -1.00, 467.9, 338.0)">t</text><text xml:space="preserve" font-family="ProximaNova-Regular" font-size="25.8" fill="#FFAB40" transform="matrix(1.00, 0.00, -0.00, -1.00, 475.5, 338.0)">e</text><text xml:space="preserve" font-family="ProximaNova-Regular" font-size="25.8" fill="#FFAB40" transform="matrix(1.00, 0.00, -0.00, -1.00, 490.0, 338.0)">r</text><text xml:space="preserve" font-family="ProximaNova-Regular" font-size="25.8" fill="#FFAB40" transform="matrix(1.00, 0.00, -0.00, -1.00, 498.5, 338.0)">a</text><text xml:space="preserve" font-family="ProximaNova-Regular" font-size="25.8" fill="#FFAB40" transform="matrix(1.00, 0.00, -0.00, -1.00, 512.1, 338.0)">t</text><text xml:space="preserve" font-family="ProximaNova-Regular" font-size="25.8" fill="#FFAB40" transform="matrix(1.00, 0.00, -0.00, -1.00, 519.6, 338.0)">i</text><text xml:space="preserve" font-family="ProximaNova-Regular" font-size="25.8" fill="#FFAB40" transform="matrix(1.00, 0.00, -0.00, -1.00, 525.4, 338.0)">o</text><text xml:space="preserve" font-family="ProximaNova-Regular" font-size="25.8" fill="#FFAB40" transform="matrix(1.00, 0.00, -0.00, -1.00, 540.2, 338.0)">n</text><text xml:space="preserve" font-family="ProximaNova-Regular" font-size="25.8" fill="#FFAB40" transform="matrix(1.00, 0.00, -0.00, -1.00, 554.4, 338.0)">)</text><image xlink:href="E55A76396EBB5FBAD2BCBC078172B77D.png" width="140.00" height="270.00" transform="matrix(0.99, 0.00, -0.00, -1.00, 49.0, 314.0)"></image><image xlink:href="703916ED33AB676385387AC63CEC16DC.png" width="146.00" height="268.00" transform="matrix(1.00, 0.00, -0.00, -1.00, 206.0, 312.0)"></image><image xlink:href="DD63C65CF6F3F2C22F5647621A8250C1.png" width="140.00" height="268.00" transform="matrix(1.00, 0.00, -0.00, -1.00, 376.0, 313.0)"></image><image xlink:href="A260ADF2F9756369A615F1BA812BFF3C.png" width="146.00" height="269.00" transform="matrix(1.00, 0.00, -0.00, -1.00, 533.0, 314.0)"></image></g></svg>