<?xml version="1.0" encoding="UTF-8"?><svg xmlns="http://www.w3.org/2000/svg" xmlns:xlink="http://www.w3.org/1999/xlink" clip-rule="evenodd" stroke-miterlimit="4.00" viewBox="0 0 720 405"><desc>SVG generated by Keynote</desc><defs></defs><g transform="matrix(1.00, 0.00, -0.00, -1.00, 0.0, 405.0)"><path d="M 0.0 0.0 L 720.0 0.0 L 720.0 405.0 L 0.0 405.0 Z M 0.0 0.0 " fill="#212121"></path><g><clipPath id="clip-82"><path d="M 0.0 15.0 L 720.0 15.0 L 720.0 0.0 L 0.0 0.0 Z M 0.0 14.6 "></path></clipPath><g clip-path="url(#clip-82)"><image xlink:href="../../F9151A63-6472-4580-9350-F8B065CF0AEF/assets/E727F7411E2471EE462B064648A9C275.jpeg" width="721.00" height="26.00" transform="matrix(1.00, 0.00, -0.00, -1.04, 0.0, 27.0)"></image></g></g><text xml:space="preserve" font-family="ProximaNova-Regular" font-size="25.8" fill="#FFAB40" transform="matrix(1.00, 0.00, -0.00, -1.00, 32.0, 338.0)">U</text><text xml:space="preserve" font-family="ProximaNova-Regular" font-size="25.8" fill="#FFAB40" transform="matrix(1.00, 0.00, -0.00, -1.00, 50.1, 338.0)">S</text><text xml:space="preserve" font-family="ProximaNova-Regular" font-size="25.8" fill="#FFAB40" transform="matrix(1.00, 0.00, -0.00, -1.00, 65.2, 338.0)">E</text><text xml:space="preserve" font-family="ProximaNova-Regular" font-size="25.8" fill="#FFAB40" transform="matrix(1.00, 0.00, -0.00, -1.00, 79.8, 338.0)">R</text><text xml:space="preserve" font-family="ProximaNova-Regular" font-size="25.8" fill="#FFAB40" transform="matrix(1.00, 0.00, -0.00, -1.00, 95.5, 338.0)"> </text><text xml:space="preserve" font-family="ProximaNova-Regular" font-size="25.8" fill="#FFAB40" transform="matrix(1.00, 0.00, -0.00, -1.00, 102.2, 338.0)">T</text><text xml:space="preserve" font-family="ProximaNova-Regular" font-size="25.8" fill="#FFAB40" transform="matrix(1.00, 0.00, -0.00, -1.00, 116.9, 338.0)">E</text><text xml:space="preserve" font-family="ProximaNova-Regular" font-size="25.8" fill="#FFAB40" transform="matrix(1.00, 0.00, -0.00, -1.00, 131.5, 338.0)">S</text><text xml:space="preserve" font-family="ProximaNova-Regular" font-size="25.8" fill="#FFAB40" transform="matrix(1.00, 0.00, -0.00, -1.00, 146.5, 338.0)">T</text><text xml:space="preserve" font-family="ProximaNova-Regular" font-size="25.8" fill="#FFAB40" transform="matrix(1.00, 0.00, -0.00, -1.00, 161.1, 338.0)"> </text><text xml:space="preserve" font-family="ProximaNova-Regular" font-size="25.8" fill="#FFAB40" transform="matrix(1.00, 0.00, -0.00, -1.00, 167.8, 338.0)">F</text><text xml:space="preserve" font-family="ProximaNova-Regular" font-size="25.8" fill="#FFAB40" transform="matrix(1.00, 0.00, -0.00, -1.00, 182.0, 338.0)">I</text><text xml:space="preserve" font-family="ProximaNova-Regular" font-size="25.8" fill="#FFAB40" transform="matrix(1.00, 0.00, -0.00, -1.00, 188.2, 338.0)">N</text><text xml:space="preserve" font-family="ProximaNova-Regular" font-size="25.8" fill="#FFAB40" transform="matrix(1.00, 0.00, -0.00, -1.00, 206.4, 338.0)">D</text><text xml:space="preserve" font-family="ProximaNova-Regular" font-size="25.8" fill="#FFAB40" transform="matrix(1.00, 0.00, -0.00, -1.00, 224.4, 338.0)">I</text><text xml:space="preserve" font-family="ProximaNova-Regular" font-size="25.8" fill="#FFAB40" transform="matrix(1.00, 0.00, -0.00, -1.00, 230.6, 338.0)">N</text><text xml:space="preserve" font-family="ProximaNova-Regular" font-size="25.8" fill="#FFAB40" transform="matrix(1.00, 0.00, -0.00, -1.00, 248.8, 338.0)">G</text><text xml:space="preserve" font-family="ProximaNova-Regular" font-size="25.8" fill="#FFAB40" transform="matrix(1.00, 0.00, -0.00, -1.00, 267.2, 338.0)">S</text><text xml:space="preserve" font-family="ProximaNova-Regular" font-size="15.7" fill="#FFE499" transform="matrix(1.00, 0.00, -0.00, -1.00, 50.0, 292.0)">T</text><text xml:space="preserve" font-family="ProximaNova-Regular" font-size="15.7" fill="#FFE499" transform="matrix(1.00, 0.00, -0.00, -1.00, 57.1, 292.0)">o</text><text xml:space="preserve" font-family="ProximaNova-Regular" font-size="15.7" fill="#FFE499" transform="matrix(1.00, 0.00, -0.00, -1.00, 66.1, 292.0)">-</text><text xml:space="preserve" font-family="ProximaNova-Regular" font-size="15.7" fill="#FFE499" transform="matrix(1.00, 0.00, -0.00, -1.00, 70.8, 292.0)">D</text><text xml:space="preserve" font-family="ProximaNova-Regular" font-size="15.7" fill="#FFE499" transform="matrix(1.00, 0.00, -0.00, -1.00, 81.7, 292.0)">o</text><text xml:space="preserve" font-family="ProximaNova-Regular" font-size="15.7" fill="#FFE499" transform="matrix(1.00, 0.00, -0.00, -1.00, 90.7, 292.0)"> </text><text xml:space="preserve" font-family="ProximaNova-Regular" font-size="15.7" fill="#FFE499" transform="matrix(1.00, 0.00, -0.00, -1.00, 94.8, 292.0)">L</text><text xml:space="preserve" font-family="ProximaNova-Regular" font-size="15.7" fill="#FFE499" transform="matrix(1.00, 0.00, -0.00, -1.00, 102.5, 292.0)">i</text><text xml:space="preserve" font-family="ProximaNova-Regular" font-size="15.7" fill="#FFE499" transform="matrix(1.00, 0.00, -0.00, -1.00, 106.0, 292.0)">s</text><text xml:space="preserve" font-family="ProximaNova-Regular" font-size="15.7" fill="#FFE499" transform="matrix(1.00, 0.00, -0.00, -1.00, 113.3, 292.0)">t</text><text xml:space="preserve" font-family="ProximaNova-Regular" font-size="15.7" fill="#FFE499" transform="matrix(1.00, 0.00, -0.00, -1.00, 117.9, 292.0)"> </text><text xml:space="preserve" font-family="ProximaNova-Regular" font-size="12.2" fill="#FFE499" transform="matrix(1.00, 0.00, -0.00, -1.00, 86.0, 259.0)">L</text><text xml:space="preserve" font-family="ProximaNova-Regular" font-size="12.2" fill="#FFE499" transform="matrix(1.00, 0.00, -0.00, -1.00, 92.0, 259.0)">i</text><text xml:space="preserve" font-family="ProximaNova-Regular" font-size="12.2" fill="#FFE499" transform="matrix(1.00, 0.00, -0.00, -1.00, 94.7, 259.0)">s</text><text xml:space="preserve" font-family="ProximaNova-Regular" font-size="12.2" fill="#FFE499" transform="matrix(1.00, 0.00, -0.00, -1.00, 100.4, 259.0)">t</text><text xml:space="preserve" font-family="ProximaNova-Regular" font-size="12.2" fill="#FFE499" transform="matrix(1.00, 0.00, -0.00, -1.00, 104.0, 259.0)"> </text><text xml:space="preserve" font-family="ProximaNova-Regular" font-size="12.2" fill="#FFE499" transform="matrix(1.00, 0.00, -0.00, -1.00, 107.1, 259.0)">e</text><text xml:space="preserve" font-family="ProximaNova-Regular" font-size="12.2" fill="#FFE499" transform="matrix(1.00, 0.00, -0.00, -1.00, 114.0, 259.0)">x</text><text xml:space="preserve" font-family="ProximaNova-Regular" font-size="12.2" fill="#FFE499" transform="matrix(1.00, 0.00, -0.00, -1.00, 119.9, 259.0)">p</text><text xml:space="preserve" font-family="ProximaNova-Regular" font-size="12.2" fill="#FFE499" transform="matrix(1.00, 0.00, -0.00, -1.00, 126.9, 259.0)">a</text><text xml:space="preserve" font-family="ProximaNova-Regular" font-size="12.2" fill="#FFE499" transform="matrix(1.00, 0.00, -0.00, -1.00, 133.3, 259.0)">n</text><text xml:space="preserve" font-family="ProximaNova-Regular" font-size="12.2" fill="#FFE499" transform="matrix(1.00, 0.00, -0.00, -1.00, 140.1, 259.0)">s</text><text xml:space="preserve" font-family="ProximaNova-Regular" font-size="12.2" fill="#FFE499" transform="matrix(1.00, 0.00, -0.00, -1.00, 145.7, 259.0)">i</text><text xml:space="preserve" font-family="ProximaNova-Regular" font-size="12.2" fill="#FFE499" transform="matrix(1.00, 0.00, -0.00, -1.00, 148.5, 259.0)">o</text><text xml:space="preserve" font-family="ProximaNova-Regular" font-size="12.2" fill="#FFE499" transform="matrix(1.00, 0.00, -0.00, -1.00, 155.4, 259.0)">n</text><text xml:space="preserve" font-family="ProximaNova-Regular" font-size="12.2" fill="#FFE499" transform="matrix(1.00, 0.00, -0.00, -1.00, 162.1, 259.0)">s</text><text xml:space="preserve" font-family="ProximaNova-Regular" font-size="12.2" fill="#FFE499" transform="matrix(1.00, 0.00, -0.00, -1.00, 167.8, 259.0)">:</text><text xml:space="preserve" font-family="ProximaNova-Regular" font-size="12.2" fill="#FFE499" transform="matrix(1.00, 0.00, -0.00, -1.00, 170.6, 259.0)"> </text><text xml:space="preserve" font-family="ProximaNova-Regular" font-size="12.2" fill="#FFE499" transform="matrix(1.00, 0.00, -0.00, -1.00, 173.7, 259.0)">s</text><text xml:space="preserve" font-family="ProximaNova-Regular" font-size="12.2" fill="#FFE499" transform="matrix(1.00, 0.00, -0.00, -1.00, 179.4, 259.0)">e</text><text xml:space="preserve" font-family="ProximaNova-Regular" font-size="12.2" fill="#FFE499" transform="matrix(1.00, 0.00, -0.00, -1.00, 186.2, 259.0)">p</text><text xml:space="preserve" font-family="ProximaNova-Regular" font-size="12.2" fill="#FFE499" transform="matrix(1.00, 0.00, -0.00, -1.00, 193.2, 259.0)">a</text><text xml:space="preserve" font-family="ProximaNova-Regular" font-size="12.2" fill="#FFE499" transform="matrix(1.00, 0.00, -0.00, -1.00, 199.6, 259.0)">r</text><text xml:space="preserve" font-family="ProximaNova-Regular" font-size="12.2" fill="#FFE499" transform="matrix(1.00, 0.00, -0.00, -1.00, 203.6, 259.0)">a</text><text xml:space="preserve" font-family="ProximaNova-Regular" font-size="12.2" fill="#FFE499" transform="matrix(1.00, 0.00, -0.00, -1.00, 210.1, 259.0)">t</text><text xml:space="preserve" font-family="ProximaNova-Regular" font-size="12.2" fill="#FFE499" transform="matrix(1.00, 0.00, -0.00, -1.00, 213.7, 259.0)">e</text><text xml:space="preserve" font-family="ProximaNova-Regular" font-size="12.2" fill="#FFE499" transform="matrix(1.00, 0.00, -0.00, -1.00, 220.5, 259.0)"> </text><text xml:space="preserve" font-family="ProximaNova-Regular" font-size="12.2" fill="#FFE499" transform="matrix(1.00, 0.00, -0.00, -1.00, 223.7, 259.0)">s</text><text xml:space="preserve" font-family="ProximaNova-Regular" font-size="12.2" fill="#FFE499" transform="matrix(1.00, 0.00, -0.00, -1.00, 229.3, 259.0)">c</text><text xml:space="preserve" font-family="ProximaNova-Regular" font-size="12.2" fill="#FFE499" transform="matrix(1.00, 0.00, -0.00, -1.00, 235.4, 259.0)">r</text><text xml:space="preserve" font-family="ProximaNova-Regular" font-size="12.2" fill="#FFE499" transform="matrix(1.00, 0.00, -0.00, -1.00, 239.4, 259.0)">e</text><text xml:space="preserve" font-family="ProximaNova-Regular" font-size="12.2" fill="#FFE499" transform="matrix(1.00, 0.00, -0.00, -1.00, 246.3, 259.0)">e</text><text xml:space="preserve" font-family="ProximaNova-Regular" font-size="12.2" fill="#FFE499" transform="matrix(1.00, 0.00, -0.00, -1.00, 253.1, 259.0)">n</text><text xml:space="preserve" font-family="ProximaNova-Regular" font-size="12.2" fill="#FFE499" transform="matrix(1.00, 0.00, -0.00, -1.00, 259.4, 259.0)">?</text><text xml:space="preserve" font-family="ProximaNova-Regular" font-size="12.2" fill="#FFE499" transform="matrix(1.00, 0.00, -0.00, -1.00, 265.0, 259.0)"> </text><text xml:space="preserve" font-family="ProximaNova-Regular" font-size="15.7" fill="#FFE499" transform="matrix(1.00, 0.00, -0.00, -1.00, 50.0, 225.0)">S</text><text xml:space="preserve" font-family="ProximaNova-Regular" font-size="15.7" fill="#FFE499" transform="matrix(1.00, 0.00, -0.00, -1.00, 59.2, 225.0)">c</text><text xml:space="preserve" font-family="ProximaNova-Regular" font-size="15.7" fill="#FFE499" transform="matrix(1.00, 0.00, -0.00, -1.00, 66.9, 225.0)">h</text><text xml:space="preserve" font-family="ProximaNova-Regular" font-size="15.7" fill="#FFE499" transform="matrix(1.00, 0.00, -0.00, -1.00, 75.6, 225.0)">o</text><text xml:space="preserve" font-family="ProximaNova-Regular" font-size="15.7" fill="#FFE499" transform="matrix(1.00, 0.00, -0.00, -1.00, 84.5, 225.0)">l</text><text xml:space="preserve" font-family="ProximaNova-Regular" font-size="15.7" fill="#FFE499" transform="matrix(1.00, 0.00, -0.00, -1.00, 88.1, 225.0)">a</text><text xml:space="preserve" font-family="ProximaNova-Regular" font-size="15.7" fill="#FFE499" transform="matrix(1.00, 0.00, -0.00, -1.00, 96.3, 225.0)">r</text><text xml:space="preserve" font-family="ProximaNova-Regular" font-size="15.7" fill="#FFE499" transform="matrix(1.00, 0.00, -0.00, -1.00, 101.5, 225.0)">s</text><text xml:space="preserve" font-family="ProximaNova-Regular" font-size="15.7" fill="#FFE499" transform="matrix(1.00, 0.00, -0.00, -1.00, 108.8, 225.0)">h</text><text xml:space="preserve" font-family="ProximaNova-Regular" font-size="15.7" fill="#FFE499" transform="matrix(1.00, 0.00, -0.00, -1.00, 117.4, 225.0)">i</text><text xml:space="preserve" font-family="ProximaNova-Regular" font-size="15.7" fill="#FFE499" transform="matrix(1.00, 0.00, -0.00, -1.00, 121.0, 225.0)">p</text><text xml:space="preserve" font-family="ProximaNova-Regular" font-size="15.7" fill="#FFE499" transform="matrix(1.00, 0.00, -0.00, -1.00, 129.9, 225.0)"> </text><text xml:space="preserve" font-family="ProximaNova-Regular" font-size="15.7" fill="#FFE499" transform="matrix(1.00, 0.00, -0.00, -1.00, 134.0, 225.0)">G</text><text xml:space="preserve" font-family="ProximaNova-Regular" font-size="15.7" fill="#FFE499" transform="matrix(1.00, 0.00, -0.00, -1.00, 145.1, 225.0)">u</text><text xml:space="preserve" font-family="ProximaNova-Regular" font-size="15.7" fill="#FFE499" transform="matrix(1.00, 0.00, -0.00, -1.00, 153.8, 225.0)">i</text><text xml:space="preserve" font-family="ProximaNova-Regular" font-size="15.7" fill="#FFE499" transform="matrix(1.00, 0.00, -0.00, -1.00, 157.3, 225.0)">d</text><text xml:space="preserve" font-family="ProximaNova-Regular" font-size="15.7" fill="#FFE499" transform="matrix(1.00, 0.00, -0.00, -1.00, 166.3, 225.0)">e</text><text xml:space="preserve" font-family="ProximaNova-Regular" font-size="15.7" fill="#FFE499" transform="matrix(1.00, 0.00, -0.00, -1.00, 175.1, 225.0)"> </text><text xml:space="preserve" font-family="ProximaNova-Regular" font-size="12.2" fill="#FFE499" transform="matrix(1.00, 0.00, -0.00, -1.00, 86.0, 192.0)">I</text><text xml:space="preserve" font-family="ProximaNova-Regular" font-size="12.2" fill="#FFE499" transform="matrix(1.00, 0.00, -0.00, -1.00, 88.9, 192.0)">n</text><text xml:space="preserve" font-family="ProximaNova-Regular" font-size="12.2" fill="#FFE499" transform="matrix(1.00, 0.00, -0.00, -1.00, 95.6, 192.0)">p</text><text xml:space="preserve" font-family="ProximaNova-Regular" font-size="12.2" fill="#FFE499" transform="matrix(1.00, 0.00, -0.00, -1.00, 102.6, 192.0)">u</text><text xml:space="preserve" font-family="ProximaNova-Regular" font-size="12.2" fill="#FFE499" transform="matrix(1.00, 0.00, -0.00, -1.00, 109.3, 192.0)">t</text><text xml:space="preserve" font-family="ProximaNova-Regular" font-size="12.2" fill="#FFE499" transform="matrix(1.00, 0.00, -0.00, -1.00, 112.9, 192.0)"> </text><text xml:space="preserve" font-family="ProximaNova-Regular" font-size="12.2" fill="#FFE499" transform="matrix(1.00, 0.00, -0.00, -1.00, 116.0, 192.0)">f</text><text xml:space="preserve" font-family="ProximaNova-Regular" font-size="12.2" fill="#FFE499" transform="matrix(1.00, 0.00, -0.00, -1.00, 119.5, 192.0)">r</text><text xml:space="preserve" font-family="ProximaNova-Regular" font-size="12.2" fill="#FFE499" transform="matrix(1.00, 0.00, -0.00, -1.00, 123.5, 192.0)">o</text><text xml:space="preserve" font-family="ProximaNova-Regular" font-size="12.2" fill="#FFE499" transform="matrix(1.00, 0.00, -0.00, -1.00, 130.5, 192.0)">m</text><text xml:space="preserve" font-family="ProximaNova-Regular" font-size="12.2" fill="#FFE499" transform="matrix(1.00, 0.00, -0.00, -1.00, 140.3, 192.0)"> </text><text xml:space="preserve" font-family="ProximaNova-Regular" font-size="12.2" fill="#FFE499" transform="matrix(1.00, 0.00, -0.00, -1.00, 143.5, 192.0)">d</text><text xml:space="preserve" font-family="ProximaNova-Regular" font-size="12.2" fill="#FFE499" transform="matrix(1.00, 0.00, -0.00, -1.00, 150.5, 192.0)">a</text><text xml:space="preserve" font-family="ProximaNova-Regular" font-size="12.2" fill="#FFE499" transform="matrix(1.00, 0.00, -0.00, -1.00, 156.9, 192.0)">t</text><text xml:space="preserve" font-family="ProximaNova-Regular" font-size="12.2" fill="#FFE499" transform="matrix(1.00, 0.00, -0.00, -1.00, 160.5, 192.0)">a</text><text xml:space="preserve" font-family="ProximaNova-Regular" font-size="12.2" fill="#FFE499" transform="matrix(1.00, 0.00, -0.00, -1.00, 166.9, 192.0)">b</text><text xml:space="preserve" font-family="ProximaNova-Regular" font-size="12.2" fill="#FFE499" transform="matrix(1.00, 0.00, -0.00, -1.00, 173.9, 192.0)">a</text><text xml:space="preserve" font-family="ProximaNova-Regular" font-size="12.2" fill="#FFE499" transform="matrix(1.00, 0.00, -0.00, -1.00, 180.4, 192.0)">s</text><text xml:space="preserve" font-family="ProximaNova-Regular" font-size="12.2" fill="#FFE499" transform="matrix(1.00, 0.00, -0.00, -1.00, 186.0, 192.0)">e</text><text xml:space="preserve" font-family="ProximaNova-Regular" font-size="12.2" fill="#FFE499" transform="matrix(1.00, 0.00, -0.00, -1.00, 192.9, 192.0)"> </text><text xml:space="preserve" font-family="ProximaNova-Regular" font-size="12.2" fill="#FFE499" transform="matrix(1.00, 0.00, -0.00, -1.00, 196.0, 192.0)">o</text><text xml:space="preserve" font-family="ProximaNova-Regular" font-size="12.2" fill="#FFE499" transform="matrix(1.00, 0.00, -0.00, -1.00, 203.0, 192.0)">r</text><text xml:space="preserve" font-family="ProximaNova-Regular" font-size="12.2" fill="#FFE499" transform="matrix(1.00, 0.00, -0.00, -1.00, 207.0, 192.0)"> </text><text xml:space="preserve" font-family="ProximaNova-Regular" font-size="12.2" fill="#FFE499" transform="matrix(1.00, 0.00, -0.00, -1.00, 210.2, 192.0)">m</text><text xml:space="preserve" font-family="ProximaNova-Regular" font-size="12.2" fill="#FFE499" transform="matrix(1.00, 0.00, -0.00, -1.00, 220.0, 192.0)">a</text><text xml:space="preserve" font-family="ProximaNova-Regular" font-size="12.2" fill="#FFE499" transform="matrix(1.00, 0.00, -0.00, -1.00, 226.5, 192.0)">n</text><text xml:space="preserve" font-family="ProximaNova-Regular" font-size="12.2" fill="#FFE499" transform="matrix(1.00, 0.00, -0.00, -1.00, 233.2, 192.0)">u</text><text xml:space="preserve" font-family="ProximaNova-Regular" font-size="12.2" fill="#FFE499" transform="matrix(1.00, 0.00, -0.00, -1.00, 239.9, 192.0)">a</text><text xml:space="preserve" font-family="ProximaNova-Regular" font-size="12.2" fill="#FFE499" transform="matrix(1.00, 0.00, -0.00, -1.00, 246.3, 192.0)">l</text><text xml:space="preserve" font-family="ProximaNova-Regular" font-size="12.2" fill="#FFE499" transform="matrix(1.00, 0.00, -0.00, -1.00, 249.1, 192.0)">l</text><text xml:space="preserve" font-family="ProximaNova-Regular" font-size="12.2" fill="#FFE499" transform="matrix(1.00, 0.00, -0.00, -1.00, 251.8, 192.0)">y</text><text xml:space="preserve" font-family="ProximaNova-Regular" font-size="12.2" fill="#FFE499" transform="matrix(1.00, 0.00, -0.00, -1.00, 257.7, 192.0)">?</text><text xml:space="preserve" font-family="ProximaNova-Regular" font-size="12.2" fill="#FFE499" transform="matrix(1.00, 0.00, -0.00, -1.00, 263.4, 192.0)"> </text><text xml:space="preserve" font-family="ProximaNova-Regular" font-size="15.7" fill="#FFE499" transform="matrix(1.00, 0.00, -0.00, -1.00, 50.0, 158.0)">S</text><text xml:space="preserve" font-family="ProximaNova-Regular" font-size="15.7" fill="#FFE499" transform="matrix(1.00, 0.00, -0.00, -1.00, 59.2, 158.0)">c</text><text xml:space="preserve" font-family="ProximaNova-Regular" font-size="15.7" fill="#FFE499" transform="matrix(1.00, 0.00, -0.00, -1.00, 66.9, 158.0)">h</text><text xml:space="preserve" font-family="ProximaNova-Regular" font-size="15.7" fill="#FFE499" transform="matrix(1.00, 0.00, -0.00, -1.00, 75.6, 158.0)">o</text><text xml:space="preserve" font-family="ProximaNova-Regular" font-size="15.7" fill="#FFE499" transform="matrix(1.00, 0.00, -0.00, -1.00, 84.5, 158.0)">o</text><text xml:space="preserve" font-family="ProximaNova-Regular" font-size="15.7" fill="#FFE499" transform="matrix(1.00, 0.00, -0.00, -1.00, 93.5, 158.0)">l</text><text xml:space="preserve" font-family="ProximaNova-Regular" font-size="15.7" fill="#FFE499" transform="matrix(1.00, 0.00, -0.00, -1.00, 97.0, 158.0)"> </text><text xml:space="preserve" font-family="ProximaNova-Regular" font-size="15.7" fill="#FFE499" transform="matrix(1.00, 0.00, -0.00, -1.00, 101.1, 158.0)">A</text><text xml:space="preserve" font-family="ProximaNova-Regular" font-size="15.7" fill="#FFE499" transform="matrix(1.00, 0.00, -0.00, -1.00, 111.4, 158.0)">d</text><text xml:space="preserve" font-family="ProximaNova-Regular" font-size="15.7" fill="#FFE499" transform="matrix(1.00, 0.00, -0.00, -1.00, 120.4, 158.0)">m</text><text xml:space="preserve" font-family="ProximaNova-Regular" font-size="15.7" fill="#FFE499" transform="matrix(1.00, 0.00, -0.00, -1.00, 133.0, 158.0)">i</text><text xml:space="preserve" font-family="ProximaNova-Regular" font-size="15.7" fill="#FFE499" transform="matrix(1.00, 0.00, -0.00, -1.00, 136.6, 158.0)">s</text><text xml:space="preserve" font-family="ProximaNova-Regular" font-size="15.7" fill="#FFE499" transform="matrix(1.00, 0.00, -0.00, -1.00, 143.9, 158.0)">s</text><text xml:space="preserve" font-family="ProximaNova-Regular" font-size="15.7" fill="#FFE499" transform="matrix(1.00, 0.00, -0.00, -1.00, 151.1, 158.0)">i</text><text xml:space="preserve" font-family="ProximaNova-Regular" font-size="15.7" fill="#FFE499" transform="matrix(1.00, 0.00, -0.00, -1.00, 154.7, 158.0)">o</text><text xml:space="preserve" font-family="ProximaNova-Regular" font-size="15.7" fill="#FFE499" transform="matrix(1.00, 0.00, -0.00, -1.00, 163.6, 158.0)">n</text><text xml:space="preserve" font-family="ProximaNova-Regular" font-size="15.7" fill="#FFE499" transform="matrix(1.00, 0.00, -0.00, -1.00, 172.3, 158.0)"> </text><text xml:space="preserve" font-family="ProximaNova-Regular" font-size="15.7" fill="#FFE499" transform="matrix(1.00, 0.00, -0.00, -1.00, 176.3, 158.0)">G</text><text xml:space="preserve" font-family="ProximaNova-Regular" font-size="15.7" fill="#FFE499" transform="matrix(1.00, 0.00, -0.00, -1.00, 187.5, 158.0)">u</text><text xml:space="preserve" font-family="ProximaNova-Regular" font-size="15.7" fill="#FFE499" transform="matrix(1.00, 0.00, -0.00, -1.00, 196.1, 158.0)">i</text><text xml:space="preserve" font-family="ProximaNova-Regular" font-size="15.7" fill="#FFE499" transform="matrix(1.00, 0.00, -0.00, -1.00, 199.6, 158.0)">d</text><text xml:space="preserve" font-family="ProximaNova-Regular" font-size="15.7" fill="#FFE499" transform="matrix(1.00, 0.00, -0.00, -1.00, 208.6, 158.0)">e</text><text xml:space="preserve" font-family="ProximaNova-Regular" font-size="15.7" fill="#FFE499" transform="matrix(1.00, 0.00, -0.00, -1.00, 217.5, 158.0)"> </text><text xml:space="preserve" font-family="ProximaNova-Regular" font-size="12.2" fill="#FFE499" transform="matrix(1.00, 0.00, -0.00, -1.00, 86.0, 125.0)">S</text><text xml:space="preserve" font-family="ProximaNova-Regular" font-size="12.2" fill="#FFE499" transform="matrix(1.00, 0.00, -0.00, -1.00, 93.1, 125.0)">o</text><text xml:space="preserve" font-family="ProximaNova-Regular" font-size="12.2" fill="#FFE499" transform="matrix(1.00, 0.00, -0.00, -1.00, 100.1, 125.0)">r</text><text xml:space="preserve" font-family="ProximaNova-Regular" font-size="12.2" fill="#FFE499" transform="matrix(1.00, 0.00, -0.00, -1.00, 104.1, 125.0)">t</text><text xml:space="preserve" font-family="ProximaNova-Regular" font-size="12.2" fill="#FFE499" transform="matrix(1.00, 0.00, -0.00, -1.00, 107.7, 125.0)">i</text><text xml:space="preserve" font-family="ProximaNova-Regular" font-size="12.2" fill="#FFE499" transform="matrix(1.00, 0.00, -0.00, -1.00, 110.4, 125.0)">n</text><text xml:space="preserve" font-family="ProximaNova-Regular" font-size="12.2" fill="#FFE499" transform="matrix(1.00, 0.00, -0.00, -1.00, 117.2, 125.0)">g</text><text xml:space="preserve" font-family="ProximaNova-Regular" font-size="12.2" fill="#FFE499" transform="matrix(1.00, 0.00, -0.00, -1.00, 124.2, 125.0)"> </text><text xml:space="preserve" font-family="ProximaNova-Regular" font-size="12.2" fill="#FFE499" transform="matrix(1.00, 0.00, -0.00, -1.00, 127.3, 125.0)">o</text><text xml:space="preserve" font-family="ProximaNova-Regular" font-size="12.2" fill="#FFE499" transform="matrix(1.00, 0.00, -0.00, -1.00, 134.3, 125.0)">f</text><text xml:space="preserve" font-family="ProximaNova-Regular" font-size="12.2" fill="#FFE499" transform="matrix(1.00, 0.00, -0.00, -1.00, 137.8, 125.0)"> </text><text xml:space="preserve" font-family="ProximaNova-Regular" font-size="12.2" fill="#FFE499" transform="matrix(1.00, 0.00, -0.00, -1.00, 140.9, 125.0)">s</text><text xml:space="preserve" font-family="ProximaNova-Regular" font-size="12.2" fill="#FFE499" transform="matrix(1.00, 0.00, -0.00, -1.00, 146.6, 125.0)">c</text><text xml:space="preserve" font-family="ProximaNova-Regular" font-size="12.2" fill="#FFE499" transform="matrix(1.00, 0.00, -0.00, -1.00, 152.6, 125.0)">h</text><text xml:space="preserve" font-family="ProximaNova-Regular" font-size="12.2" fill="#FFE499" transform="matrix(1.00, 0.00, -0.00, -1.00, 159.3, 125.0)">o</text><text xml:space="preserve" font-family="ProximaNova-Regular" font-size="12.2" fill="#FFE499" transform="matrix(1.00, 0.00, -0.00, -1.00, 166.3, 125.0)">o</text><text xml:space="preserve" font-family="ProximaNova-Regular" font-size="12.2" fill="#FFE499" transform="matrix(1.00, 0.00, -0.00, -1.00, 173.3, 125.0)">l</text><text xml:space="preserve" font-family="ProximaNova-Regular" font-size="12.2" fill="#FFE499" transform="matrix(1.00, 0.00, -0.00, -1.00, 176.0, 125.0)">s</text><text xml:space="preserve" font-family="ProximaNova-Regular" font-size="12.2" fill="#FFE499" transform="matrix(1.00, 0.00, -0.00, -1.00, 181.7, 125.0)"> </text><text xml:space="preserve" font-family="ProximaNova-Regular" font-size="12.2" fill="#FFE499" transform="matrix(1.00, 0.00, -0.00, -1.00, 184.8, 125.0)">(</text><text xml:space="preserve" font-family="ProximaNova-Regular" font-size="12.2" fill="#FFE499" transform="matrix(1.00, 0.00, -0.00, -1.00, 187.8, 125.0)">p</text><text xml:space="preserve" font-family="ProximaNova-Regular" font-size="12.2" fill="#FFE499" transform="matrix(1.00, 0.00, -0.00, -1.00, 194.8, 125.0)">r</text><text xml:space="preserve" font-family="ProximaNova-Regular" font-size="12.2" fill="#FFE499" transform="matrix(1.00, 0.00, -0.00, -1.00, 198.8, 125.0)">e</text><text xml:space="preserve" font-family="ProximaNova-Regular" font-size="12.2" fill="#FFE499" transform="matrix(1.00, 0.00, -0.00, -1.00, 205.7, 125.0)">f</text><text xml:space="preserve" font-family="ProximaNova-Regular" font-size="12.2" fill="#FFE499" transform="matrix(1.00, 0.00, -0.00, -1.00, 209.2, 125.0)">e</text><text xml:space="preserve" font-family="ProximaNova-Regular" font-size="12.2" fill="#FFE499" transform="matrix(1.00, 0.00, -0.00, -1.00, 216.0, 125.0)">r</text><text xml:space="preserve" font-family="ProximaNova-Regular" font-size="12.2" fill="#FFE499" transform="matrix(1.00, 0.00, -0.00, -1.00, 220.0, 125.0)">e</text><text xml:space="preserve" font-family="ProximaNova-Regular" font-size="12.2" fill="#FFE499" transform="matrix(1.00, 0.00, -0.00, -1.00, 226.9, 125.0)">n</text><text xml:space="preserve" font-family="ProximaNova-Regular" font-size="12.2" fill="#FFE499" transform="matrix(1.00, 0.00, -0.00, -1.00, 233.6, 125.0)">c</text><text xml:space="preserve" font-family="ProximaNova-Regular" font-size="12.2" fill="#FFE499" transform="matrix(1.00, 0.00, -0.00, -1.00, 239.7, 125.0)">e</text><text xml:space="preserve" font-family="ProximaNova-Regular" font-size="12.2" fill="#FFE499" transform="matrix(1.00, 0.00, -0.00, -1.00, 246.4, 125.0)">,</text><text xml:space="preserve" font-family="ProximaNova-Regular" font-size="12.2" fill="#FFE499" transform="matrix(1.00, 0.00, -0.00, -1.00, 249.2, 125.0)"> </text><text xml:space="preserve" font-family="ProximaNova-Regular" font-size="12.2" fill="#FFE499" transform="matrix(1.00, 0.00, -0.00, -1.00, 252.4, 125.0)">m</text><text xml:space="preserve" font-family="ProximaNova-Regular" font-size="12.2" fill="#FFE499" transform="matrix(1.00, 0.00, -0.00, -1.00, 262.2, 125.0)">a</text><text xml:space="preserve" font-family="ProximaNova-Regular" font-size="12.2" fill="#FFE499" transform="matrix(1.00, 0.00, -0.00, -1.00, 268.7, 125.0)">t</text><text xml:space="preserve" font-family="ProximaNova-Regular" font-size="12.2" fill="#FFE499" transform="matrix(1.00, 0.00, -0.00, -1.00, 272.2, 125.0)">c</text><text xml:space="preserve" font-family="ProximaNova-Regular" font-size="12.2" fill="#FFE499" transform="matrix(1.00, 0.00, -0.00, -1.00, 278.3, 125.0)">h</text><text xml:space="preserve" font-family="ProximaNova-Regular" font-size="12.2" fill="#FFE499" transform="matrix(1.00, 0.00, -0.00, -1.00, 285.0, 125.0)"> </text><text xml:space="preserve" font-family="ProximaNova-Regular" font-size="12.2" fill="#FFE499" transform="matrix(1.00, 0.00, -0.00, -1.00, 288.2, 125.0)">l</text><text xml:space="preserve" font-family="ProximaNova-Regular" font-size="12.2" fill="#FFE499" transform="matrix(1.00, 0.00, -0.00, -1.00, 290.9, 125.0)">e</text><text xml:space="preserve" font-family="ProximaNova-Regular" font-size="12.2" fill="#FFE499" transform="matrix(1.00, 0.00, -0.00, -1.00, 297.7, 125.0)">v</text><text xml:space="preserve" font-family="ProximaNova-Regular" font-size="12.2" fill="#FFE499" transform="matrix(1.00, 0.00, -0.00, -1.00, 303.7, 125.0)">e</text><text xml:space="preserve" font-family="ProximaNova-Regular" font-size="12.2" fill="#FFE499" transform="matrix(1.00, 0.00, -0.00, -1.00, 310.6, 125.0)">l</text><text xml:space="preserve" font-family="ProximaNova-Regular" font-size="12.2" fill="#FFE499" transform="matrix(1.00, 0.00, -0.00, -1.00, 313.3, 125.0)">,</text><text xml:space="preserve" font-family="ProximaNova-Regular" font-size="12.2" fill="#FFE499" transform="matrix(1.00, 0.00, -0.00, -1.00, 316.1, 125.0)"> </text><text xml:space="preserve" font-family="ProximaNova-Regular" font-size="12.2" fill="#FFE499" transform="matrix(1.00, 0.00, -0.00, -1.00, 319.3, 125.0)">u</text><text xml:space="preserve" font-family="ProximaNova-Regular" font-size="12.2" fill="#FFE499" transform="matrix(1.00, 0.00, -0.00, -1.00, 326.0, 125.0)">r</text><text xml:space="preserve" font-family="ProximaNova-Regular" font-size="12.2" fill="#FFE499" transform="matrix(1.00, 0.00, -0.00, -1.00, 330.0, 125.0)">g</text><text xml:space="preserve" font-family="ProximaNova-Regular" font-size="12.2" fill="#FFE499" transform="matrix(1.00, 0.00, -0.00, -1.00, 337.0, 125.0)">e</text><text xml:space="preserve" font-family="ProximaNova-Regular" font-size="12.2" fill="#FFE499" transform="matrix(1.00, 0.00, -0.00, -1.00, 343.9, 125.0)">n</text><text xml:space="preserve" font-family="ProximaNova-Regular" font-size="12.2" fill="#FFE499" transform="matrix(1.00, 0.00, -0.00, -1.00, 350.6, 125.0)">c</text><text xml:space="preserve" font-family="ProximaNova-Regular" font-size="12.2" fill="#FFE499" transform="matrix(1.00, 0.00, -0.00, -1.00, 356.6, 125.0)">y</text><text xml:space="preserve" font-family="ProximaNova-Regular" font-size="12.2" fill="#FFE499" transform="matrix(1.00, 0.00, -0.00, -1.00, 361.9, 125.0)">,</text><text xml:space="preserve" font-family="ProximaNova-Regular" font-size="12.2" fill="#FFE499" transform="matrix(1.00, 0.00, -0.00, -1.00, 364.7, 125.0)"> </text><text xml:space="preserve" font-family="ProximaNova-Regular" font-size="12.2" fill="#FFE499" transform="matrix(1.00, 0.00, -0.00, -1.00, 367.9, 125.0)">e</text><text xml:space="preserve" font-family="ProximaNova-Regular" font-size="12.2" fill="#FFE499" transform="matrix(1.00, 0.00, -0.00, -1.00, 374.7, 125.0)">t</text><text xml:space="preserve" font-family="ProximaNova-Regular" font-size="12.2" fill="#FFE499" transform="matrix(1.00, 0.00, -0.00, -1.00, 378.3, 125.0)">c</text><text xml:space="preserve" font-family="ProximaNova-Regular" font-size="12.2" fill="#FFE499" transform="matrix(1.00, 0.00, -0.00, -1.00, 384.3, 125.0)">)</text><text xml:space="preserve" font-family="ProximaNova-Regular" font-size="12.2" fill="#FFE499" transform="matrix(1.00, 0.00, -0.00, -1.00, 387.4, 125.0)"> </text><text xml:space="preserve" font-family="ProximaNova-Regular" font-size="15.7" fill="#FFE499" transform="matrix(1.00, 0.00, -0.00, -1.00, 50.0, 92.0)">I</text><text xml:space="preserve" font-family="ProximaNova-Regular" font-size="15.7" fill="#FFE499" transform="matrix(1.00, 0.00, -0.00, -1.00, 53.7, 92.0)">c</text><text xml:space="preserve" font-family="ProximaNova-Regular" font-size="15.7" fill="#FFE499" transform="matrix(1.00, 0.00, -0.00, -1.00, 61.5, 92.0)">o</text><text xml:space="preserve" font-family="ProximaNova-Regular" font-size="15.7" fill="#FFE499" transform="matrix(1.00, 0.00, -0.00, -1.00, 70.5, 92.0)">n</text><text xml:space="preserve" font-family="ProximaNova-Regular" font-size="15.7" fill="#FFE499" transform="matrix(1.00, 0.00, -0.00, -1.00, 79.1, 92.0)">s</text><text xml:space="preserve" font-family="ProximaNova-Regular" font-size="15.7" fill="#FFE499" transform="matrix(1.00, 0.00, -0.00, -1.00, 86.4, 92.0)"> </text><text xml:space="preserve" font-family="ProximaNova-Regular" font-size="15.7" fill="#FFE499" transform="matrix(1.00, 0.00, -0.00, -1.00, 90.4, 92.0)">w</text><text xml:space="preserve" font-family="ProximaNova-Regular" font-size="15.7" fill="#FFE499" transform="matrix(1.00, 0.00, -0.00, -1.00, 101.9, 92.0)">e</text><text xml:space="preserve" font-family="ProximaNova-Regular" font-size="15.7" fill="#FFE499" transform="matrix(1.00, 0.00, -0.00, -1.00, 110.8, 92.0)">r</text><text xml:space="preserve" font-family="ProximaNova-Regular" font-size="15.7" fill="#FFE499" transform="matrix(1.00, 0.00, -0.00, -1.00, 115.9, 92.0)">e</text><text xml:space="preserve" font-family="ProximaNova-Regular" font-size="15.7" fill="#FFE499" transform="matrix(1.00, 0.00, -0.00, -1.00, 124.7, 92.0)"> </text><text xml:space="preserve" font-family="ProximaNova-Regular" font-size="15.7" fill="#FFE499" transform="matrix(1.00, 0.00, -0.00, -1.00, 128.8, 92.0)">c</text><text xml:space="preserve" font-family="ProximaNova-Regular" font-size="15.7" fill="#FFE499" transform="matrix(1.00, 0.00, -0.00, -1.00, 136.6, 92.0)">o</text><text xml:space="preserve" font-family="ProximaNova-Regular" font-size="15.7" fill="#FFE499" transform="matrix(1.00, 0.00, -0.00, -1.00, 145.5, 92.0)">n</text><text xml:space="preserve" font-family="ProximaNova-Regular" font-size="15.7" fill="#FFE499" transform="matrix(1.00, 0.00, -0.00, -1.00, 154.2, 92.0)">f</text><text xml:space="preserve" font-family="ProximaNova-Regular" font-size="15.7" fill="#FFE499" transform="matrix(1.00, 0.00, -0.00, -1.00, 158.6, 92.0)">u</text><text xml:space="preserve" font-family="ProximaNova-Regular" font-size="15.7" fill="#FFE499" transform="matrix(1.00, 0.00, -0.00, -1.00, 167.2, 92.0)">s</text><text xml:space="preserve" font-family="ProximaNova-Regular" font-size="15.7" fill="#FFE499" transform="matrix(1.00, 0.00, -0.00, -1.00, 174.5, 92.0)">i</text><text xml:space="preserve" font-family="ProximaNova-Regular" font-size="15.7" fill="#FFE499" transform="matrix(1.00, 0.00, -0.00, -1.00, 178.1, 92.0)">n</text><text xml:space="preserve" font-family="ProximaNova-Regular" font-size="15.7" fill="#FFE499" transform="matrix(1.00, 0.00, -0.00, -1.00, 186.7, 92.0)">g</text><text xml:space="preserve" font-family="ProximaNova-Regular" font-size="15.7" fill="#FFE499" transform="matrix(1.00, 0.00, -0.00, -1.00, 195.7, 92.0)"> </text><text xml:space="preserve" font-family="ProximaNova-Regular" font-size="15.7" fill="#FFE499" transform="matrix(1.00, 0.00, -0.00, -1.00, 199.8, 92.0)">(</text><text xml:space="preserve" font-family="ProximaNova-Regular" font-size="15.7" fill="#FFE499" transform="matrix(1.00, 0.00, -0.00, -1.00, 203.6, 92.0)">p</text><text xml:space="preserve" font-family="ProximaNova-Regular" font-size="15.7" fill="#FFE499" transform="matrix(1.00, 0.00, -0.00, -1.00, 212.6, 92.0)">l</text><text xml:space="preserve" font-family="ProximaNova-Regular" font-size="15.7" fill="#FFE499" transform="matrix(1.00, 0.00, -0.00, -1.00, 216.1, 92.0)">u</text><text xml:space="preserve" font-family="ProximaNova-Regular" font-size="15.7" fill="#FFE499" transform="matrix(1.00, 0.00, -0.00, -1.00, 224.7, 92.0)">s</text><text xml:space="preserve" font-family="ProximaNova-Regular" font-size="15.7" fill="#FFE499" transform="matrix(1.00, 0.00, -0.00, -1.00, 232.0, 92.0)"> </text><text xml:space="preserve" font-family="ProximaNova-Regular" font-size="15.7" fill="#FFE499" transform="matrix(1.00, 0.00, -0.00, -1.00, 236.1, 92.0)">s</text><text xml:space="preserve" font-family="ProximaNova-Regular" font-size="15.7" fill="#FFE499" transform="matrix(1.00, 0.00, -0.00, -1.00, 243.4, 92.0)">i</text><text xml:space="preserve" font-family="ProximaNova-Regular" font-size="15.7" fill="#FFE499" transform="matrix(1.00, 0.00, -0.00, -1.00, 246.9, 92.0)">g</text><text xml:space="preserve" font-family="ProximaNova-Regular" font-size="15.7" fill="#FFE499" transform="matrix(1.00, 0.00, -0.00, -1.00, 255.9, 92.0)">n</text><text xml:space="preserve" font-family="ProximaNova-Regular" font-size="15.7" fill="#FFE499" transform="matrix(1.00, 0.00, -0.00, -1.00, 264.5, 92.0)">s</text><text xml:space="preserve" font-family="ProximaNova-Regular" font-size="15.7" fill="#FFE499" transform="matrix(1.00, 0.00, -0.00, -1.00, 271.8, 92.0)">,</text><text xml:space="preserve" font-family="ProximaNova-Regular" font-size="15.7" fill="#FFE499" transform="matrix(1.00, 0.00, -0.00, -1.00, 275.4, 92.0)"> </text><text xml:space="preserve" font-family="ProximaNova-Regular" font-size="15.7" fill="#FFE499" transform="matrix(1.00, 0.00, -0.00, -1.00, 279.5, 92.0)">t</text><text xml:space="preserve" font-family="ProximaNova-Regular" font-size="15.7" fill="#FFE499" transform="matrix(1.00, 0.00, -0.00, -1.00, 284.1, 92.0)">o</text><text xml:space="preserve" font-family="ProximaNova-Regular" font-size="15.7" fill="#FFE499" transform="matrix(1.00, 0.00, -0.00, -1.00, 293.0, 92.0)">-</text><text xml:space="preserve" font-family="ProximaNova-Regular" font-size="15.7" fill="#FFE499" transform="matrix(1.00, 0.00, -0.00, -1.00, 297.7, 92.0)">d</text><text xml:space="preserve" font-family="ProximaNova-Regular" font-size="15.7" fill="#FFE499" transform="matrix(1.00, 0.00, -0.00, -1.00, 306.7, 92.0)">o</text><text xml:space="preserve" font-family="ProximaNova-Regular" font-size="15.7" fill="#FFE499" transform="matrix(1.00, 0.00, -0.00, -1.00, 315.7, 92.0)"> </text><text xml:space="preserve" font-family="ProximaNova-Regular" font-size="15.7" fill="#FFE499" transform="matrix(1.00, 0.00, -0.00, -1.00, 319.8, 92.0)">l</text><text xml:space="preserve" font-family="ProximaNova-Regular" font-size="15.7" fill="#FFE499" transform="matrix(1.00, 0.00, -0.00, -1.00, 323.3, 92.0)">i</text><text xml:space="preserve" font-family="ProximaNova-Regular" font-size="15.7" fill="#FFE499" transform="matrix(1.00, 0.00, -0.00, -1.00, 326.8, 92.0)">s</text><text xml:space="preserve" font-family="ProximaNova-Regular" font-size="15.7" fill="#FFE499" transform="matrix(1.00, 0.00, -0.00, -1.00, 334.1, 92.0)">t</text><text xml:space="preserve" font-family="ProximaNova-Regular" font-size="15.7" fill="#FFE499" transform="matrix(1.00, 0.00, -0.00, -1.00, 338.7, 92.0)">s</text><text xml:space="preserve" font-family="ProximaNova-Regular" font-size="15.7" fill="#FFE499" transform="matrix(1.00, 0.00, -0.00, -1.00, 346.0, 92.0)">)</text><text xml:space="preserve" font-family="ProximaNova-Regular" font-size="15.7" fill="#FFE499" transform="matrix(1.00, 0.00, -0.00, -1.00, 349.9, 92.0)"> </text><text xml:space="preserve" font-family="ProximaNova-Regular" font-size="15.7" fill="#FFE499" transform="matrix(1.00, 0.00, -0.00, -1.00, 50.0, 57.0)">“</text><text xml:space="preserve" font-family="ProximaNova-Regular" font-size="15.7" fill="#FFE499" transform="matrix(1.00, 0.00, -0.00, -1.00, 54.5, 57.0)">A</text><text xml:space="preserve" font-family="ProximaNova-Regular" font-size="15.7" fill="#FFE499" transform="matrix(1.00, 0.00, -0.00, -1.00, 64.8, 57.0)">d</text><text xml:space="preserve" font-family="ProximaNova-Regular" font-size="15.7" fill="#FFE499" transform="matrix(1.00, 0.00, -0.00, -1.00, 73.8, 57.0)">m</text><text xml:space="preserve" font-family="ProximaNova-Regular" font-size="15.7" fill="#FFE499" transform="matrix(1.00, 0.00, -0.00, -1.00, 86.4, 57.0)">i</text><text xml:space="preserve" font-family="ProximaNova-Regular" font-size="15.7" fill="#FFE499" transform="matrix(1.00, 0.00, -0.00, -1.00, 90.0, 57.0)">s</text><text xml:space="preserve" font-family="ProximaNova-Regular" font-size="15.7" fill="#FFE499" transform="matrix(1.00, 0.00, -0.00, -1.00, 97.2, 57.0)">s</text><text xml:space="preserve" font-family="ProximaNova-Regular" font-size="15.7" fill="#FFE499" transform="matrix(1.00, 0.00, -0.00, -1.00, 104.5, 57.0)">i</text><text xml:space="preserve" font-family="ProximaNova-Regular" font-size="15.7" fill="#FFE499" transform="matrix(1.00, 0.00, -0.00, -1.00, 108.1, 57.0)">o</text><text xml:space="preserve" font-family="ProximaNova-Regular" font-size="15.7" fill="#FFE499" transform="matrix(1.00, 0.00, -0.00, -1.00, 117.0, 57.0)">n</text><text xml:space="preserve" font-family="ProximaNova-Regular" font-size="15.7" fill="#FFE499" transform="matrix(1.00, 0.00, -0.00, -1.00, 125.7, 57.0)">s</text><text xml:space="preserve" font-family="ProximaNova-Regular" font-size="15.7" fill="#FFE499" transform="matrix(1.00, 0.00, -0.00, -1.00, 132.9, 57.0)"> </text><text xml:space="preserve" font-family="ProximaNova-Regular" font-size="15.7" fill="#FFE499" transform="matrix(1.00, 0.00, -0.00, -1.00, 137.0, 57.0)">g</text><text xml:space="preserve" font-family="ProximaNova-Regular" font-size="15.7" fill="#FFE499" transform="matrix(1.00, 0.00, -0.00, -1.00, 146.0, 57.0)">u</text><text xml:space="preserve" font-family="ProximaNova-Regular" font-size="15.7" fill="#FFE499" transform="matrix(1.00, 0.00, -0.00, -1.00, 154.6, 57.0)">i</text><text xml:space="preserve" font-family="ProximaNova-Regular" font-size="15.7" fill="#FFE499" transform="matrix(1.00, 0.00, -0.00, -1.00, 158.1, 57.0)">d</text><text xml:space="preserve" font-family="ProximaNova-Regular" font-size="15.7" fill="#FFE499" transform="matrix(1.00, 0.00, -0.00, -1.00, 167.2, 57.0)">e</text><text xml:space="preserve" font-family="ProximaNova-Regular" font-size="15.7" fill="#FFE499" transform="matrix(1.00, 0.00, -0.00, -1.00, 175.9, 57.0)">”</text><text xml:space="preserve" font-family="ProximaNova-Regular" font-size="15.7" fill="#FFE499" transform="matrix(1.00, 0.00, -0.00, -1.00, 182.0, 57.0)"> </text><text xml:space="preserve" font-family="ProximaNova-Regular" font-size="15.7" fill="#FFE499" transform="matrix(1.00, 0.00, -0.00, -1.00, 186.1, 57.0)">v</text><text xml:space="preserve" font-family="ProximaNova-Regular" font-size="15.7" fill="#FFE499" transform="matrix(1.00, 0.00, -0.00, -1.00, 193.8, 57.0)"> </text><text xml:space="preserve" font-family="ProximaNova-Regular" font-size="15.7" fill="#FFE499" transform="matrix(1.00, 0.00, -0.00, -1.00, 197.8, 57.0)">“</text><text xml:space="preserve" font-family="ProximaNova-Regular" font-size="15.7" fill="#FFE499" transform="matrix(1.00, 0.00, -0.00, -1.00, 203.9, 57.0)">t</text><text xml:space="preserve" font-family="ProximaNova-Regular" font-size="15.7" fill="#FFE499" transform="matrix(1.00, 0.00, -0.00, -1.00, 208.5, 57.0)">o</text><text xml:space="preserve" font-family="ProximaNova-Regular" font-size="15.7" fill="#FFE499" transform="matrix(1.00, 0.00, -0.00, -1.00, 217.5, 57.0)">-</text><text xml:space="preserve" font-family="ProximaNova-Regular" font-size="15.7" fill="#FFE499" transform="matrix(1.00, 0.00, -0.00, -1.00, 222.2, 57.0)">d</text><text xml:space="preserve" font-family="ProximaNova-Regular" font-size="15.7" fill="#FFE499" transform="matrix(1.00, 0.00, -0.00, -1.00, 231.2, 57.0)">o</text><text xml:space="preserve" font-family="ProximaNova-Regular" font-size="15.7" fill="#FFE499" transform="matrix(1.00, 0.00, -0.00, -1.00, 240.1, 57.0)"> </text><text xml:space="preserve" font-family="ProximaNova-Regular" font-size="15.7" fill="#FFE499" transform="matrix(1.00, 0.00, -0.00, -1.00, 244.2, 57.0)">l</text><text xml:space="preserve" font-family="ProximaNova-Regular" font-size="15.7" fill="#FFE499" transform="matrix(1.00, 0.00, -0.00, -1.00, 247.7, 57.0)">i</text><text xml:space="preserve" font-family="ProximaNova-Regular" font-size="15.7" fill="#FFE499" transform="matrix(1.00, 0.00, -0.00, -1.00, 251.2, 57.0)">s</text><text xml:space="preserve" font-family="ProximaNova-Regular" font-size="15.7" fill="#FFE499" transform="matrix(1.00, 0.00, -0.00, -1.00, 258.5, 57.0)">t</text><text xml:space="preserve" font-family="ProximaNova-Regular" font-size="15.7" fill="#FFE499" transform="matrix(1.00, 0.00, -0.00, -1.00, 263.1, 57.0)">”</text></g></svg>