<?xml version="1.0" encoding="UTF-8"?><svg xmlns="http://www.w3.org/2000/svg" xmlns:xlink="http://www.w3.org/1999/xlink" clip-rule="evenodd" stroke-miterlimit="4.00" viewBox="0 0 720 405"><desc>SVG generated by Keynote</desc><defs></defs><g transform="matrix(1.00, 0.00, -0.00, -1.00, 0.0, 405.0)"><path d="M 0.0 0.0 L 720.0 0.0 L 720.0 405.0 L 0.0 405.0 Z M 0.0 0.0 " fill="#212121"></path><g><clipPath id="clip-76"><path d="M 0.0 15.0 L 720.0 15.0 L 720.0 0.0 L 0.0 0.0 Z M 0.0 14.6 "></path></clipPath><g clip-path="url(#clip-76)"><image xlink:href="../../F9151A63-6472-4580-9350-F8B065CF0AEF/assets/E727F7411E2471EE462B064648A9C275.jpeg" width="721.00" height="26.00" transform="matrix(1.00, 0.00, -0.00, -1.04, 0.0, 27.0)"></image></g></g><text xml:space="preserve" font-family="ProximaNova-Regular" font-size="25.8" fill="#FFAB40" transform="matrix(1.00, 0.00, -0.00, -1.00, 32.0, 338.0)">P</text><text xml:space="preserve" font-family="ProximaNova-Regular" font-size="25.8" fill="#FFAB40" transform="matrix(1.00, 0.00, -0.00, -1.00, 47.1, 338.0)">R</text><text xml:space="preserve" font-family="ProximaNova-Regular" font-size="25.8" fill="#FFAB40" transform="matrix(1.00, 0.00, -0.00, -1.00, 62.8, 338.0)">O</text><text xml:space="preserve" font-family="ProximaNova-Regular" font-size="25.8" fill="#FFAB40" transform="matrix(1.00, 0.00, -0.00, -1.00, 81.8, 338.0)">T</text><text xml:space="preserve" font-family="ProximaNova-Regular" font-size="25.8" fill="#FFAB40" transform="matrix(1.00, 0.00, -0.00, -1.00, 95.8, 338.0)">O</text><text xml:space="preserve" font-family="ProximaNova-Regular" font-size="25.8" fill="#FFAB40" transform="matrix(1.00, 0.00, -0.00, -1.00, 114.8, 338.0)">T</text><text xml:space="preserve" font-family="ProximaNova-Regular" font-size="25.8" fill="#FFAB40" transform="matrix(1.00, 0.00, -0.00, -1.00, 129.5, 338.0)">Y</text><text xml:space="preserve" font-family="ProximaNova-Regular" font-size="25.8" fill="#FFAB40" transform="matrix(1.00, 0.00, -0.00, -1.00, 145.6, 338.0)">P</text><text xml:space="preserve" font-family="ProximaNova-Regular" font-size="25.8" fill="#FFAB40" transform="matrix(1.00, 0.00, -0.00, -1.00, 160.7, 338.0)">E</text><text xml:space="preserve" font-family="ProximaNova-Regular" font-size="18.0" fill="#4DD0E0" transform="matrix(1.00, 0.00, -0.00, -1.00, 32.0, 289.0)">h</text><text xml:space="preserve" font-family="ProximaNova-Regular" font-size="18.0" fill="#4DD0E0" transform="matrix(1.00, 0.00, -0.00, -1.00, 41.9, 289.0)">t</text><text xml:space="preserve" font-family="ProximaNova-Regular" font-size="18.0" fill="#4DD0E0" transform="matrix(1.00, 0.00, -0.00, -1.00, 47.2, 289.0)">t</text><text xml:space="preserve" font-family="ProximaNova-Regular" font-size="18.0" fill="#4DD0E0" transform="matrix(1.00, 0.00, -0.00, -1.00, 52.5, 289.0)">p</text><text xml:space="preserve" font-family="ProximaNova-Regular" font-size="18.0" fill="#4DD0E0" transform="matrix(1.00, 0.00, -0.00, -1.00, 62.8, 289.0)">s</text><text xml:space="preserve" font-family="ProximaNova-Regular" font-size="18.0" fill="#4DD0E0" transform="matrix(1.00, 0.00, -0.00, -1.00, 71.2, 289.0)">:</text><text xml:space="preserve" font-family="ProximaNova-Regular" font-size="18.0" fill="#4DD0E0" transform="matrix(1.00, 0.00, -0.00, -1.00, 75.2, 289.0)">/</text><text xml:space="preserve" font-family="ProximaNova-Regular" font-size="18.0" fill="#4DD0E0" transform="matrix(1.00, 0.00, -0.00, -1.00, 80.6, 289.0)">/</text><text xml:space="preserve" font-family="ProximaNova-Regular" font-size="18.0" fill="#4DD0E0" transform="matrix(1.00, 0.00, -0.00, -1.00, 85.9, 289.0)">m</text><text xml:space="preserve" font-family="ProximaNova-Regular" font-size="18.0" fill="#4DD0E0" transform="matrix(1.00, 0.00, -0.00, -1.00, 100.4, 289.0)">a</text><text xml:space="preserve" font-family="ProximaNova-Regular" font-size="18.0" fill="#4DD0E0" transform="matrix(1.00, 0.00, -0.00, -1.00, 109.9, 289.0)">r</text><text xml:space="preserve" font-family="ProximaNova-Regular" font-size="18.0" fill="#4DD0E0" transform="matrix(1.00, 0.00, -0.00, -1.00, 115.9, 289.0)">v</text><text xml:space="preserve" font-family="ProximaNova-Regular" font-size="18.0" fill="#4DD0E0" transform="matrix(1.00, 0.00, -0.00, -1.00, 124.7, 289.0)">e</text><text xml:space="preserve" font-family="ProximaNova-Regular" font-size="18.0" fill="#4DD0E0" transform="matrix(1.00, 0.00, -0.00, -1.00, 134.8, 289.0)">l</text><text xml:space="preserve" font-family="ProximaNova-Regular" font-size="18.0" fill="#4DD0E0" transform="matrix(1.00, 0.00, -0.00, -1.00, 138.9, 289.0)">a</text><text xml:space="preserve" font-family="ProximaNova-Regular" font-size="18.0" fill="#4DD0E0" transform="matrix(1.00, 0.00, -0.00, -1.00, 148.4, 289.0)">p</text><text xml:space="preserve" font-family="ProximaNova-Regular" font-size="18.0" fill="#4DD0E0" transform="matrix(1.00, 0.00, -0.00, -1.00, 158.7, 289.0)">p</text><text xml:space="preserve" font-family="ProximaNova-Regular" font-size="18.0" fill="#4DD0E0" transform="matrix(1.00, 0.00, -0.00, -1.00, 168.9, 289.0)">.</text><text xml:space="preserve" font-family="ProximaNova-Regular" font-size="18.0" fill="#4DD0E0" transform="matrix(1.00, 0.00, -0.00, -1.00, 172.9, 289.0)">c</text><text xml:space="preserve" font-family="ProximaNova-Regular" font-size="18.0" fill="#4DD0E0" transform="matrix(1.00, 0.00, -0.00, -1.00, 181.8, 289.0)">o</text><text xml:space="preserve" font-family="ProximaNova-Regular" font-size="18.0" fill="#4DD0E0" transform="matrix(1.00, 0.00, -0.00, -1.00, 192.1, 289.0)">m</text><text xml:space="preserve" font-family="ProximaNova-Regular" font-size="18.0" fill="#4DD0E0" transform="matrix(1.00, 0.00, -0.00, -1.00, 206.7, 289.0)">/</text><text xml:space="preserve" font-family="ProximaNova-Regular" font-size="18.0" fill="#4DD0E0" transform="matrix(1.00, 0.00, -0.00, -1.00, 212.0, 289.0)">g</text><text xml:space="preserve" font-family="ProximaNova-Regular" font-size="18.0" fill="#4DD0E0" transform="matrix(1.00, 0.00, -0.00, -1.00, 223.2, 289.0)">j</text><text xml:space="preserve" font-family="ProximaNova-Regular" font-size="18.0" fill="#4DD0E0" transform="matrix(1.00, 0.00, -0.00, -1.00, 227.2, 289.0)">g</text><text xml:space="preserve" font-family="ProximaNova-Regular" font-size="18.0" fill="#4DD0E0" transform="matrix(1.00, 0.00, -0.00, -1.00, 237.6, 289.0)">d</text><text xml:space="preserve" font-family="ProximaNova-Regular" font-size="18.0" fill="#4DD0E0" transform="matrix(1.00, 0.00, -0.00, -1.00, 247.9, 289.0)">i</text><text xml:space="preserve" font-family="ProximaNova-Regular" font-size="18.0" fill="#4DD0E0" transform="matrix(1.00, 0.00, -0.00, -1.00, 252.0, 289.0)">e</text><text xml:space="preserve" font-family="ProximaNova-Regular" font-size="18.0" fill="#EDFF41" transform="matrix(1.00, 0.00, -0.00, -1.00, 262.1, 289.0)"> </text><g><clipPath id="clip-77"><path d="M 30.7 285.4 L 261.8 285.4 L 261.8 287.8 L 30.7 287.8 Z M 30.7 285.4 "></path></clipPath><g clip-path="url(#clip-77)"><path d="M 7.2 27.6 L 237.3 27.6 " fill="none" stroke="#4DD0E0" stroke-width="0.36" stroke-miterlimit="0.00" transform="matrix(1.00, 0.00, 0.00, -1.00, 24.5, 314.3)"></path></g></g></g></svg>