<?xml version="1.0" encoding="UTF-8"?><svg xmlns="http://www.w3.org/2000/svg" xmlns:xlink="http://www.w3.org/1999/xlink" clip-rule="evenodd" stroke-miterlimit="4.00" viewBox="0 0 1024 768"><desc>SVG generated by Keynote</desc><defs></defs><g transform="matrix(1.00, 0.00, -0.00, -1.00, 0.0, 768.0)"><path d="M 0.0 0.0 L 1024.0 0.0 L 1024.0 768.0 L 0.0 768.0 Z M 0.0 0.0 " fill="#000000"></path><g opacity="0.20"><g><clipPath id="clip-42"><path d="M 0.0 0.0 L 1024.0 0.0 L 1024.0 768.0 L 0.0 768.0 Z M 0.0 0.0 "></path></clipPath><g clip-path="url(#clip-42)"><image xlink:href="238AE559E2B33AA5CE9772DE309EC162.jpeg" width="807.00" height="768.00" transform="matrix(1.42, 0.00, -0.00, -1.42, -61.0, 792.0)"></image></g></g></g><text xml:space="preserve" font-family="Avenir-Light" font-size="45.0" fill="#FEFFFF" transform="matrix(1.00, 0.00, -0.00, -1.00, 56.0, 644.0)">H</text><text xml:space="preserve" font-family="Avenir-Light" font-size="45.0" fill="#FEFFFF" transform="matrix(1.00, 0.00, -0.00, -1.00, 95.7, 644.0)">I</text><text xml:space="preserve" font-family="Avenir-Light" font-size="45.0" fill="#FEFFFF" transform="matrix(1.00, 0.00, -0.00, -1.00, 114.6, 644.0)">G</text><text xml:space="preserve" font-family="Avenir-Light" font-size="45.0" fill="#FEFFFF" transform="matrix(1.00, 0.00, -0.00, -1.00, 156.8, 644.0)">H</text><text xml:space="preserve" font-family="Avenir-Light" font-size="45.0" fill="#FEFFFF" transform="matrix(1.00, 0.00, -0.00, -1.00, 196.5, 644.0)">-</text><text xml:space="preserve" font-family="Avenir-Light" font-size="45.0" fill="#FEFFFF" transform="matrix(1.00, 0.00, -0.00, -1.00, 218.7, 644.0)">L</text><text xml:space="preserve" font-family="Avenir-Light" font-size="45.0" fill="#FEFFFF" transform="matrix(1.00, 0.00, -0.00, -1.00, 248.4, 644.0)">E</text><text xml:space="preserve" font-family="Avenir-Light" font-size="45.0" fill="#FEFFFF" transform="matrix(1.00, 0.00, -0.00, -1.00, 282.3, 644.0)">V</text><text xml:space="preserve" font-family="Avenir-Light" font-size="45.0" fill="#FEFFFF" transform="matrix(1.00, 0.00, -0.00, -1.00, 316.1, 644.0)">E</text><text xml:space="preserve" font-family="Avenir-Light" font-size="45.0" fill="#FEFFFF" transform="matrix(1.00, 0.00, -0.00, -1.00, 350.0, 644.0)">L</text><text xml:space="preserve" font-family="Avenir-Light" font-size="45.0" fill="#FEFFFF" transform="matrix(1.00, 0.00, -0.00, -1.00, 379.7, 644.0)"> </text><text xml:space="preserve" font-family="Avenir-Light" font-size="45.0" fill="#FEFFFF" transform="matrix(1.00, 0.00, -0.00, -1.00, 398.6, 644.0)">U</text><text xml:space="preserve" font-family="Avenir-Light" font-size="45.0" fill="#FEFFFF" transform="matrix(1.00, 0.00, -0.00, -1.00, 436.6, 644.0)">S</text><text xml:space="preserve" font-family="Avenir-Light" font-size="45.0" fill="#FEFFFF" transform="matrix(1.00, 0.00, -0.00, -1.00, 468.8, 644.0)">E</text><text xml:space="preserve" font-family="Avenir-Light" font-size="45.0" fill="#FEFFFF" transform="matrix(1.00, 0.00, -0.00, -1.00, 502.7, 644.0)">R</text><text xml:space="preserve" font-family="Avenir-Light" font-size="45.0" fill="#FEFFFF" transform="matrix(1.00, 0.00, -0.00, -1.00, 536.6, 644.0)"> </text><text xml:space="preserve" font-family="Avenir-Light" font-size="45.0" fill="#FEFFFF" transform="matrix(1.00, 0.00, -0.00, -1.00, 555.5, 644.0)">F</text><text xml:space="preserve" font-family="Avenir-Light" font-size="45.0" fill="#FEFFFF" transform="matrix(1.00, 0.00, -0.00, -1.00, 587.7, 644.0)">L</text><text xml:space="preserve" font-family="Avenir-Light" font-size="45.0" fill="#FEFFFF" transform="matrix(1.00, 0.00, -0.00, -1.00, 617.4, 644.0)">O</text><text xml:space="preserve" font-family="Avenir-Light" font-size="45.0" fill="#FEFFFF" transform="matrix(1.00, 0.00, -0.00, -1.00, 662.1, 644.0)">W</text><text xml:space="preserve" font-family="Avenir-Book" font-size="24.0" fill="#55D6FF" transform="matrix(1.00, 0.00, -0.00, -1.00, 57.0, 699.0)">M</text><text xml:space="preserve" font-family="Avenir-Book" font-size="24.0" fill="#55D6FF" transform="matrix(1.00, 0.00, -0.00, -1.00, 82.2, 699.0)">I</text><text xml:space="preserve" font-family="Avenir-Book" font-size="24.0" fill="#55D6FF" transform="matrix(1.00, 0.00, -0.00, -1.00, 92.4, 699.0)">N</text><text xml:space="preserve" font-family="Avenir-Book" font-size="24.0" fill="#55D6FF" transform="matrix(1.00, 0.00, -0.00, -1.00, 114.9, 699.0)">I</text><text xml:space="preserve" font-family="Avenir-Book" font-size="24.0" fill="#55D6FF" transform="matrix(1.00, 0.00, -0.00, -1.00, 125.1, 699.0)">M</text><text xml:space="preserve" font-family="Avenir-Book" font-size="24.0" fill="#55D6FF" transform="matrix(1.00, 0.00, -0.00, -1.00, 150.3, 699.0)">U</text><text xml:space="preserve" font-family="Avenir-Book" font-size="24.0" fill="#55D6FF" transform="matrix(1.00, 0.00, -0.00, -1.00, 170.6, 699.0)">M</text><text xml:space="preserve" font-family="Avenir-Book" font-size="24.0" fill="#55D6FF" transform="matrix(1.00, 0.00, -0.00, -1.00, 195.8, 699.0)"> </text><text xml:space="preserve" font-family="Avenir-Book" font-size="24.0" fill="#55D6FF" transform="matrix(1.00, 0.00, -0.00, -1.00, 206.3, 699.0)">V</text><text xml:space="preserve" font-family="Avenir-Book" font-size="24.0" fill="#55D6FF" transform="matrix(1.00, 0.00, -0.00, -1.00, 224.8, 699.0)">I</text><text xml:space="preserve" font-family="Avenir-Book" font-size="24.0" fill="#55D6FF" transform="matrix(1.00, 0.00, -0.00, -1.00, 235.0, 699.0)">A</text><text xml:space="preserve" font-family="Avenir-Book" font-size="24.0" fill="#55D6FF" transform="matrix(1.00, 0.00, -0.00, -1.00, 255.3, 699.0)">B</text><text xml:space="preserve" font-family="Avenir-Book" font-size="24.0" fill="#55D6FF" transform="matrix(1.00, 0.00, -0.00, -1.00, 274.2, 699.0)">L</text><text xml:space="preserve" font-family="Avenir-Book" font-size="24.0" fill="#55D6FF" transform="matrix(1.00, 0.00, -0.00, -1.00, 290.1, 699.0)">E</text><text xml:space="preserve" font-family="Avenir-Book" font-size="24.0" fill="#55D6FF" transform="matrix(1.00, 0.00, -0.00, -1.00, 308.1, 699.0)"> </text><text xml:space="preserve" font-family="Avenir-Book" font-size="24.0" fill="#55D6FF" transform="matrix(1.00, 0.00, -0.00, -1.00, 318.6, 699.0)">P</text><text xml:space="preserve" font-family="Avenir-Book" font-size="24.0" fill="#55D6FF" transform="matrix(1.00, 0.00, -0.00, -1.00, 336.3, 699.0)">R</text><text xml:space="preserve" font-family="Avenir-Book" font-size="24.0" fill="#55D6FF" transform="matrix(1.00, 0.00, -0.00, -1.00, 354.3, 699.0)">O</text><text xml:space="preserve" font-family="Avenir-Book" font-size="24.0" fill="#55D6FF" transform="matrix(1.00, 0.00, -0.00, -1.00, 378.2, 699.0)">D</text><text xml:space="preserve" font-family="Avenir-Book" font-size="24.0" fill="#55D6FF" transform="matrix(1.00, 0.00, -0.00, -1.00, 399.8, 699.0)">U</text><text xml:space="preserve" font-family="Avenir-Book" font-size="24.0" fill="#55D6FF" transform="matrix(1.00, 0.00, -0.00, -1.00, 420.1, 699.0)">C</text><text xml:space="preserve" font-family="Avenir-Book" font-size="24.0" fill="#55D6FF" transform="matrix(1.00, 0.00, -0.00, -1.00, 440.9, 699.0)">T</text><text xml:space="preserve" font-family="Avenir-Light" font-size="40.0" fill="#FEFFFF" transform="matrix(1.00, 0.00, -0.00, -1.00, 297.0, 469.0)">C</text><text xml:space="preserve" font-family="Avenir-Light" font-size="40.0" fill="#FEFFFF" transform="matrix(1.00, 0.00, -0.00, -1.00, 325.2, 469.0)">O</text><text xml:space="preserve" font-family="Avenir-Light" font-size="40.0" fill="#FEFFFF" transform="matrix(1.00, 0.00, -0.00, -1.00, 358.5, 469.0)">N</text><text xml:space="preserve" font-family="Avenir-Light" font-size="40.0" fill="#FEFFFF" transform="matrix(1.00, 0.00, -0.00, -1.00, 389.6, 469.0)">N</text><text xml:space="preserve" font-family="Avenir-Light" font-size="40.0" fill="#FEFFFF" transform="matrix(1.00, 0.00, -0.00, -1.00, 420.8, 469.0)">E</text><text xml:space="preserve" font-family="Avenir-Light" font-size="40.0" fill="#FEFFFF" transform="matrix(1.00, 0.00, -0.00, -1.00, 444.5, 469.0)">C</text><text xml:space="preserve" font-family="Avenir-Light" font-size="40.0" fill="#FEFFFF" transform="matrix(1.00, 0.00, -0.00, -1.00, 472.6, 469.0)">T</text><text xml:space="preserve" font-family="Avenir-Light" font-size="40.0" fill="#FEFFFF" transform="matrix(1.00, 0.00, -0.00, -1.00, 495.6, 469.0)"> </text><text xml:space="preserve" font-family="Avenir-Light" font-size="40.0" fill="#FEFFFF" transform="matrix(1.00, 0.00, -0.00, -1.00, 506.0, 469.0)">A</text><text xml:space="preserve" font-family="Avenir-Light" font-size="40.0" fill="#FEFFFF" transform="matrix(1.00, 0.00, -0.00, -1.00, 533.4, 469.0)">C</text><text xml:space="preserve" font-family="Avenir-Light" font-size="40.0" fill="#FEFFFF" transform="matrix(1.00, 0.00, -0.00, -1.00, 561.6, 469.0)">C</text><text xml:space="preserve" font-family="Avenir-Light" font-size="40.0" fill="#FEFFFF" transform="matrix(1.00, 0.00, -0.00, -1.00, 589.7, 469.0)">O</text><text xml:space="preserve" font-family="Avenir-Light" font-size="40.0" fill="#FEFFFF" transform="matrix(1.00, 0.00, -0.00, -1.00, 623.1, 469.0)">U</text><text xml:space="preserve" font-family="Avenir-Light" font-size="40.0" fill="#FEFFFF" transform="matrix(1.00, 0.00, -0.00, -1.00, 650.4, 469.0)">N</text><text xml:space="preserve" font-family="Avenir-Light" font-size="40.0" fill="#FEFFFF" transform="matrix(1.00, 0.00, -0.00, -1.00, 681.6, 469.0)">T</text><text xml:space="preserve" font-family="Avenir-Light" font-size="40.0" fill="#FEFFFF" transform="matrix(1.00, 0.00, -0.00, -1.00, 704.5, 469.0)">S</text><text xml:space="preserve" font-family="Avenir-Light" font-size="40.0" fill="#FEFFFF" transform="matrix(1.00, 0.00, -0.00, -1.00, 283.0, 312.0)">C</text><text xml:space="preserve" font-family="Avenir-Light" font-size="40.0" fill="#FEFFFF" transform="matrix(1.00, 0.00, -0.00, -1.00, 311.2, 312.0)">R</text><text xml:space="preserve" font-family="Avenir-Light" font-size="40.0" fill="#FEFFFF" transform="matrix(1.00, 0.00, -0.00, -1.00, 334.9, 312.0)">E</text><text xml:space="preserve" font-family="Avenir-Light" font-size="40.0" fill="#FEFFFF" transform="matrix(1.00, 0.00, -0.00, -1.00, 358.6, 312.0)">A</text><text xml:space="preserve" font-family="Avenir-Light" font-size="40.0" fill="#FEFFFF" transform="matrix(1.00, 0.00, -0.00, -1.00, 383.3, 312.0)">T</text><text xml:space="preserve" font-family="Avenir-Light" font-size="40.0" fill="#FEFFFF" transform="matrix(1.00, 0.00, -0.00, -1.00, 406.2, 312.0)">E</text><text xml:space="preserve" font-family="Avenir-Light" font-size="40.0" fill="#FEFFFF" transform="matrix(1.00, 0.00, -0.00, -1.00, 430.0, 312.0)"> </text><text xml:space="preserve" font-family="Avenir-Light" font-size="40.0" fill="#FEFFFF" transform="matrix(1.00, 0.00, -0.00, -1.00, 440.4, 312.0)">C</text><text xml:space="preserve" font-family="Avenir-Light" font-size="40.0" fill="#FEFFFF" transform="matrix(1.00, 0.00, -0.00, -1.00, 468.5, 312.0)">U</text><text xml:space="preserve" font-family="Avenir-Light" font-size="40.0" fill="#FEFFFF" transform="matrix(1.00, 0.00, -0.00, -1.00, 495.9, 312.0)">S</text><text xml:space="preserve" font-family="Avenir-Light" font-size="40.0" fill="#FEFFFF" transform="matrix(1.00, 0.00, -0.00, -1.00, 518.1, 312.0)">T</text><text xml:space="preserve" font-family="Avenir-Light" font-size="40.0" fill="#FEFFFF" transform="matrix(1.00, 0.00, -0.00, -1.00, 541.1, 312.0)">O</text><text xml:space="preserve" font-family="Avenir-Light" font-size="40.0" fill="#FEFFFF" transform="matrix(1.00, 0.00, -0.00, -1.00, 574.4, 312.0)">M</text><text xml:space="preserve" font-family="Avenir-Light" font-size="40.0" fill="#FEFFFF" transform="matrix(1.00, 0.00, -0.00, -1.00, 610.0, 312.0)"> </text><text xml:space="preserve" font-family="Avenir-Light" font-size="40.0" fill="#FEFFFF" transform="matrix(1.00, 0.00, -0.00, -1.00, 620.4, 312.0)">F</text><text xml:space="preserve" font-family="Avenir-Light" font-size="40.0" fill="#FEFFFF" transform="matrix(1.00, 0.00, -0.00, -1.00, 642.6, 312.0)">E</text><text xml:space="preserve" font-family="Avenir-Light" font-size="40.0" fill="#FEFFFF" transform="matrix(1.00, 0.00, -0.00, -1.00, 666.4, 312.0)">E</text><text xml:space="preserve" font-family="Avenir-Light" font-size="40.0" fill="#FEFFFF" transform="matrix(1.00, 0.00, -0.00, -1.00, 690.1, 312.0)">D</text><text xml:space="preserve" font-family="Avenir-Light" font-size="40.0" fill="#FEFFFF" transform="matrix(1.00, 0.00, -0.00, -1.00, 719.7, 312.0)">S</text><text xml:space="preserve" font-family="Avenir-Light" font-size="40.0" fill="#FEFFFF" transform="matrix(1.00, 0.00, -0.00, -1.00, 429.0, 156.0)">B</text><text xml:space="preserve" font-family="Avenir-Light" font-size="40.0" fill="#FEFFFF" transform="matrix(1.00, 0.00, -0.00, -1.00, 454.2, 156.0)">R</text><text xml:space="preserve" font-family="Avenir-Light" font-size="40.0" fill="#FEFFFF" transform="matrix(1.00, 0.00, -0.00, -1.00, 477.9, 156.0)">O</text><text xml:space="preserve" font-family="Avenir-Light" font-size="40.0" fill="#FEFFFF" transform="matrix(1.00, 0.00, -0.00, -1.00, 511.3, 156.0)">W</text><text xml:space="preserve" font-family="Avenir-Light" font-size="40.0" fill="#FEFFFF" transform="matrix(1.00, 0.00, -0.00, -1.00, 549.0, 156.0)">S</text><text xml:space="preserve" font-family="Avenir-Light" font-size="40.0" fill="#FEFFFF" transform="matrix(1.00, 0.00, -0.00, -1.00, 571.3, 156.0)">E</text><path d="M 0.0 0.0 L 40.4 0.0 L 41.4 0.0 " fill="none" stroke="#FEFFFE" stroke-width="2.00" transform="matrix(0.00, -1.00, -1.00, 0.00, 512.0, 428.4)"></path><path d="M 507.2 388.0 L 512.0 378.4 L 516.8 388.0 Z M 507.2 388.0 " fill="#FEFFFE"></path><path d="M 0.0 0.0 L 40.4 0.0 L 41.4 0.0 " fill="none" stroke="#FEFFFE" stroke-width="2.00" transform="matrix(0.00, -1.00, -1.00, 0.00, 512.0, 271.9)"></path><path d="M 507.2 231.5 L 512.0 221.9 L 516.8 231.5 Z M 507.2 231.5 " fill="#FEFFFE"></path><path d="M 0.0 0.0 L 467.0 0.0 L 467.0 76.0 L 0.0 76.0 Z M 0.0 0.0 " fill="none" stroke="#55D6FF" stroke-width="1.00" transform="matrix(1.00, 0.00, 0.00, -1.00, 278.5, 519.7)"></path><path d="M 0.0 0.0 L 507.1 0.0 L 507.1 76.0 L 0.0 76.0 Z M 0.0 0.0 " fill="none" stroke="#55D6FF" stroke-width="1.00" transform="matrix(1.00, 0.00, 0.00, -1.00, 258.4, 363.2)"></path><path d="M 0.0 0.0 L 207.2 0.0 L 207.2 76.0 L 0.0 76.0 Z M 0.0 0.0 " fill="none" stroke="#55D6FF" stroke-width="1.00" transform="matrix(1.00, 0.00, 0.00, -1.00, 408.4, 206.7)"></path></g></svg>