<?xml version="1.0" encoding="UTF-8"?><svg xmlns="http://www.w3.org/2000/svg" xmlns:xlink="http://www.w3.org/1999/xlink" clip-rule="evenodd" stroke-miterlimit="4.00" viewBox="0 0 1024 768"><desc>SVG generated by Keynote</desc><defs></defs><g transform="matrix(1.00, 0.00, -0.00, -1.00, 0.0, 768.0)"><path d="M 0.0 0.0 L 1024.0 0.0 L 1024.0 768.0 L 0.0 768.0 Z M 0.0 0.0 " fill="#000000"></path><text xml:space="preserve" font-family="Avenir-Light" font-size="45.0" fill="#FEFFFF" transform="matrix(1.00, 0.00, -0.00, -1.00, 56.0, 644.0)">U</text><text xml:space="preserve" font-family="Avenir-Light" font-size="45.0" fill="#FEFFFF" transform="matrix(1.00, 0.00, -0.00, -1.00, 94.0, 644.0)">S</text><text xml:space="preserve" font-family="Avenir-Light" font-size="45.0" fill="#FEFFFF" transform="matrix(1.00, 0.00, -0.00, -1.00, 126.2, 644.0)">A</text><text xml:space="preserve" font-family="Avenir-Light" font-size="45.0" fill="#FEFFFF" transform="matrix(1.00, 0.00, -0.00, -1.00, 164.2, 644.0)">G</text><text xml:space="preserve" font-family="Avenir-Light" font-size="45.0" fill="#FEFFFF" transform="matrix(1.00, 0.00, -0.00, -1.00, 206.4, 644.0)">E</text><text xml:space="preserve" font-family="Avenir-Light" font-size="45.0" fill="#FEFFFF" transform="matrix(1.00, 0.00, -0.00, -1.00, 240.3, 644.0)"> </text><text xml:space="preserve" font-family="Avenir-Light" font-size="45.0" fill="#FEFFFF" transform="matrix(1.00, 0.00, -0.00, -1.00, 56.0, 583.0)">H</text><text xml:space="preserve" font-family="Avenir-Light" font-size="45.0" fill="#FEFFFF" transform="matrix(1.00, 0.00, -0.00, -1.00, 95.7, 583.0)">I</text><text xml:space="preserve" font-family="Avenir-Light" font-size="45.0" fill="#FEFFFF" transform="matrix(1.00, 0.00, -0.00, -1.00, 114.6, 583.0)">G</text><text xml:space="preserve" font-family="Avenir-Light" font-size="45.0" fill="#FEFFFF" transform="matrix(1.00, 0.00, -0.00, -1.00, 156.8, 583.0)">H</text><text xml:space="preserve" font-family="Avenir-Light" font-size="45.0" fill="#FEFFFF" transform="matrix(1.00, 0.00, -0.00, -1.00, 196.5, 583.0)">L</text><text xml:space="preserve" font-family="Avenir-Light" font-size="45.0" fill="#FEFFFF" transform="matrix(1.00, 0.00, -0.00, -1.00, 226.2, 583.0)">I</text><text xml:space="preserve" font-family="Avenir-Light" font-size="45.0" fill="#FEFFFF" transform="matrix(1.00, 0.00, -0.00, -1.00, 245.1, 583.0)">G</text><text xml:space="preserve" font-family="Avenir-Light" font-size="45.0" fill="#FEFFFF" transform="matrix(1.00, 0.00, -0.00, -1.00, 287.3, 583.0)">H</text><text xml:space="preserve" font-family="Avenir-Light" font-size="45.0" fill="#FEFFFF" transform="matrix(1.00, 0.00, -0.00, -1.00, 327.0, 583.0)">T</text><text xml:space="preserve" font-family="Avenir-Light" font-size="45.0" fill="#FEFFFF" transform="matrix(1.00, 0.00, -0.00, -1.00, 360.0, 583.0)">S</text><text xml:space="preserve" font-family="Avenir-Light" font-size="26.5" fill="#636363" transform="matrix(1.00, 0.00, -0.00, -1.00, 56.0, 512.7)">•</text><text xml:space="preserve" font-family="Avenir-Light" font-size="29.4" fill="#FEFFFF" transform="matrix(1.00, 0.00, -0.00, -1.00, 86.0, 512.0)">8</text><text xml:space="preserve" font-family="Avenir-Light" font-size="29.4" fill="#FEFFFF" transform="matrix(1.00, 0.00, -0.00, -1.00, 101.3, 512.0)">3</text><text xml:space="preserve" font-family="Avenir-Light" font-size="29.4" fill="#FEFFFF" transform="matrix(1.00, 0.00, -0.00, -1.00, 116.6, 512.0)"> </text><text xml:space="preserve" font-family="Avenir-Light" font-size="29.4" fill="#FEFFFF" transform="matrix(1.00, 0.00, -0.00, -1.00, 124.2, 512.0)">p</text><text xml:space="preserve" font-family="Avenir-Light" font-size="29.4" fill="#FEFFFF" transform="matrix(1.00, 0.00, -0.00, -1.00, 142.2, 512.0)">a</text><text xml:space="preserve" font-family="Avenir-Light" font-size="29.4" fill="#FEFFFF" transform="matrix(1.00, 0.00, -0.00, -1.00, 157.4, 512.0)">r</text><text xml:space="preserve" font-family="Avenir-Light" font-size="29.4" fill="#FEFFFF" transform="matrix(1.00, 0.00, -0.00, -1.00, 167.2, 512.0)">t</text><text xml:space="preserve" font-family="Avenir-Light" font-size="29.4" fill="#FEFFFF" transform="matrix(1.00, 0.00, -0.00, -1.00, 177.1, 512.0)">i</text><text xml:space="preserve" font-family="Avenir-Light" font-size="29.4" fill="#FEFFFF" transform="matrix(1.00, 0.00, -0.00, -1.00, 184.1, 512.0)">c</text><text xml:space="preserve" font-family="Avenir-Light" font-size="29.4" fill="#FEFFFF" transform="matrix(1.00, 0.00, -0.00, -1.00, 198.2, 512.0)">i</text><text xml:space="preserve" font-family="Avenir-Light" font-size="29.4" fill="#FEFFFF" transform="matrix(1.00, 0.00, -0.00, -1.00, 205.3, 512.0)">p</text><text xml:space="preserve" font-family="Avenir-Light" font-size="29.4" fill="#FEFFFF" transform="matrix(1.00, 0.00, -0.00, -1.00, 223.3, 512.0)">a</text><text xml:space="preserve" font-family="Avenir-Light" font-size="29.4" fill="#FEFFFF" transform="matrix(1.00, 0.00, -0.00, -1.00, 238.5, 512.0)">n</text><text xml:space="preserve" font-family="Avenir-Light" font-size="29.4" fill="#FEFFFF" transform="matrix(1.00, 0.00, -0.00, -1.00, 254.9, 512.0)">t</text><text xml:space="preserve" font-family="Avenir-Light" font-size="29.4" fill="#FEFFFF" transform="matrix(1.00, 0.00, -0.00, -1.00, 264.7, 512.0)">s</text><text xml:space="preserve" font-family="Avenir-Light" font-size="29.4" fill="#FEFFFF" transform="matrix(1.00, 0.00, -0.00, -1.00, 277.2, 512.0)"> </text><text xml:space="preserve" font-family="Avenir-Light" font-size="26.5" fill="#636363" transform="matrix(1.00, 0.00, -0.00, -1.00, 56.0, 441.3)">•</text><text xml:space="preserve" font-family="Avenir-Light" font-size="29.4" fill="#FEFFFF" transform="matrix(1.00, 0.00, -0.00, -1.00, 86.0, 440.0)">A</text><text xml:space="preserve" font-family="Avenir-Light" font-size="29.4" fill="#FEFFFF" transform="matrix(1.00, 0.00, -0.00, -1.00, 106.1, 440.0)">g</text><text xml:space="preserve" font-family="Avenir-Light" font-size="29.4" fill="#FEFFFF" transform="matrix(1.00, 0.00, -0.00, -1.00, 124.1, 440.0)">e</text><text xml:space="preserve" font-family="Avenir-Light" font-size="29.4" fill="#FEFFFF" transform="matrix(1.00, 0.00, -0.00, -1.00, 140.4, 440.0)"> </text><text xml:space="preserve" font-family="Avenir-Light" font-size="29.4" fill="#FEFFFF" transform="matrix(1.00, 0.00, -0.00, -1.00, 148.1, 440.0)">r</text><text xml:space="preserve" font-family="Avenir-Light" font-size="29.4" fill="#FEFFFF" transform="matrix(1.00, 0.00, -0.00, -1.00, 157.9, 440.0)">a</text><text xml:space="preserve" font-family="Avenir-Light" font-size="29.4" fill="#FEFFFF" transform="matrix(1.00, 0.00, -0.00, -1.00, 173.1, 440.0)">n</text><text xml:space="preserve" font-family="Avenir-Light" font-size="29.4" fill="#FEFFFF" transform="matrix(1.00, 0.00, -0.00, -1.00, 189.5, 440.0)">g</text><text xml:space="preserve" font-family="Avenir-Light" font-size="29.4" fill="#FEFFFF" transform="matrix(1.00, 0.00, -0.00, -1.00, 207.5, 440.0)">e</text><text xml:space="preserve" font-family="Avenir-Light" font-size="29.4" fill="#FEFFFF" transform="matrix(1.00, 0.00, -0.00, -1.00, 223.8, 440.0)">:</text><text xml:space="preserve" font-family="Avenir-Light" font-size="29.4" fill="#FEFFFF" transform="matrix(1.00, 0.00, -0.00, -1.00, 231.4, 440.0)"> </text><text xml:space="preserve" font-family="Avenir-Light" font-size="29.4" fill="#FEFFFF" transform="matrix(1.00, 0.00, -0.00, -1.00, 239.1, 440.0)">1</text><text xml:space="preserve" font-family="Avenir-Light" font-size="29.4" fill="#FEFFFF" transform="matrix(1.00, 0.00, -0.00, -1.00, 254.4, 440.0)">8</text><text xml:space="preserve" font-family="Avenir-Light" font-size="29.4" fill="#FEFFFF" transform="matrix(1.00, 0.00, -0.00, -1.00, 269.7, 440.0)">-</text><text xml:space="preserve" font-family="Avenir-Light" font-size="29.4" fill="#FEFFFF" transform="matrix(1.00, 0.00, -0.00, -1.00, 279.5, 440.0)">7</text><text xml:space="preserve" font-family="Avenir-Light" font-size="29.4" fill="#FEFFFF" transform="matrix(1.00, 0.00, -0.00, -1.00, 294.7, 440.0)">6</text><text xml:space="preserve" font-family="Avenir-Light" font-size="29.4" fill="#FEFFFF" transform="matrix(1.00, 0.00, -0.00, -1.00, 310.0, 440.0)">;</text><text xml:space="preserve" font-family="Avenir-Light" font-size="29.4" fill="#FEFFFF" transform="matrix(1.00, 0.00, -0.00, -1.00, 317.7, 440.0)"> </text><text xml:space="preserve" font-family="Avenir-Light" font-size="29.4" fill="#FEFFFF" transform="matrix(1.00, 0.00, -0.00, -1.00, 325.3, 440.0)">A</text><text xml:space="preserve" font-family="Avenir-Light" font-size="29.4" fill="#FEFFFF" transform="matrix(1.00, 0.00, -0.00, -1.00, 344.9, 440.0)">v</text><text xml:space="preserve" font-family="Avenir-Light" font-size="29.4" fill="#FEFFFF" transform="matrix(1.00, 0.00, -0.00, -1.00, 358.5, 440.0)">e</text><text xml:space="preserve" font-family="Avenir-Light" font-size="29.4" fill="#FEFFFF" transform="matrix(1.00, 0.00, -0.00, -1.00, 374.9, 440.0)">r</text><text xml:space="preserve" font-family="Avenir-Light" font-size="29.4" fill="#FEFFFF" transform="matrix(1.00, 0.00, -0.00, -1.00, 384.7, 440.0)">a</text><text xml:space="preserve" font-family="Avenir-Light" font-size="29.4" fill="#FEFFFF" transform="matrix(1.00, 0.00, -0.00, -1.00, 399.9, 440.0)">g</text><text xml:space="preserve" font-family="Avenir-Light" font-size="29.4" fill="#FEFFFF" transform="matrix(1.00, 0.00, -0.00, -1.00, 417.9, 440.0)">e</text><text xml:space="preserve" font-family="Avenir-Light" font-size="29.4" fill="#FEFFFF" transform="matrix(1.00, 0.00, -0.00, -1.00, 434.2, 440.0)"> </text><text xml:space="preserve" font-family="Avenir-Light" font-size="29.4" fill="#FEFFFF" transform="matrix(1.00, 0.00, -0.00, -1.00, 86.0, 400.0)">a</text><text xml:space="preserve" font-family="Avenir-Light" font-size="29.4" fill="#FEFFFF" transform="matrix(1.00, 0.00, -0.00, -1.00, 101.3, 400.0)">g</text><text xml:space="preserve" font-family="Avenir-Light" font-size="29.4" fill="#FEFFFF" transform="matrix(1.00, 0.00, -0.00, -1.00, 119.2, 400.0)">e</text><text xml:space="preserve" font-family="Avenir-Light" font-size="29.4" fill="#FEFFFF" transform="matrix(1.00, 0.00, -0.00, -1.00, 135.6, 400.0)">:</text><text xml:space="preserve" font-family="Avenir-Light" font-size="29.4" fill="#FEFFFF" transform="matrix(1.00, 0.00, -0.00, -1.00, 143.2, 400.0)"> </text><text xml:space="preserve" font-family="Avenir-Light" font-size="29.4" fill="#FEFFFF" transform="matrix(1.00, 0.00, -0.00, -1.00, 150.9, 400.0)">2</text><text xml:space="preserve" font-family="Avenir-Light" font-size="29.4" fill="#FEFFFF" transform="matrix(1.00, 0.00, -0.00, -1.00, 166.1, 400.0)">8</text><text xml:space="preserve" font-family="Avenir-Light" font-size="29.4" fill="#FEFFFF" transform="matrix(1.00, 0.00, -0.00, -1.00, 181.4, 400.0)">;</text><text xml:space="preserve" font-family="Avenir-Light" font-size="29.4" fill="#FEFFFF" transform="matrix(1.00, 0.00, -0.00, -1.00, 189.1, 400.0)"> </text><text xml:space="preserve" font-family="Avenir-Light" font-size="29.4" fill="#FEFFFF" transform="matrix(1.00, 0.00, -0.00, -1.00, 196.7, 400.0)">M</text><text xml:space="preserve" font-family="Avenir-Light" font-size="29.4" fill="#FEFFFF" transform="matrix(1.00, 0.00, -0.00, -1.00, 222.9, 400.0)">e</text><text xml:space="preserve" font-family="Avenir-Light" font-size="29.4" fill="#FEFFFF" transform="matrix(1.00, 0.00, -0.00, -1.00, 239.2, 400.0)">d</text><text xml:space="preserve" font-family="Avenir-Light" font-size="29.4" fill="#FEFFFF" transform="matrix(1.00, 0.00, -0.00, -1.00, 257.2, 400.0)">i</text><text xml:space="preserve" font-family="Avenir-Light" font-size="29.4" fill="#FEFFFF" transform="matrix(1.00, 0.00, -0.00, -1.00, 264.3, 400.0)">a</text><text xml:space="preserve" font-family="Avenir-Light" font-size="29.4" fill="#FEFFFF" transform="matrix(1.00, 0.00, -0.00, -1.00, 279.5, 400.0)">n</text><text xml:space="preserve" font-family="Avenir-Light" font-size="29.4" fill="#FEFFFF" transform="matrix(1.00, 0.00, -0.00, -1.00, 295.9, 400.0)"> </text><text xml:space="preserve" font-family="Avenir-Light" font-size="29.4" fill="#FEFFFF" transform="matrix(1.00, 0.00, -0.00, -1.00, 303.5, 400.0)">a</text><text xml:space="preserve" font-family="Avenir-Light" font-size="29.4" fill="#FEFFFF" transform="matrix(1.00, 0.00, -0.00, -1.00, 318.8, 400.0)">g</text><text xml:space="preserve" font-family="Avenir-Light" font-size="29.4" fill="#FEFFFF" transform="matrix(1.00, 0.00, -0.00, -1.00, 336.7, 400.0)">e</text><text xml:space="preserve" font-family="Avenir-Light" font-size="29.4" fill="#FEFFFF" transform="matrix(1.00, 0.00, -0.00, -1.00, 353.1, 400.0)">:</text><text xml:space="preserve" font-family="Avenir-Light" font-size="29.4" fill="#FEFFFF" transform="matrix(1.00, 0.00, -0.00, -1.00, 360.7, 400.0)"> </text><text xml:space="preserve" font-family="Avenir-Light" font-size="29.4" fill="#FEFFFF" transform="matrix(1.00, 0.00, -0.00, -1.00, 368.4, 400.0)">2</text><text xml:space="preserve" font-family="Avenir-Light" font-size="29.4" fill="#FEFFFF" transform="matrix(1.00, 0.00, -0.00, -1.00, 383.6, 400.0)">2</text><text xml:space="preserve" font-family="Avenir-Light" font-size="29.4" fill="#FEFFFF" transform="matrix(1.00, 0.00, -0.00, -1.00, 398.9, 400.0)"> </text><text xml:space="preserve" font-family="Avenir-Light" font-size="26.5" fill="#636363" transform="matrix(1.00, 0.00, -0.00, -1.00, 56.0, 330.0)">•</text><text xml:space="preserve" font-family="Avenir-Light" font-size="29.4" fill="#FEFFFF" transform="matrix(1.00, 0.00, -0.00, -1.00, 86.0, 329.0)">P</text><text xml:space="preserve" font-family="Avenir-Light" font-size="29.4" fill="#FEFFFF" transform="matrix(1.00, 0.00, -0.00, -1.00, 102.9, 329.0)">e</text><text xml:space="preserve" font-family="Avenir-Light" font-size="29.4" fill="#FEFFFF" transform="matrix(1.00, 0.00, -0.00, -1.00, 119.2, 329.0)">o</text><text xml:space="preserve" font-family="Avenir-Light" font-size="29.4" fill="#FEFFFF" transform="matrix(1.00, 0.00, -0.00, -1.00, 136.7, 329.0)">p</text><text xml:space="preserve" font-family="Avenir-Light" font-size="29.4" fill="#FEFFFF" transform="matrix(1.00, 0.00, -0.00, -1.00, 154.6, 329.0)">l</text><text xml:space="preserve" font-family="Avenir-Light" font-size="29.4" fill="#FEFFFF" transform="matrix(1.00, 0.00, -0.00, -1.00, 161.7, 329.0)">e</text><text xml:space="preserve" font-family="Avenir-Light" font-size="29.4" fill="#FEFFFF" transform="matrix(1.00, 0.00, -0.00, -1.00, 178.1, 329.0)"> </text><text xml:space="preserve" font-family="Avenir-Light" font-size="29.4" fill="#FEFFFF" transform="matrix(1.00, 0.00, -0.00, -1.00, 185.7, 329.0)">a</text><text xml:space="preserve" font-family="Avenir-Light" font-size="29.4" fill="#FEFFFF" transform="matrix(1.00, 0.00, -0.00, -1.00, 201.0, 329.0)">r</text><text xml:space="preserve" font-family="Avenir-Light" font-size="29.4" fill="#FEFFFF" transform="matrix(1.00, 0.00, -0.00, -1.00, 210.2, 329.0)">e</text><text xml:space="preserve" font-family="Avenir-Light" font-size="29.4" fill="#FEFFFF" transform="matrix(1.00, 0.00, -0.00, -1.00, 226.6, 329.0)"> </text><text xml:space="preserve" font-family="Avenir-Light" font-size="29.4" fill="#FEFFFF" transform="matrix(1.00, 0.00, -0.00, -1.00, 234.2, 329.0)">i</text><text xml:space="preserve" font-family="Avenir-Light" font-size="29.4" fill="#FEFFFF" transform="matrix(1.00, 0.00, -0.00, -1.00, 241.3, 329.0)">n</text><text xml:space="preserve" font-family="Avenir-Light" font-size="29.4" fill="#FEFFFF" transform="matrix(1.00, 0.00, -0.00, -1.00, 257.6, 329.0)">t</text><text xml:space="preserve" font-family="Avenir-Light" font-size="29.4" fill="#FEFFFF" transform="matrix(1.00, 0.00, -0.00, -1.00, 267.4, 329.0)">e</text><text xml:space="preserve" font-family="Avenir-Light" font-size="29.4" fill="#FEFFFF" transform="matrix(1.00, 0.00, -0.00, -1.00, 283.7, 329.0)">r</text><text xml:space="preserve" font-family="Avenir-Light" font-size="29.4" fill="#FEFFFF" transform="matrix(1.00, 0.00, -0.00, -1.00, 293.0, 329.0)">e</text><text xml:space="preserve" font-family="Avenir-Light" font-size="29.4" fill="#FEFFFF" transform="matrix(1.00, 0.00, -0.00, -1.00, 309.4, 329.0)">s</text><text xml:space="preserve" font-family="Avenir-Light" font-size="29.4" fill="#FEFFFF" transform="matrix(1.00, 0.00, -0.00, -1.00, 321.9, 329.0)">t</text><text xml:space="preserve" font-family="Avenir-Light" font-size="29.4" fill="#FEFFFF" transform="matrix(1.00, 0.00, -0.00, -1.00, 331.7, 329.0)">e</text><text xml:space="preserve" font-family="Avenir-Light" font-size="29.4" fill="#FEFFFF" transform="matrix(1.00, 0.00, -0.00, -1.00, 348.0, 329.0)">d</text><text xml:space="preserve" font-family="Avenir-Light" font-size="29.4" fill="#FEFFFF" transform="matrix(1.00, 0.00, -0.00, -1.00, 366.0, 329.0)"> </text><text xml:space="preserve" font-family="Avenir-Light" font-size="29.4" fill="#FEFFFF" transform="matrix(1.00, 0.00, -0.00, -1.00, 373.6, 329.0)">i</text><text xml:space="preserve" font-family="Avenir-Light" font-size="29.4" fill="#FEFFFF" transform="matrix(1.00, 0.00, -0.00, -1.00, 380.7, 329.0)">n</text><text xml:space="preserve" font-family="Avenir-Light" font-size="29.4" fill="#FEFFFF" transform="matrix(1.00, 0.00, -0.00, -1.00, 397.0, 329.0)"> </text><text xml:space="preserve" font-family="Avenir-Light" font-size="29.4" fill="#FEFFFF" transform="matrix(1.00, 0.00, -0.00, -1.00, 86.0, 289.0)">h</text><text xml:space="preserve" font-family="Avenir-Light" font-size="29.4" fill="#FEFFFF" transform="matrix(1.00, 0.00, -0.00, -1.00, 102.3, 289.0)">a</text><text xml:space="preserve" font-family="Avenir-Light" font-size="29.4" fill="#FEFFFF" transform="matrix(1.00, 0.00, -0.00, -1.00, 117.6, 289.0)">v</text><text xml:space="preserve" font-family="Avenir-Light" font-size="29.4" fill="#FEFFFF" transform="matrix(1.00, 0.00, -0.00, -1.00, 131.2, 289.0)">i</text><text xml:space="preserve" font-family="Avenir-Light" font-size="29.4" fill="#FEFFFF" transform="matrix(1.00, 0.00, -0.00, -1.00, 138.3, 289.0)">n</text><text xml:space="preserve" font-family="Avenir-Light" font-size="29.4" fill="#FEFFFF" transform="matrix(1.00, 0.00, -0.00, -1.00, 154.6, 289.0)">g</text><text xml:space="preserve" font-family="Avenir-Light" font-size="29.4" fill="#FEFFFF" transform="matrix(1.00, 0.00, -0.00, -1.00, 172.6, 289.0)"> </text><text xml:space="preserve" font-family="Avenir-Light" font-size="29.4" fill="#FEFFFF" transform="matrix(1.00, 0.00, -0.00, -1.00, 180.2, 289.0)">a</text><text xml:space="preserve" font-family="Avenir-Light" font-size="29.4" fill="#FEFFFF" transform="matrix(1.00, 0.00, -0.00, -1.00, 195.5, 289.0)">l</text><text xml:space="preserve" font-family="Avenir-Light" font-size="29.4" fill="#FEFFFF" transform="matrix(1.00, 0.00, -0.00, -1.00, 202.6, 289.0)">l</text><text xml:space="preserve" font-family="Avenir-Light" font-size="29.4" fill="#FEFFFF" transform="matrix(1.00, 0.00, -0.00, -1.00, 209.6, 289.0)"> </text><text xml:space="preserve" font-family="Avenir-Light" font-size="29.4" fill="#FEFFFF" transform="matrix(1.00, 0.00, -0.00, -1.00, 217.3, 289.0)">t</text><text xml:space="preserve" font-family="Avenir-Light" font-size="29.4" fill="#FEFFFF" transform="matrix(1.00, 0.00, -0.00, -1.00, 227.1, 289.0)">h</text><text xml:space="preserve" font-family="Avenir-Light" font-size="29.4" fill="#FEFFFF" transform="matrix(1.00, 0.00, -0.00, -1.00, 243.4, 289.0)">e</text><text xml:space="preserve" font-family="Avenir-Light" font-size="29.4" fill="#FEFFFF" transform="matrix(1.00, 0.00, -0.00, -1.00, 259.8, 289.0)"> </text><text xml:space="preserve" font-family="Avenir-Light" font-size="29.4" fill="#FEFFFF" transform="matrix(1.00, 0.00, -0.00, -1.00, 267.4, 289.0)">c</text><text xml:space="preserve" font-family="Avenir-Light" font-size="29.4" fill="#FEFFFF" transform="matrix(1.00, 0.00, -0.00, -1.00, 281.6, 289.0)">o</text><text xml:space="preserve" font-family="Avenir-Light" font-size="29.4" fill="#FEFFFF" transform="matrix(1.00, 0.00, -0.00, -1.00, 299.0, 289.0)">n</text><text xml:space="preserve" font-family="Avenir-Light" font-size="29.4" fill="#FEFFFF" transform="matrix(1.00, 0.00, -0.00, -1.00, 315.4, 289.0)">t</text><text xml:space="preserve" font-family="Avenir-Light" font-size="29.4" fill="#FEFFFF" transform="matrix(1.00, 0.00, -0.00, -1.00, 325.2, 289.0)">e</text><text xml:space="preserve" font-family="Avenir-Light" font-size="29.4" fill="#FEFFFF" transform="matrix(1.00, 0.00, -0.00, -1.00, 341.5, 289.0)">n</text><text xml:space="preserve" font-family="Avenir-Light" font-size="29.4" fill="#FEFFFF" transform="matrix(1.00, 0.00, -0.00, -1.00, 357.9, 289.0)">t</text><text xml:space="preserve" font-family="Avenir-Light" font-size="29.4" fill="#FEFFFF" transform="matrix(1.00, 0.00, -0.00, -1.00, 367.7, 289.0)"> </text><text xml:space="preserve" font-family="Avenir-Light" font-size="29.4" fill="#FEFFFF" transform="matrix(1.00, 0.00, -0.00, -1.00, 375.3, 289.0)">t</text><text xml:space="preserve" font-family="Avenir-Light" font-size="29.4" fill="#FEFFFF" transform="matrix(1.00, 0.00, -0.00, -1.00, 385.1, 289.0)">o</text><text xml:space="preserve" font-family="Avenir-Light" font-size="29.4" fill="#FEFFFF" transform="matrix(1.00, 0.00, -0.00, -1.00, 402.5, 289.0)"> </text><text xml:space="preserve" font-family="Avenir-Light" font-size="29.4" fill="#FEFFFF" transform="matrix(1.00, 0.00, -0.00, -1.00, 86.0, 249.0)">s</text><text xml:space="preserve" font-family="Avenir-Light" font-size="29.4" fill="#FEFFFF" transform="matrix(1.00, 0.00, -0.00, -1.00, 98.5, 249.0)">e</text><text xml:space="preserve" font-family="Avenir-Light" font-size="29.4" fill="#FEFFFF" transform="matrix(1.00, 0.00, -0.00, -1.00, 114.9, 249.0)">e</text><text xml:space="preserve" font-family="Avenir-Light" font-size="29.4" fill="#FEFFFF" transform="matrix(1.00, 0.00, -0.00, -1.00, 131.2, 249.0)"> </text><text xml:space="preserve" font-family="Avenir-Heavy" font-weight="bold" font-size="29.4" fill="#FEFFFF" transform="matrix(1.00, 0.00, -0.00, -1.00, 138.9, 249.0)">w</text><text xml:space="preserve" font-family="Avenir-Heavy" font-weight="bold" font-size="29.4" fill="#FEFFFF" transform="matrix(1.00, 0.00, -0.00, -1.00, 162.3, 249.0)">h</text><text xml:space="preserve" font-family="Avenir-Heavy" font-weight="bold" font-size="29.4" fill="#FEFFFF" transform="matrix(1.00, 0.00, -0.00, -1.00, 179.1, 249.0)">a</text><text xml:space="preserve" font-family="Avenir-Heavy" font-weight="bold" font-size="29.4" fill="#FEFFFF" transform="matrix(1.00, 0.00, -0.00, -1.00, 194.9, 249.0)">t</text><text xml:space="preserve" font-family="Avenir-Heavy" font-weight="bold" font-size="29.4" fill="#FEFFFF" transform="matrix(1.00, 0.00, -0.00, -1.00, 206.4, 249.0)"> </text><text xml:space="preserve" font-family="Avenir-Heavy" font-weight="bold" font-size="29.4" fill="#FEFFFF" transform="matrix(1.00, 0.00, -0.00, -1.00, 215.1, 249.0)">e</text><text xml:space="preserve" font-family="Avenir-Heavy" font-weight="bold" font-size="29.4" fill="#FEFFFF" transform="matrix(1.00, 0.00, -0.00, -1.00, 231.9, 249.0)">v</text><text xml:space="preserve" font-family="Avenir-Heavy" font-weight="bold" font-size="29.4" fill="#FEFFFF" transform="matrix(1.00, 0.00, -0.00, -1.00, 247.2, 249.0)">e</text><text xml:space="preserve" font-family="Avenir-Heavy" font-weight="bold" font-size="29.4" fill="#FEFFFF" transform="matrix(1.00, 0.00, -0.00, -1.00, 264.1, 249.0)">r</text><text xml:space="preserve" font-family="Avenir-Heavy" font-weight="bold" font-size="29.4" fill="#FEFFFF" transform="matrix(1.00, 0.00, -0.00, -1.00, 275.5, 249.0)">y</text><text xml:space="preserve" font-family="Avenir-Heavy" font-weight="bold" font-size="29.4" fill="#FEFFFF" transform="matrix(1.00, 0.00, -0.00, -1.00, 290.8, 249.0)">o</text><text xml:space="preserve" font-family="Avenir-Heavy" font-weight="bold" font-size="29.4" fill="#FEFFFF" transform="matrix(1.00, 0.00, -0.00, -1.00, 308.7, 249.0)">n</text><text xml:space="preserve" font-family="Avenir-Heavy" font-weight="bold" font-size="29.4" fill="#FEFFFF" transform="matrix(1.00, 0.00, -0.00, -1.00, 325.6, 249.0)">e</text><text xml:space="preserve" font-family="Avenir-Heavy" font-weight="bold" font-size="29.4" fill="#FEFFFF" transform="matrix(1.00, 0.00, -0.00, -1.00, 342.5, 249.0)"> </text><text xml:space="preserve" font-family="Avenir-Heavy" font-weight="bold" font-size="29.4" fill="#FEFFFF" transform="matrix(1.00, 0.00, -0.00, -1.00, 351.2, 249.0)">i</text><text xml:space="preserve" font-family="Avenir-Heavy" font-weight="bold" font-size="29.4" fill="#FEFFFF" transform="matrix(1.00, 0.00, -0.00, -1.00, 358.8, 249.0)">s</text><text xml:space="preserve" font-family="Avenir-Heavy" font-weight="bold" font-size="29.4" fill="#FEFFFF" transform="matrix(1.00, 0.00, -0.00, -1.00, 371.9, 249.0)"> </text><text xml:space="preserve" font-family="Avenir-Heavy" font-weight="bold" font-size="29.4" fill="#FEFFFF" transform="matrix(1.00, 0.00, -0.00, -1.00, 380.6, 249.0)">u</text><text xml:space="preserve" font-family="Avenir-Heavy" font-weight="bold" font-size="29.4" fill="#FEFFFF" transform="matrix(1.00, 0.00, -0.00, -1.00, 397.4, 249.0)">p</text><text xml:space="preserve" font-family="Avenir-Heavy" font-weight="bold" font-size="29.4" fill="#FEFFFF" transform="matrix(1.00, 0.00, -0.00, -1.00, 416.0, 249.0)"> </text><text xml:space="preserve" font-family="Avenir-Heavy" font-weight="bold" font-size="29.4" fill="#FEFFFF" transform="matrix(1.00, 0.00, -0.00, -1.00, 86.0, 209.0)">t</text><text xml:space="preserve" font-family="Avenir-Heavy" font-weight="bold" font-size="29.4" fill="#FEFFFF" transform="matrix(1.00, 0.00, -0.00, -1.00, 97.4, 209.0)">o</text><text xml:space="preserve" font-family="Avenir-Light" font-size="29.4" fill="#FEFFFF" transform="matrix(1.00, 0.00, -0.00, -1.00, 115.4, 209.0)">,</text><text xml:space="preserve" font-family="Avenir-Light" font-size="29.4" fill="#FEFFFF" transform="matrix(1.00, 0.00, -0.00, -1.00, 123.0, 209.0)"> </text><text xml:space="preserve" font-family="Avenir-Light" font-size="29.4" fill="#FEFFFF" transform="matrix(1.00, 0.00, -0.00, -1.00, 130.7, 209.0)">b</text><text xml:space="preserve" font-family="Avenir-Light" font-size="29.4" fill="#FEFFFF" transform="matrix(1.00, 0.00, -0.00, -1.00, 148.6, 209.0)">u</text><text xml:space="preserve" font-family="Avenir-Light" font-size="29.4" fill="#FEFFFF" transform="matrix(1.00, 0.00, -0.00, -1.00, 165.0, 209.0)">t</text><text xml:space="preserve" font-family="Avenir-Light" font-size="29.4" fill="#FEFFFF" transform="matrix(1.00, 0.00, -0.00, -1.00, 174.8, 209.0)"> </text><text xml:space="preserve" font-family="Avenir-Light" font-size="29.4" fill="#FEFFFF" transform="matrix(1.00, 0.00, -0.00, -1.00, 182.4, 209.0)">t</text><text xml:space="preserve" font-family="Avenir-Light" font-size="29.4" fill="#FEFFFF" transform="matrix(1.00, 0.00, -0.00, -1.00, 192.2, 209.0)">h</text><text xml:space="preserve" font-family="Avenir-Light" font-size="29.4" fill="#FEFFFF" transform="matrix(1.00, 0.00, -0.00, -1.00, 208.6, 209.0)">e</text><text xml:space="preserve" font-family="Avenir-Light" font-size="29.4" fill="#FEFFFF" transform="matrix(1.00, 0.00, -0.00, -1.00, 224.9, 209.0)">y</text><text xml:space="preserve" font-family="Avenir-Light" font-size="29.4" fill="#FEFFFF" transform="matrix(1.00, 0.00, -0.00, -1.00, 238.5, 209.0)"> </text><text xml:space="preserve" font-family="Avenir-Light" font-size="29.4" fill="#FEFFFF" transform="matrix(1.00, 0.00, -0.00, -1.00, 246.2, 209.0)">s</text><text xml:space="preserve" font-family="Avenir-Light" font-size="29.4" fill="#FEFFFF" transform="matrix(1.00, 0.00, -0.00, -1.00, 258.7, 209.0)">t</text><text xml:space="preserve" font-family="Avenir-Light" font-size="29.4" fill="#FEFFFF" transform="matrix(1.00, 0.00, -0.00, -1.00, 268.5, 209.0)">i</text><text xml:space="preserve" font-family="Avenir-Light" font-size="29.4" fill="#FEFFFF" transform="matrix(1.00, 0.00, -0.00, -1.00, 275.6, 209.0)">l</text><text xml:space="preserve" font-family="Avenir-Light" font-size="29.4" fill="#FEFFFF" transform="matrix(1.00, 0.00, -0.00, -1.00, 282.7, 209.0)">l</text><text xml:space="preserve" font-family="Avenir-Light" font-size="29.4" fill="#FEFFFF" transform="matrix(1.00, 0.00, -0.00, -1.00, 289.7, 209.0)"> </text><text xml:space="preserve" font-family="Avenir-Light" font-size="29.4" fill="#FEFFFF" transform="matrix(1.00, 0.00, -0.00, -1.00, 297.4, 209.0)">w</text><text xml:space="preserve" font-family="Avenir-Light" font-size="29.4" fill="#FEFFFF" transform="matrix(1.00, 0.00, -0.00, -1.00, 318.1, 209.0)">a</text><text xml:space="preserve" font-family="Avenir-Light" font-size="29.4" fill="#FEFFFF" transform="matrix(1.00, 0.00, -0.00, -1.00, 333.3, 209.0)">n</text><text xml:space="preserve" font-family="Avenir-Light" font-size="29.4" fill="#FEFFFF" transform="matrix(1.00, 0.00, -0.00, -1.00, 349.7, 209.0)">t</text><text xml:space="preserve" font-family="Avenir-Light" font-size="29.4" fill="#FEFFFF" transform="matrix(1.00, 0.00, -0.00, -1.00, 359.4, 209.0)"> </text><text xml:space="preserve" font-family="Avenir-Light" font-size="29.4" fill="#FEFFFF" transform="matrix(1.00, 0.00, -0.00, -1.00, 367.1, 209.0)">t</text><text xml:space="preserve" font-family="Avenir-Light" font-size="29.4" fill="#FEFFFF" transform="matrix(1.00, 0.00, -0.00, -1.00, 376.9, 209.0)">o</text><text xml:space="preserve" font-family="Avenir-Light" font-size="29.4" fill="#FEFFFF" transform="matrix(1.00, 0.00, -0.00, -1.00, 394.3, 209.0)"> </text><text xml:space="preserve" font-family="Avenir-Light" font-size="29.4" fill="#FEFFFF" transform="matrix(1.00, 0.00, -0.00, -1.00, 86.0, 169.0)">p</text><text xml:space="preserve" font-family="Avenir-Light" font-size="29.4" fill="#FEFFFF" transform="matrix(1.00, 0.00, -0.00, -1.00, 104.0, 169.0)">i</text><text xml:space="preserve" font-family="Avenir-Light" font-size="29.4" fill="#FEFFFF" transform="matrix(1.00, 0.00, -0.00, -1.00, 111.0, 169.0)">c</text><text xml:space="preserve" font-family="Avenir-Light" font-size="29.4" fill="#FEFFFF" transform="matrix(1.00, 0.00, -0.00, -1.00, 125.2, 169.0)">k</text><text xml:space="preserve" font-family="Avenir-Light" font-size="29.4" fill="#FEFFFF" transform="matrix(1.00, 0.00, -0.00, -1.00, 139.3, 169.0)"> </text><text xml:space="preserve" font-family="Avenir-Light" font-size="29.4" fill="#FEFFFF" transform="matrix(1.00, 0.00, -0.00, -1.00, 146.9, 169.0)">o</text><text xml:space="preserve" font-family="Avenir-Light" font-size="29.4" fill="#FEFFFF" transform="matrix(1.00, 0.00, -0.00, -1.00, 164.4, 169.0)">u</text><text xml:space="preserve" font-family="Avenir-Light" font-size="29.4" fill="#FEFFFF" transform="matrix(1.00, 0.00, -0.00, -1.00, 180.8, 169.0)">t</text><text xml:space="preserve" font-family="Avenir-Light" font-size="29.4" fill="#FEFFFF" transform="matrix(1.00, 0.00, -0.00, -1.00, 190.5, 169.0)"> </text><text xml:space="preserve" font-family="Avenir-Light" font-size="29.4" fill="#FEFFFF" transform="matrix(1.00, 0.00, -0.00, -1.00, 198.2, 169.0)">w</text><text xml:space="preserve" font-family="Avenir-Light" font-size="29.4" fill="#FEFFFF" transform="matrix(1.00, 0.00, -0.00, -1.00, 218.9, 169.0)">h</text><text xml:space="preserve" font-family="Avenir-Light" font-size="29.4" fill="#FEFFFF" transform="matrix(1.00, 0.00, -0.00, -1.00, 235.2, 169.0)">a</text><text xml:space="preserve" font-family="Avenir-Light" font-size="29.4" fill="#FEFFFF" transform="matrix(1.00, 0.00, -0.00, -1.00, 250.5, 169.0)">t</text><text xml:space="preserve" font-family="Avenir-Light" font-size="29.4" fill="#FEFFFF" transform="matrix(1.00, 0.00, -0.00, -1.00, 260.3, 169.0)"> </text><text xml:space="preserve" font-family="Avenir-Light" font-size="29.4" fill="#FEFFFF" transform="matrix(1.00, 0.00, -0.00, -1.00, 267.9, 169.0)">t</text><text xml:space="preserve" font-family="Avenir-Light" font-size="29.4" fill="#FEFFFF" transform="matrix(1.00, 0.00, -0.00, -1.00, 277.7, 169.0)">h</text><text xml:space="preserve" font-family="Avenir-Light" font-size="29.4" fill="#FEFFFF" transform="matrix(1.00, 0.00, -0.00, -1.00, 294.1, 169.0)">e</text><text xml:space="preserve" font-family="Avenir-Light" font-size="29.4" fill="#FEFFFF" transform="matrix(1.00, 0.00, -0.00, -1.00, 310.4, 169.0)">y</text><text xml:space="preserve" font-family="Avenir-Light" font-size="29.4" fill="#FEFFFF" transform="matrix(1.00, 0.00, -0.00, -1.00, 324.1, 169.0)"> </text><text xml:space="preserve" font-family="Avenir-Light" font-size="29.4" fill="#FEFFFF" transform="matrix(1.00, 0.00, -0.00, -1.00, 331.7, 169.0)">n</text><text xml:space="preserve" font-family="Avenir-Light" font-size="29.4" fill="#FEFFFF" transform="matrix(1.00, 0.00, -0.00, -1.00, 348.0, 169.0)">e</text><text xml:space="preserve" font-family="Avenir-Light" font-size="29.4" fill="#FEFFFF" transform="matrix(1.00, 0.00, -0.00, -1.00, 364.4, 169.0)">e</text><text xml:space="preserve" font-family="Avenir-Light" font-size="29.4" fill="#FEFFFF" transform="matrix(1.00, 0.00, -0.00, -1.00, 380.7, 169.0)">d</text><text xml:space="preserve" font-family="Avenir-Light" font-size="29.4" fill="#FEFFFF" transform="matrix(1.00, 0.00, -0.00, -1.00, 398.7, 169.0)"> </text><text xml:space="preserve" font-family="Avenir-Light" font-size="29.4" fill="#FEFFFF" transform="matrix(1.00, 0.00, -0.00, -1.00, 406.3, 169.0)">t</text><text xml:space="preserve" font-family="Avenir-Light" font-size="29.4" fill="#FEFFFF" transform="matrix(1.00, 0.00, -0.00, -1.00, 416.1, 169.0)">o</text><text xml:space="preserve" font-family="Avenir-Light" font-size="29.4" fill="#FEFFFF" transform="matrix(1.00, 0.00, -0.00, -1.00, 433.6, 169.0)"> </text><text xml:space="preserve" font-family="Avenir-Heavy" font-weight="bold" font-size="29.4" fill="#FEFFFF" transform="matrix(1.00, 0.00, -0.00, -1.00, 86.0, 129.0)">s</text><text xml:space="preserve" font-family="Avenir-Heavy" font-weight="bold" font-size="29.4" fill="#FEFFFF" transform="matrix(1.00, 0.00, -0.00, -1.00, 99.1, 129.0)">t</text><text xml:space="preserve" font-family="Avenir-Heavy" font-weight="bold" font-size="29.4" fill="#FEFFFF" transform="matrix(1.00, 0.00, -0.00, -1.00, 110.5, 129.0)">a</text><text xml:space="preserve" font-family="Avenir-Heavy" font-weight="bold" font-size="29.4" fill="#FEFFFF" transform="matrix(1.00, 0.00, -0.00, -1.00, 126.3, 129.0)">y</text><text xml:space="preserve" font-family="Avenir-Heavy" font-weight="bold" font-size="29.4" fill="#FEFFFF" transform="matrix(1.00, 0.00, -0.00, -1.00, 141.5, 129.0)"> </text><text xml:space="preserve" font-family="Avenir-Heavy" font-weight="bold" font-size="29.4" fill="#FEFFFF" transform="matrix(1.00, 0.00, -0.00, -1.00, 150.2, 129.0)">c</text><text xml:space="preserve" font-family="Avenir-Heavy" font-weight="bold" font-size="29.4" fill="#FEFFFF" transform="matrix(1.00, 0.00, -0.00, -1.00, 164.4, 129.0)">o</text><text xml:space="preserve" font-family="Avenir-Heavy" font-weight="bold" font-size="29.4" fill="#FEFFFF" transform="matrix(1.00, 0.00, -0.00, -1.00, 182.3, 129.0)">n</text><text xml:space="preserve" font-family="Avenir-Heavy" font-weight="bold" font-size="29.4" fill="#FEFFFF" transform="matrix(1.00, 0.00, -0.00, -1.00, 199.2, 129.0)">n</text><text xml:space="preserve" font-family="Avenir-Heavy" font-weight="bold" font-size="29.4" fill="#FEFFFF" transform="matrix(1.00, 0.00, -0.00, -1.00, 216.1, 129.0)">e</text><text xml:space="preserve" font-family="Avenir-Heavy" font-weight="bold" font-size="29.4" fill="#FEFFFF" transform="matrix(1.00, 0.00, -0.00, -1.00, 233.0, 129.0)">c</text><text xml:space="preserve" font-family="Avenir-Heavy" font-weight="bold" font-size="29.4" fill="#FEFFFF" transform="matrix(1.00, 0.00, -0.00, -1.00, 247.1, 129.0)">t</text><text xml:space="preserve" font-family="Avenir-Heavy" font-weight="bold" font-size="29.4" fill="#FEFFFF" transform="matrix(1.00, 0.00, -0.00, -1.00, 258.6, 129.0)">e</text><text xml:space="preserve" font-family="Avenir-Heavy" font-weight="bold" font-size="29.4" fill="#FEFFFF" transform="matrix(1.00, 0.00, -0.00, -1.00, 275.5, 129.0)">d</text><text xml:space="preserve" font-family="Avenir-Heavy" font-weight="bold" font-size="29.4" fill="#FEFFFF" transform="matrix(1.00, 0.00, -0.00, -1.00, 294.0, 129.0)"> </text><text xml:space="preserve" font-family="Avenir-Heavy" font-weight="bold" font-size="29.4" fill="#FEFFFF" transform="matrix(1.00, 0.00, -0.00, -1.00, 302.7, 129.0)">w</text><text xml:space="preserve" font-family="Avenir-Heavy" font-weight="bold" font-size="29.4" fill="#FEFFFF" transform="matrix(1.00, 0.00, -0.00, -1.00, 326.1, 129.0)">i</text><text xml:space="preserve" font-family="Avenir-Heavy" font-weight="bold" font-size="29.4" fill="#FEFFFF" transform="matrix(1.00, 0.00, -0.00, -1.00, 333.7, 129.0)">t</text><text xml:space="preserve" font-family="Avenir-Heavy" font-weight="bold" font-size="29.4" fill="#FEFFFF" transform="matrix(1.00, 0.00, -0.00, -1.00, 345.2, 129.0)">h</text><text xml:space="preserve" font-family="Avenir-Heavy" font-weight="bold" font-size="29.4" fill="#FEFFFF" transform="matrix(1.00, 0.00, -0.00, -1.00, 362.1, 129.0)"> </text><text xml:space="preserve" font-family="Avenir-Heavy" font-weight="bold" font-size="29.4" fill="#FEFFFF" transform="matrix(1.00, 0.00, -0.00, -1.00, 86.0, 89.0)">f</text><text xml:space="preserve" font-family="Avenir-Heavy" font-weight="bold" font-size="29.4" fill="#FEFFFF" transform="matrix(1.00, 0.00, -0.00, -1.00, 96.3, 89.0)">r</text><text xml:space="preserve" font-family="Avenir-Heavy" font-weight="bold" font-size="29.4" fill="#FEFFFF" transform="matrix(1.00, 0.00, -0.00, -1.00, 107.8, 89.0)">i</text><text xml:space="preserve" font-family="Avenir-Heavy" font-weight="bold" font-size="29.4" fill="#FEFFFF" transform="matrix(1.00, 0.00, -0.00, -1.00, 115.4, 89.0)">e</text><text xml:space="preserve" font-family="Avenir-Heavy" font-weight="bold" font-size="29.4" fill="#FEFFFF" transform="matrix(1.00, 0.00, -0.00, -1.00, 132.3, 89.0)">n</text><text xml:space="preserve" font-family="Avenir-Heavy" font-weight="bold" font-size="29.4" fill="#FEFFFF" transform="matrix(1.00, 0.00, -0.00, -1.00, 149.2, 89.0)">d</text><text xml:space="preserve" font-family="Avenir-Heavy" font-weight="bold" font-size="29.4" fill="#FEFFFF" transform="matrix(1.00, 0.00, -0.00, -1.00, 167.7, 89.0)">s</text><text xml:space="preserve" font-family="Avenir-Book" font-size="24.0" fill="#55D6FF" transform="matrix(1.00, 0.00, -0.00, -1.00, 57.0, 699.0)">U</text><text xml:space="preserve" font-family="Avenir-Book" font-size="24.0" fill="#55D6FF" transform="matrix(1.00, 0.00, -0.00, -1.00, 77.3, 699.0)">S</text><text xml:space="preserve" font-family="Avenir-Book" font-size="24.0" fill="#55D6FF" transform="matrix(1.00, 0.00, -0.00, -1.00, 94.5, 699.0)">E</text><text xml:space="preserve" font-family="Avenir-Book" font-size="24.0" fill="#55D6FF" transform="matrix(1.00, 0.00, -0.00, -1.00, 112.6, 699.0)">R</text><text xml:space="preserve" font-family="Avenir-Book" font-size="24.0" fill="#55D6FF" transform="matrix(1.00, 0.00, -0.00, -1.00, 130.6, 699.0)"> </text><text xml:space="preserve" font-family="Avenir-Book" font-size="24.0" fill="#55D6FF" transform="matrix(1.00, 0.00, -0.00, -1.00, 141.1, 699.0)">S</text><text xml:space="preserve" font-family="Avenir-Book" font-size="24.0" fill="#55D6FF" transform="matrix(1.00, 0.00, -0.00, -1.00, 158.3, 699.0)">U</text><text xml:space="preserve" font-family="Avenir-Book" font-size="24.0" fill="#55D6FF" transform="matrix(1.00, 0.00, -0.00, -1.00, 178.6, 699.0)">R</text><text xml:space="preserve" font-family="Avenir-Book" font-size="24.0" fill="#55D6FF" transform="matrix(1.00, 0.00, -0.00, -1.00, 196.8, 699.0)">V</text><text xml:space="preserve" font-family="Avenir-Book" font-size="24.0" fill="#55D6FF" transform="matrix(1.00, 0.00, -0.00, -1.00, 215.4, 699.0)">E</text><text xml:space="preserve" font-family="Avenir-Book" font-size="24.0" fill="#55D6FF" transform="matrix(1.00, 0.00, -0.00, -1.00, 233.4, 699.0)">Y</text><image xlink:href="../../EF49056F-9FA6-4E91-9B93-864C7F15733C/assets/08F5375BEDAEFE7EB91A5A9DF54B7627.png" width="520.00" height="233.00" transform="matrix(1.00, 0.00, -0.00, -1.00, 475.0, 265.0)"></image><image xlink:href="../../EF49056F-9FA6-4E91-9B93-864C7F15733C/assets/BDC339FA532F631462A32D77A8D36AFE.png" width="520.00" height="218.00" transform="matrix(1.00, 0.00, -0.00, -1.00, 475.0, 744.0)"></image><image xlink:href="../../EF49056F-9FA6-4E91-9B93-864C7F15733C/assets/925B043195F5B93B489EABE1406E3EAC.png" width="518.00" height="233.00" transform="matrix(1.00, 0.00, -0.00, -1.00, 476.0, 513.0)"></image></g></svg>