<?xml version="1.0" encoding="UTF-8"?><svg xmlns="http://www.w3.org/2000/svg" xmlns:xlink="http://www.w3.org/1999/xlink" clip-rule="evenodd" stroke-miterlimit="4.00" viewBox="0 0 720 405"><desc>SVG generated by Keynote</desc><defs></defs><g transform="matrix(1.00, 0.00, -0.00, -1.00, 0.0, 405.0)"><path d="M 0.0 0.0 L 720.0 0.0 L 720.0 405.0 L 0.0 405.0 Z M 0.0 0.0 " fill="#212121"></path><g><clipPath id="clip-66"><path d="M 0.0 15.0 L 720.0 15.0 L 720.0 0.0 L 0.0 0.0 Z M 0.0 14.6 "></path></clipPath><g clip-path="url(#clip-66)"><image xlink:href="E727F7411E2471EE462B064648A9C275.jpeg" width="721.00" height="26.00" transform="matrix(1.00, 0.00, -0.00, -1.04, 0.0, 27.0)"></image></g></g><text xml:space="preserve" font-family="ProximaNova-Regular" font-size="25.8" fill="#FFAB40" transform="matrix(1.00, 0.00, -0.00, -1.00, 32.0, 338.0)">P</text><text xml:space="preserve" font-family="ProximaNova-Regular" font-size="25.8" fill="#FFAB40" transform="matrix(1.00, 0.00, -0.00, -1.00, 47.1, 338.0)">R</text><text xml:space="preserve" font-family="ProximaNova-Regular" font-size="25.8" fill="#FFAB40" transform="matrix(1.00, 0.00, -0.00, -1.00, 62.8, 338.0)">O</text><text xml:space="preserve" font-family="ProximaNova-Regular" font-size="25.8" fill="#FFAB40" transform="matrix(1.00, 0.00, -0.00, -1.00, 82.5, 338.0)">B</text><text xml:space="preserve" font-family="ProximaNova-Regular" font-size="25.8" fill="#FFAB40" transform="matrix(1.00, 0.00, -0.00, -1.00, 98.7, 338.0)">L</text><text xml:space="preserve" font-family="ProximaNova-Regular" font-size="25.8" fill="#FFAB40" transform="matrix(1.00, 0.00, -0.00, -1.00, 111.4, 338.0)">E</text><text xml:space="preserve" font-family="ProximaNova-Regular" font-size="25.8" fill="#FFAB40" transform="matrix(1.00, 0.00, -0.00, -1.00, 126.1, 338.0)">M</text><text xml:space="preserve" font-family="ProximaNova-Regular" font-size="25.8" fill="#FFAB40" transform="matrix(1.00, 0.00, -0.00, -1.00, 146.9, 338.0)"> </text><text xml:space="preserve" font-family="ProximaNova-Regular" font-size="25.8" fill="#FFAB40" transform="matrix(1.00, 0.00, -0.00, -1.00, 153.6, 338.0)">S</text><text xml:space="preserve" font-family="ProximaNova-Regular" font-size="25.8" fill="#FFAB40" transform="matrix(1.00, 0.00, -0.00, -1.00, 168.5, 338.0)">T</text><text xml:space="preserve" font-family="ProximaNova-Regular" font-size="25.8" fill="#FFAB40" transform="matrix(1.00, 0.00, -0.00, -1.00, 181.5, 338.0)">A</text><text xml:space="preserve" font-family="ProximaNova-Regular" font-size="25.8" fill="#FFAB40" transform="matrix(1.00, 0.00, -0.00, -1.00, 196.7, 338.0)">T</text><text xml:space="preserve" font-family="ProximaNova-Regular" font-size="25.8" fill="#FFAB40" transform="matrix(1.00, 0.00, -0.00, -1.00, 211.4, 338.0)">E</text><text xml:space="preserve" font-family="ProximaNova-Regular" font-size="25.8" fill="#FFAB40" transform="matrix(1.00, 0.00, -0.00, -1.00, 226.1, 338.0)">M</text><text xml:space="preserve" font-family="ProximaNova-Regular" font-size="25.8" fill="#FFAB40" transform="matrix(1.00, 0.00, -0.00, -1.00, 246.9, 338.0)">E</text><text xml:space="preserve" font-family="ProximaNova-Regular" font-size="25.8" fill="#FFAB40" transform="matrix(1.00, 0.00, -0.00, -1.00, 261.5, 338.0)">N</text><text xml:space="preserve" font-family="ProximaNova-Regular" font-size="25.8" fill="#FFAB40" transform="matrix(1.00, 0.00, -0.00, -1.00, 279.8, 338.0)">T</text><text xml:space="preserve" font-family="ProximaNova-Regular" font-size="30.0" fill="#FFE499" transform="matrix(1.00, 0.00, -0.00, -1.00, 83.0, 245.0)">T</text><text xml:space="preserve" font-family="ProximaNova-Regular" font-size="30.0" fill="#FFE499" transform="matrix(1.00, 0.00, -0.00, -1.00, 100.1, 245.0)">h</text><text xml:space="preserve" font-family="ProximaNova-Regular" font-size="30.0" fill="#FFE499" transform="matrix(1.00, 0.00, -0.00, -1.00, 116.7, 245.0)">e</text><text xml:space="preserve" font-family="ProximaNova-Regular" font-size="30.0" fill="#FFE499" transform="matrix(1.00, 0.00, -0.00, -1.00, 133.6, 245.0)"> </text><text xml:space="preserve" font-family="ProximaNova-Regular" font-size="30.0" fill="#FFE499" transform="matrix(1.00, 0.00, -0.00, -1.00, 141.3, 245.0)">c</text><text xml:space="preserve" font-family="ProximaNova-Regular" font-size="30.0" fill="#FFE499" transform="matrix(1.00, 0.00, -0.00, -1.00, 156.2, 245.0)">o</text><text xml:space="preserve" font-family="ProximaNova-Regular" font-size="30.0" fill="#FFE499" transform="matrix(1.00, 0.00, -0.00, -1.00, 173.4, 245.0)">l</text><text xml:space="preserve" font-family="ProximaNova-Regular" font-size="30.0" fill="#FFE499" transform="matrix(1.00, 0.00, -0.00, -1.00, 180.1, 245.0)">l</text><text xml:space="preserve" font-family="ProximaNova-Regular" font-size="30.0" fill="#FFE499" transform="matrix(1.00, 0.00, -0.00, -1.00, 186.9, 245.0)">e</text><text xml:space="preserve" font-family="ProximaNova-Regular" font-size="30.0" fill="#FFE499" transform="matrix(1.00, 0.00, -0.00, -1.00, 203.8, 245.0)">g</text><text xml:space="preserve" font-family="ProximaNova-Regular" font-size="30.0" fill="#FFE499" transform="matrix(1.00, 0.00, -0.00, -1.00, 221.0, 245.0)">e</text><text xml:space="preserve" font-family="ProximaNova-Regular" font-size="30.0" fill="#FFE499" transform="matrix(1.00, 0.00, -0.00, -1.00, 237.9, 245.0)"> </text><text xml:space="preserve" font-family="ProximaNova-Regular" font-size="30.0" fill="#FFE499" transform="matrix(1.00, 0.00, -0.00, -1.00, 245.7, 245.0)">a</text><text xml:space="preserve" font-family="ProximaNova-Regular" font-size="30.0" fill="#FFE499" transform="matrix(1.00, 0.00, -0.00, -1.00, 261.5, 245.0)">d</text><text xml:space="preserve" font-family="ProximaNova-Regular" font-size="30.0" fill="#FFE499" transform="matrix(1.00, 0.00, -0.00, -1.00, 278.8, 245.0)">m</text><text xml:space="preserve" font-family="ProximaNova-Regular" font-size="30.0" fill="#FFE499" transform="matrix(1.00, 0.00, -0.00, -1.00, 303.0, 245.0)">i</text><text xml:space="preserve" font-family="ProximaNova-Regular" font-size="30.0" fill="#FFE499" transform="matrix(1.00, 0.00, -0.00, -1.00, 309.7, 245.0)">s</text><text xml:space="preserve" font-family="ProximaNova-Regular" font-size="30.0" fill="#FFE499" transform="matrix(1.00, 0.00, -0.00, -1.00, 323.7, 245.0)">s</text><text xml:space="preserve" font-family="ProximaNova-Regular" font-size="30.0" fill="#FFE499" transform="matrix(1.00, 0.00, -0.00, -1.00, 337.6, 245.0)">i</text><text xml:space="preserve" font-family="ProximaNova-Regular" font-size="30.0" fill="#FFE499" transform="matrix(1.00, 0.00, -0.00, -1.00, 344.4, 245.0)">o</text><text xml:space="preserve" font-family="ProximaNova-Regular" font-size="30.0" fill="#FFE499" transform="matrix(1.00, 0.00, -0.00, -1.00, 361.6, 245.0)">n</text><text xml:space="preserve" font-family="ProximaNova-Regular" font-size="30.0" fill="#FFE499" transform="matrix(1.00, 0.00, -0.00, -1.00, 378.1, 245.0)">s</text><text xml:space="preserve" font-family="ProximaNova-Regular" font-size="30.0" fill="#FFE499" transform="matrix(1.00, 0.00, -0.00, -1.00, 392.1, 245.0)"> </text><text xml:space="preserve" font-family="ProximaNova-Regular" font-size="30.0" fill="#FFE499" transform="matrix(1.00, 0.00, -0.00, -1.00, 399.8, 245.0)">p</text><text xml:space="preserve" font-family="ProximaNova-Regular" font-size="30.0" fill="#FFE499" transform="matrix(1.00, 0.00, -0.00, -1.00, 417.0, 245.0)">r</text><text xml:space="preserve" font-family="ProximaNova-Regular" font-size="30.0" fill="#FFE499" transform="matrix(1.00, 0.00, -0.00, -1.00, 426.9, 245.0)">o</text><text xml:space="preserve" font-family="ProximaNova-Regular" font-size="30.0" fill="#FFE499" transform="matrix(1.00, 0.00, -0.00, -1.00, 444.1, 245.0)">c</text><text xml:space="preserve" font-family="ProximaNova-Regular" font-size="30.0" fill="#FFE499" transform="matrix(1.00, 0.00, -0.00, -1.00, 458.9, 245.0)">e</text><text xml:space="preserve" font-family="ProximaNova-Regular" font-size="30.0" fill="#FFE499" transform="matrix(1.00, 0.00, -0.00, -1.00, 475.8, 245.0)">s</text><text xml:space="preserve" font-family="ProximaNova-Regular" font-size="30.0" fill="#FFE499" transform="matrix(1.00, 0.00, -0.00, -1.00, 489.8, 245.0)">s</text><text xml:space="preserve" font-family="ProximaNova-Regular" font-size="30.0" fill="#FFE499" transform="matrix(1.00, 0.00, -0.00, -1.00, 503.7, 245.0)"> </text><text xml:space="preserve" font-family="ProximaNova-Regular" font-size="30.0" fill="#FFE499" transform="matrix(1.00, 0.00, -0.00, -1.00, 511.5, 245.0)">i</text><text xml:space="preserve" font-family="ProximaNova-Regular" font-size="30.0" fill="#FFE499" transform="matrix(1.00, 0.00, -0.00, -1.00, 518.2, 245.0)">s</text><text xml:space="preserve" font-family="ProximaNova-Regular" font-size="30.0" fill="#FFE499" transform="matrix(1.00, 0.00, -0.00, -1.00, 532.2, 245.0)"> </text><text xml:space="preserve" font-family="ProximaNova-Regular" font-size="30.0" fill="#FFE499" transform="matrix(1.00, 0.00, -0.00, -1.00, 540.0, 245.0)">a</text><text xml:space="preserve" font-family="ProximaNova-Regular" font-size="30.0" fill="#FFE499" transform="matrix(1.00, 0.00, -0.00, -1.00, 555.8, 245.0)">l</text><text xml:space="preserve" font-family="ProximaNova-Regular" font-size="30.0" fill="#FFE499" transform="matrix(1.00, 0.00, -0.00, -1.00, 562.5, 245.0)">r</text><text xml:space="preserve" font-family="ProximaNova-Regular" font-size="30.0" fill="#FFE499" transform="matrix(1.00, 0.00, -0.00, -1.00, 572.4, 245.0)">e</text><text xml:space="preserve" font-family="ProximaNova-Regular" font-size="30.0" fill="#FFE499" transform="matrix(1.00, 0.00, -0.00, -1.00, 589.3, 245.0)">a</text><text xml:space="preserve" font-family="ProximaNova-Regular" font-size="30.0" fill="#FFE499" transform="matrix(1.00, 0.00, -0.00, -1.00, 605.2, 245.0)">d</text><text xml:space="preserve" font-family="ProximaNova-Regular" font-size="30.0" fill="#FFE499" transform="matrix(1.00, 0.00, -0.00, -1.00, 622.4, 245.0)">y</text><text xml:space="preserve" font-family="ProximaNova-Regular" font-size="30.0" fill="#FFE499" transform="matrix(1.00, 0.00, -0.00, -1.00, 637.1, 245.0)"> </text><text xml:space="preserve" font-family="ProximaNova-Regular" font-size="30.0" fill="#FFE499" transform="matrix(1.00, 0.00, -0.00, -1.00, 43.0, 204.0)">d</text><text xml:space="preserve" font-family="ProximaNova-Regular" font-size="30.0" fill="#FFE499" transform="matrix(1.00, 0.00, -0.00, -1.00, 60.2, 204.0)">a</text><text xml:space="preserve" font-family="ProximaNova-Regular" font-size="30.0" fill="#FFE499" transform="matrix(1.00, 0.00, -0.00, -1.00, 76.1, 204.0)">u</text><text xml:space="preserve" font-family="ProximaNova-Regular" font-size="30.0" fill="#FFE499" transform="matrix(1.00, 0.00, -0.00, -1.00, 92.6, 204.0)">n</text><text xml:space="preserve" font-family="ProximaNova-Regular" font-size="30.0" fill="#FFE499" transform="matrix(1.00, 0.00, -0.00, -1.00, 109.2, 204.0)">t</text><text xml:space="preserve" font-family="ProximaNova-Regular" font-size="30.0" fill="#FFE499" transform="matrix(1.00, 0.00, -0.00, -1.00, 118.0, 204.0)">i</text><text xml:space="preserve" font-family="ProximaNova-Regular" font-size="30.0" fill="#FFE499" transform="matrix(1.00, 0.00, -0.00, -1.00, 124.8, 204.0)">n</text><text xml:space="preserve" font-family="ProximaNova-Regular" font-size="30.0" fill="#FFE499" transform="matrix(1.00, 0.00, -0.00, -1.00, 141.3, 204.0)">g</text><text xml:space="preserve" font-family="ProximaNova-Regular" font-size="30.0" fill="#FFE499" transform="matrix(1.00, 0.00, -0.00, -1.00, 158.6, 204.0)"> </text><text xml:space="preserve" font-family="ProximaNova-Regular" font-size="30.0" fill="#FFE499" transform="matrix(1.00, 0.00, -0.00, -1.00, 166.3, 204.0)">e</text><text xml:space="preserve" font-family="ProximaNova-Regular" font-size="30.0" fill="#FFE499" transform="matrix(1.00, 0.00, -0.00, -1.00, 183.2, 204.0)">n</text><text xml:space="preserve" font-family="ProximaNova-Regular" font-size="30.0" fill="#FFE499" transform="matrix(1.00, 0.00, -0.00, -1.00, 199.8, 204.0)">o</text><text xml:space="preserve" font-family="ProximaNova-Regular" font-size="30.0" fill="#FFE499" transform="matrix(1.00, 0.00, -0.00, -1.00, 216.9, 204.0)">u</text><text xml:space="preserve" font-family="ProximaNova-Regular" font-size="30.0" fill="#FFE499" transform="matrix(1.00, 0.00, -0.00, -1.00, 233.5, 204.0)">g</text><text xml:space="preserve" font-family="ProximaNova-Regular" font-size="30.0" fill="#FFE499" transform="matrix(1.00, 0.00, -0.00, -1.00, 250.7, 204.0)">h</text><text xml:space="preserve" font-family="ProximaNova-Regular" font-size="30.0" fill="#FFE499" transform="matrix(1.00, 0.00, -0.00, -1.00, 267.3, 204.0)"> </text><text xml:space="preserve" font-family="ProximaNova-Regular" font-size="30.0" fill="#FFE499" transform="matrix(1.00, 0.00, -0.00, -1.00, 275.1, 204.0)">f</text><text xml:space="preserve" font-family="ProximaNova-Regular" font-size="30.0" fill="#FFE499" transform="matrix(1.00, 0.00, -0.00, -1.00, 283.6, 204.0)">o</text><text xml:space="preserve" font-family="ProximaNova-Regular" font-size="30.0" fill="#FFE499" transform="matrix(1.00, 0.00, -0.00, -1.00, 300.7, 204.0)">r</text><text xml:space="preserve" font-family="ProximaNova-Regular" font-size="30.0" fill="#FFE499" transform="matrix(1.00, 0.00, -0.00, -1.00, 310.6, 204.0)"> </text><text xml:space="preserve" font-family="ProximaNova-Regular" font-size="30.0" fill="#FFE499" transform="matrix(1.00, 0.00, -0.00, -1.00, 318.4, 204.0)">a</text><text xml:space="preserve" font-family="ProximaNova-Regular" font-size="30.0" fill="#FFE499" transform="matrix(1.00, 0.00, -0.00, -1.00, 334.2, 204.0)">n</text><text xml:space="preserve" font-family="ProximaNova-Regular" font-size="30.0" fill="#FFE499" transform="matrix(1.00, 0.00, -0.00, -1.00, 350.8, 204.0)">y</text><text xml:space="preserve" font-family="ProximaNova-Regular" font-size="30.0" fill="#FFE499" transform="matrix(1.00, 0.00, -0.00, -1.00, 365.5, 204.0)"> </text><text xml:space="preserve" font-family="ProximaNova-Regular" font-size="30.0" fill="#FFE499" transform="matrix(1.00, 0.00, -0.00, -1.00, 373.3, 204.0)">c</text><text xml:space="preserve" font-family="ProximaNova-Regular" font-size="30.0" fill="#FFE499" transform="matrix(1.00, 0.00, -0.00, -1.00, 388.1, 204.0)">o</text><text xml:space="preserve" font-family="ProximaNova-Regular" font-size="30.0" fill="#FFE499" transform="matrix(1.00, 0.00, -0.00, -1.00, 405.3, 204.0)">l</text><text xml:space="preserve" font-family="ProximaNova-Regular" font-size="30.0" fill="#FFE499" transform="matrix(1.00, 0.00, -0.00, -1.00, 412.1, 204.0)">l</text><text xml:space="preserve" font-family="ProximaNova-Regular" font-size="30.0" fill="#FFE499" transform="matrix(1.00, 0.00, -0.00, -1.00, 418.8, 204.0)">e</text><text xml:space="preserve" font-family="ProximaNova-Regular" font-size="30.0" fill="#FFE499" transform="matrix(1.00, 0.00, -0.00, -1.00, 435.7, 204.0)">g</text><text xml:space="preserve" font-family="ProximaNova-Regular" font-size="30.0" fill="#FFE499" transform="matrix(1.00, 0.00, -0.00, -1.00, 452.9, 204.0)">e</text><text xml:space="preserve" font-family="ProximaNova-Regular" font-size="30.0" fill="#FFE499" transform="matrix(1.00, 0.00, -0.00, -1.00, 469.8, 204.0)"> </text><text xml:space="preserve" font-family="ProximaNova-Regular" font-size="30.0" fill="#FFE499" transform="matrix(1.00, 0.00, -0.00, -1.00, 477.6, 204.0)">a</text><text xml:space="preserve" font-family="ProximaNova-Regular" font-size="30.0" fill="#FFE499" transform="matrix(1.00, 0.00, -0.00, -1.00, 493.4, 204.0)">p</text><text xml:space="preserve" font-family="ProximaNova-Regular" font-size="30.0" fill="#FFE499" transform="matrix(1.00, 0.00, -0.00, -1.00, 510.6, 204.0)">p</text><text xml:space="preserve" font-family="ProximaNova-Regular" font-size="30.0" fill="#FFE499" transform="matrix(1.00, 0.00, -0.00, -1.00, 527.8, 204.0)">l</text><text xml:space="preserve" font-family="ProximaNova-Regular" font-size="30.0" fill="#FFE499" transform="matrix(1.00, 0.00, -0.00, -1.00, 534.5, 204.0)">i</text><text xml:space="preserve" font-family="ProximaNova-Regular" font-size="30.0" fill="#FFE499" transform="matrix(1.00, 0.00, -0.00, -1.00, 541.3, 204.0)">c</text><text xml:space="preserve" font-family="ProximaNova-Regular" font-size="30.0" fill="#FFE499" transform="matrix(1.00, 0.00, -0.00, -1.00, 556.1, 204.0)">a</text><text xml:space="preserve" font-family="ProximaNova-Regular" font-size="30.0" fill="#FFE499" transform="matrix(1.00, 0.00, -0.00, -1.00, 572.0, 204.0)">n</text><text xml:space="preserve" font-family="ProximaNova-Regular" font-size="30.0" fill="#FFE499" transform="matrix(1.00, 0.00, -0.00, -1.00, 588.5, 204.0)">t</text><text xml:space="preserve" font-family="ProximaNova-Regular" font-size="30.0" fill="#FFE499" transform="matrix(1.00, 0.00, -0.00, -1.00, 597.4, 204.0)">,</text><text xml:space="preserve" font-family="ProximaNova-Regular" font-size="30.0" fill="#FFE499" transform="matrix(1.00, 0.00, -0.00, -1.00, 604.3, 204.0)"> </text><text xml:space="preserve" font-family="ProximaNova-Regular" font-size="30.0" fill="#FFE499" transform="matrix(1.00, 0.00, -0.00, -1.00, 612.0, 204.0)">b</text><text xml:space="preserve" font-family="ProximaNova-Regular" font-size="30.0" fill="#FFE499" transform="matrix(1.00, 0.00, -0.00, -1.00, 629.3, 204.0)">u</text><text xml:space="preserve" font-family="ProximaNova-Regular" font-size="30.0" fill="#FFE499" transform="matrix(1.00, 0.00, -0.00, -1.00, 645.8, 204.0)">t</text><text xml:space="preserve" font-family="ProximaNova-Regular" font-size="30.0" fill="#FFE499" transform="matrix(1.00, 0.00, -0.00, -1.00, 654.6, 204.0)"> </text><text xml:space="preserve" font-family="ProximaNova-Regular" font-size="30.0" fill="#FFE499" transform="matrix(1.00, 0.00, -0.00, -1.00, 662.4, 204.0)">i</text><text xml:space="preserve" font-family="ProximaNova-Regular" font-size="30.0" fill="#FFE499" transform="matrix(1.00, 0.00, -0.00, -1.00, 669.2, 204.0)">t</text><text xml:space="preserve" font-family="ProximaNova-Regular" font-size="30.0" fill="#FFE499" transform="matrix(1.00, 0.00, -0.00, -1.00, 678.0, 204.0)"> </text><text xml:space="preserve" font-family="ProximaNova-Regular" font-size="30.0" fill="#FFE499" transform="matrix(1.00, 0.00, -0.00, -1.00, 89.0, 163.0)">c</text><text xml:space="preserve" font-family="ProximaNova-Regular" font-size="30.0" fill="#FFE499" transform="matrix(1.00, 0.00, -0.00, -1.00, 103.9, 163.0)">a</text><text xml:space="preserve" font-family="ProximaNova-Regular" font-size="30.0" fill="#FFE499" transform="matrix(1.00, 0.00, -0.00, -1.00, 119.7, 163.0)">n</text><text xml:space="preserve" font-family="ProximaNova-Regular" font-size="30.0" fill="#FFE499" transform="matrix(1.00, 0.00, -0.00, -1.00, 136.3, 163.0)"> </text><text xml:space="preserve" font-family="ProximaNova-Regular" font-size="30.0" fill="#FFE499" transform="matrix(1.00, 0.00, -0.00, -1.00, 144.1, 163.0)">b</text><text xml:space="preserve" font-family="ProximaNova-Regular" font-size="30.0" fill="#FFE499" transform="matrix(1.00, 0.00, -0.00, -1.00, 161.3, 163.0)">e</text><text xml:space="preserve" font-family="ProximaNova-Regular" font-size="30.0" fill="#FFE499" transform="matrix(1.00, 0.00, -0.00, -1.00, 178.2, 163.0)"> </text><text xml:space="preserve" font-family="ProximaNova-Regular" font-size="30.0" fill="#FFE499" transform="matrix(1.00, 0.00, -0.00, -1.00, 186.0, 163.0)">e</text><text xml:space="preserve" font-family="ProximaNova-Regular" font-size="30.0" fill="#FFE499" transform="matrix(1.00, 0.00, -0.00, -1.00, 202.8, 163.0)">v</text><text xml:space="preserve" font-family="ProximaNova-Regular" font-size="30.0" fill="#FFE499" transform="matrix(1.00, 0.00, -0.00, -1.00, 217.5, 163.0)">e</text><text xml:space="preserve" font-family="ProximaNova-Regular" font-size="30.0" fill="#FFE499" transform="matrix(1.00, 0.00, -0.00, -1.00, 234.4, 163.0)">n</text><text xml:space="preserve" font-family="ProximaNova-Regular" font-size="30.0" fill="#FFE499" transform="matrix(1.00, 0.00, -0.00, -1.00, 251.0, 163.0)"> </text><text xml:space="preserve" font-family="ProximaNova-Regular" font-size="30.0" fill="#FFE499" transform="matrix(1.00, 0.00, -0.00, -1.00, 258.8, 163.0)">m</text><text xml:space="preserve" font-family="ProximaNova-Regular" font-size="30.0" fill="#FFE499" transform="matrix(1.00, 0.00, -0.00, -1.00, 283.0, 163.0)">o</text><text xml:space="preserve" font-family="ProximaNova-Regular" font-size="30.0" fill="#FFE499" transform="matrix(1.00, 0.00, -0.00, -1.00, 300.2, 163.0)">r</text><text xml:space="preserve" font-family="ProximaNova-Regular" font-size="30.0" fill="#FFE499" transform="matrix(1.00, 0.00, -0.00, -1.00, 310.1, 163.0)">e</text><text xml:space="preserve" font-family="ProximaNova-Regular" font-size="30.0" fill="#FFE499" transform="matrix(1.00, 0.00, -0.00, -1.00, 327.0, 163.0)"> </text><text xml:space="preserve" font-family="ProximaNova-Regular" font-size="30.0" fill="#FFE499" transform="matrix(1.00, 0.00, -0.00, -1.00, 334.7, 163.0)">d</text><text xml:space="preserve" font-family="ProximaNova-Regular" font-size="30.0" fill="#FFE499" transform="matrix(1.00, 0.00, -0.00, -1.00, 352.0, 163.0)">i</text><text xml:space="preserve" font-family="ProximaNova-Regular" font-size="30.0" fill="#FFE499" transform="matrix(1.00, 0.00, -0.00, -1.00, 358.7, 163.0)">f</text><text xml:space="preserve" font-family="ProximaNova-Regular" font-size="30.0" fill="#FFE499" transform="matrix(1.00, 0.00, -0.00, -1.00, 367.2, 163.0)">f</text><text xml:space="preserve" font-family="ProximaNova-Regular" font-size="30.0" fill="#FFE499" transform="matrix(1.00, 0.00, -0.00, -1.00, 375.8, 163.0)">i</text><text xml:space="preserve" font-family="ProximaNova-Regular" font-size="30.0" fill="#FFE499" transform="matrix(1.00, 0.00, -0.00, -1.00, 382.5, 163.0)">c</text><text xml:space="preserve" font-family="ProximaNova-Regular" font-size="30.0" fill="#FFE499" transform="matrix(1.00, 0.00, -0.00, -1.00, 397.4, 163.0)">u</text><text xml:space="preserve" font-family="ProximaNova-Regular" font-size="30.0" fill="#FFE499" transform="matrix(1.00, 0.00, -0.00, -1.00, 413.9, 163.0)">l</text><text xml:space="preserve" font-family="ProximaNova-Regular" font-size="30.0" fill="#FFE499" transform="matrix(1.00, 0.00, -0.00, -1.00, 420.7, 163.0)">t</text><text xml:space="preserve" font-family="ProximaNova-Regular" font-size="30.0" fill="#FFE499" transform="matrix(1.00, 0.00, -0.00, -1.00, 429.5, 163.0)"> </text><text xml:space="preserve" font-family="ProximaNova-Regular" font-size="30.0" fill="#FFE499" transform="matrix(1.00, 0.00, -0.00, -1.00, 437.3, 163.0)">i</text><text xml:space="preserve" font-family="ProximaNova-Regular" font-size="30.0" fill="#FFE499" transform="matrix(1.00, 0.00, -0.00, -1.00, 444.0, 163.0)">f</text><text xml:space="preserve" font-family="ProximaNova-Regular" font-size="30.0" fill="#FFE499" transform="matrix(1.00, 0.00, -0.00, -1.00, 452.5, 163.0)"> </text><text xml:space="preserve" font-family="ProximaNova-Regular" font-size="30.0" fill="#FFE499" transform="matrix(1.00, 0.00, -0.00, -1.00, 460.3, 163.0)">y</text><text xml:space="preserve" font-family="ProximaNova-Regular" font-size="30.0" fill="#FFE499" transform="matrix(1.00, 0.00, -0.00, -1.00, 475.0, 163.0)">o</text><text xml:space="preserve" font-family="ProximaNova-Regular" font-size="30.0" fill="#FFE499" transform="matrix(1.00, 0.00, -0.00, -1.00, 492.2, 163.0)">u</text><text xml:space="preserve" font-family="ProximaNova-Regular" font-size="30.0" fill="#FFE499" transform="matrix(1.00, 0.00, -0.00, -1.00, 508.7, 163.0)">’</text><text xml:space="preserve" font-family="ProximaNova-Regular" font-size="30.0" fill="#FFE499" transform="matrix(1.00, 0.00, -0.00, -1.00, 515.6, 163.0)">r</text><text xml:space="preserve" font-family="ProximaNova-Regular" font-size="30.0" fill="#FFE499" transform="matrix(1.00, 0.00, -0.00, -1.00, 525.5, 163.0)">e</text><text xml:space="preserve" font-family="ProximaNova-Regular" font-size="30.0" fill="#FFE499" transform="matrix(1.00, 0.00, -0.00, -1.00, 542.4, 163.0)"> </text><text xml:space="preserve" font-family="ProximaNova-Regular" font-size="30.0" fill="#FFE499" transform="matrix(1.00, 0.00, -0.00, -1.00, 550.2, 163.0)">a</text><text xml:space="preserve" font-family="ProximaNova-Regular" font-size="30.0" fill="#FFE499" transform="matrix(1.00, 0.00, -0.00, -1.00, 566.0, 163.0)"> </text><text xml:space="preserve" font-family="ProximaNova-Regular" font-size="30.0" fill="#FFE499" transform="matrix(1.00, 0.00, -0.00, -1.00, 573.8, 163.0)">f</text><text xml:space="preserve" font-family="ProximaNova-Regular" font-size="30.0" fill="#FFE499" transform="matrix(1.00, 0.00, -0.00, -1.00, 582.3, 163.0)">i</text><text xml:space="preserve" font-family="ProximaNova-Regular" font-size="30.0" fill="#FFE499" transform="matrix(1.00, 0.00, -0.00, -1.00, 589.0, 163.0)">r</text><text xml:space="preserve" font-family="ProximaNova-Regular" font-size="30.0" fill="#FFE499" transform="matrix(1.00, 0.00, -0.00, -1.00, 598.9, 163.0)">s</text><text xml:space="preserve" font-family="ProximaNova-Regular" font-size="30.0" fill="#FFE499" transform="matrix(1.00, 0.00, -0.00, -1.00, 612.9, 163.0)">t</text><text xml:space="preserve" font-family="ProximaNova-Regular" font-size="30.0" fill="#FFE499" transform="matrix(1.00, 0.00, -0.00, -1.00, 621.7, 163.0)">-</text><text xml:space="preserve" font-family="ProximaNova-Regular" font-size="30.0" fill="#FFE499" transform="matrix(1.00, 0.00, -0.00, -1.00, 232.0, 121.0)">g</text><text xml:space="preserve" font-family="ProximaNova-Regular" font-size="30.0" fill="#FFE499" transform="matrix(1.00, 0.00, -0.00, -1.00, 249.2, 121.0)">e</text><text xml:space="preserve" font-family="ProximaNova-Regular" font-size="30.0" fill="#FFE499" transform="matrix(1.00, 0.00, -0.00, -1.00, 266.1, 121.0)">n</text><text xml:space="preserve" font-family="ProximaNova-Regular" font-size="30.0" fill="#FFE499" transform="matrix(1.00, 0.00, -0.00, -1.00, 282.7, 121.0)">e</text><text xml:space="preserve" font-family="ProximaNova-Regular" font-size="30.0" fill="#FFE499" transform="matrix(1.00, 0.00, -0.00, -1.00, 299.6, 121.0)">r</text><text xml:space="preserve" font-family="ProximaNova-Regular" font-size="30.0" fill="#FFE499" transform="matrix(1.00, 0.00, -0.00, -1.00, 309.5, 121.0)">a</text><text xml:space="preserve" font-family="ProximaNova-Regular" font-size="30.0" fill="#FFE499" transform="matrix(1.00, 0.00, -0.00, -1.00, 325.3, 121.0)">t</text><text xml:space="preserve" font-family="ProximaNova-Regular" font-size="30.0" fill="#FFE499" transform="matrix(1.00, 0.00, -0.00, -1.00, 334.1, 121.0)">i</text><text xml:space="preserve" font-family="ProximaNova-Regular" font-size="30.0" fill="#FFE499" transform="matrix(1.00, 0.00, -0.00, -1.00, 340.9, 121.0)">o</text><text xml:space="preserve" font-family="ProximaNova-Regular" font-size="30.0" fill="#FFE499" transform="matrix(1.00, 0.00, -0.00, -1.00, 358.1, 121.0)">n</text><text xml:space="preserve" font-family="ProximaNova-Regular" font-size="30.0" fill="#FFE499" transform="matrix(1.00, 0.00, -0.00, -1.00, 374.6, 121.0)"> </text><text xml:space="preserve" font-family="ProximaNova-Regular" font-size="30.0" fill="#FFE499" transform="matrix(1.00, 0.00, -0.00, -1.00, 382.4, 121.0)">s</text><text xml:space="preserve" font-family="ProximaNova-Regular" font-size="30.0" fill="#FFE499" transform="matrix(1.00, 0.00, -0.00, -1.00, 396.3, 121.0)">t</text><text xml:space="preserve" font-family="ProximaNova-Regular" font-size="30.0" fill="#FFE499" transform="matrix(1.00, 0.00, -0.00, -1.00, 405.2, 121.0)">u</text><text xml:space="preserve" font-family="ProximaNova-Regular" font-size="30.0" fill="#FFE499" transform="matrix(1.00, 0.00, -0.00, -1.00, 421.7, 121.0)">d</text><text xml:space="preserve" font-family="ProximaNova-Regular" font-size="30.0" fill="#FFE499" transform="matrix(1.00, 0.00, -0.00, -1.00, 438.9, 121.0)">e</text><text xml:space="preserve" font-family="ProximaNova-Regular" font-size="30.0" fill="#FFE499" transform="matrix(1.00, 0.00, -0.00, -1.00, 455.8, 121.0)">n</text><text xml:space="preserve" font-family="ProximaNova-Regular" font-size="30.0" fill="#FFE499" transform="matrix(1.00, 0.00, -0.00, -1.00, 472.4, 121.0)">t</text><text xml:space="preserve" font-family="ProximaNova-Regular" font-size="30.0" fill="#FFE499" transform="matrix(1.00, 0.00, -0.00, -1.00, 481.2, 121.0)">.</text></g></svg>