<?xml version="1.0" encoding="UTF-8"?><svg xmlns="http://www.w3.org/2000/svg" xmlns:xlink="http://www.w3.org/1999/xlink" clip-rule="evenodd" stroke-miterlimit="4.00" viewBox="0 0 1024 768"><desc>SVG generated by Keynote</desc><defs></defs><g transform="matrix(1.00, 0.00, -0.00, -1.00, 0.0, 768.0)"><path d="M 0.0 0.0 L 1024.0 0.0 L 1024.0 768.0 L 0.0 768.0 Z M 0.0 0.0 " fill="#000000"></path><text xml:space="preserve" font-family="Avenir-Heavy" font-weight="bold" font-size="39.1" fill="#FEFFFF" transform="matrix(1.00, 0.00, -0.00, -1.00, 56.0, 425.0)">S</text><text xml:space="preserve" font-family="Avenir-Heavy" font-weight="bold" font-size="39.1" fill="#FEFFFF" transform="matrix(1.00, 0.00, -0.00, -1.00, 84.7, 425.0)">O</text><text xml:space="preserve" font-family="Avenir-Heavy" font-weight="bold" font-size="39.1" fill="#FEFFFF" transform="matrix(1.00, 0.00, -0.00, -1.00, 123.5, 425.0)">C</text><text xml:space="preserve" font-family="Avenir-Heavy" font-weight="bold" font-size="39.1" fill="#FEFFFF" transform="matrix(1.00, 0.00, -0.00, -1.00, 156.5, 425.0)">I</text><text xml:space="preserve" font-family="Avenir-Heavy" font-weight="bold" font-size="39.1" fill="#FEFFFF" transform="matrix(1.00, 0.00, -0.00, -1.00, 173.6, 425.0)">A</text><text xml:space="preserve" font-family="Avenir-Heavy" font-weight="bold" font-size="39.1" fill="#FEFFFF" transform="matrix(1.00, 0.00, -0.00, -1.00, 208.0, 425.0)">L</text><text xml:space="preserve" font-family="Avenir-Heavy" font-weight="bold" font-size="39.1" fill="#FEFFFF" transform="matrix(1.00, 0.00, -0.00, -1.00, 234.5, 425.0)"> </text><text xml:space="preserve" font-family="Avenir-Heavy" font-weight="bold" font-size="39.1" fill="#FEFFFF" transform="matrix(1.00, 0.00, -0.00, -1.00, 252.4, 425.0)">M</text><text xml:space="preserve" font-family="Avenir-Heavy" font-weight="bold" font-size="39.1" fill="#FEFFFF" transform="matrix(1.00, 0.00, -0.00, -1.00, 294.8, 425.0)">E</text><text xml:space="preserve" font-family="Avenir-Heavy" font-weight="bold" font-size="39.1" fill="#FEFFFF" transform="matrix(1.00, 0.00, -0.00, -1.00, 324.9, 425.0)">D</text><text xml:space="preserve" font-family="Avenir-Heavy" font-weight="bold" font-size="39.1" fill="#FEFFFF" transform="matrix(1.00, 0.00, -0.00, -1.00, 360.8, 425.0)">I</text><text xml:space="preserve" font-family="Avenir-Heavy" font-weight="bold" font-size="39.1" fill="#FEFFFF" transform="matrix(1.00, 0.00, -0.00, -1.00, 377.9, 425.0)">A</text><text xml:space="preserve" font-family="Avenir-Heavy" font-weight="bold" font-size="39.1" fill="#FEFFFF" transform="matrix(1.00, 0.00, -0.00, -1.00, 412.3, 425.0)"> </text><text xml:space="preserve" font-family="Avenir-Heavy" font-weight="bold" font-size="39.1" fill="#FEFFFF" transform="matrix(1.00, 0.00, -0.00, -1.00, 430.2, 425.0)">U</text><text xml:space="preserve" font-family="Avenir-Heavy" font-weight="bold" font-size="39.1" fill="#FEFFFF" transform="matrix(1.00, 0.00, -0.00, -1.00, 464.6, 425.0)">S</text><text xml:space="preserve" font-family="Avenir-Heavy" font-weight="bold" font-size="39.1" fill="#FEFFFF" transform="matrix(1.00, 0.00, -0.00, -1.00, 493.3, 425.0)">E</text><text xml:space="preserve" font-family="Avenir-Heavy" font-weight="bold" font-size="39.1" fill="#FEFFFF" transform="matrix(1.00, 0.00, -0.00, -1.00, 523.4, 425.0)">R</text><text xml:space="preserve" font-family="Avenir-Heavy" font-weight="bold" font-size="39.1" fill="#FEFFFF" transform="matrix(1.00, 0.00, -0.00, -1.00, 554.2, 425.0)">S</text><text xml:space="preserve" font-family="Avenir-Heavy" font-weight="bold" font-size="39.1" fill="#FEFFFF" transform="matrix(1.00, 0.00, -0.00, -1.00, 582.9, 425.0)"> </text><text xml:space="preserve" font-family="Avenir-Light" font-size="39.1" fill="#FEFFFF" transform="matrix(1.00, 0.00, -0.00, -1.00, 600.7, 425.0)">N</text><text xml:space="preserve" font-family="Avenir-Light" font-size="39.1" fill="#FEFFFF" transform="matrix(1.00, 0.00, -0.00, -1.00, 637.4, 425.0)">E</text><text xml:space="preserve" font-family="Avenir-Light" font-size="39.1" fill="#FEFFFF" transform="matrix(1.00, 0.00, -0.00, -1.00, 666.8, 425.0)">E</text><text xml:space="preserve" font-family="Avenir-Light" font-size="39.1" fill="#FEFFFF" transform="matrix(1.00, 0.00, -0.00, -1.00, 696.2, 425.0)">D</text><text xml:space="preserve" font-family="Avenir-Light" font-size="39.1" fill="#FEFFFF" transform="matrix(1.00, 0.00, -0.00, -1.00, 731.4, 425.0)"> </text><text xml:space="preserve" font-family="Avenir-Light" font-size="39.1" fill="#FEFFFF" transform="matrix(1.00, 0.00, -0.00, -1.00, 747.8, 425.0)">A</text><text xml:space="preserve" font-family="Avenir-Light" font-size="39.1" fill="#FEFFFF" transform="matrix(1.00, 0.00, -0.00, -1.00, 780.8, 425.0)"> </text><text xml:space="preserve" font-family="Avenir-Light" font-size="39.1" fill="#FEFFFF" transform="matrix(1.00, 0.00, -0.00, -1.00, 797.2, 425.0)">B</text><text xml:space="preserve" font-family="Avenir-Light" font-size="39.1" fill="#FEFFFF" transform="matrix(1.00, 0.00, -0.00, -1.00, 828.1, 425.0)">E</text><text xml:space="preserve" font-family="Avenir-Light" font-size="39.1" fill="#FEFFFF" transform="matrix(1.00, 0.00, -0.00, -1.00, 857.5, 425.0)">T</text><text xml:space="preserve" font-family="Avenir-Light" font-size="39.1" fill="#FEFFFF" transform="matrix(1.00, 0.00, -0.00, -1.00, 886.1, 425.0)">T</text><text xml:space="preserve" font-family="Avenir-Light" font-size="39.1" fill="#FEFFFF" transform="matrix(1.00, 0.00, -0.00, -1.00, 914.8, 425.0)">E</text><text xml:space="preserve" font-family="Avenir-Light" font-size="39.1" fill="#FEFFFF" transform="matrix(1.00, 0.00, -0.00, -1.00, 944.2, 425.0)">R</text><text xml:space="preserve" font-family="Avenir-Light" font-size="39.1" fill="#FEFFFF" transform="matrix(1.00, 0.00, -0.00, -1.00, 973.6, 425.0)"> </text><text xml:space="preserve" font-family="Avenir-Light" font-size="39.1" fill="#FEFFFF" transform="matrix(1.00, 0.00, -0.00, -1.00, 65.0, 372.0)">W</text><text xml:space="preserve" font-family="Avenir-Light" font-size="39.1" fill="#FEFFFF" transform="matrix(1.00, 0.00, -0.00, -1.00, 107.4, 372.0)">A</text><text xml:space="preserve" font-family="Avenir-Light" font-size="39.1" fill="#FEFFFF" transform="matrix(1.00, 0.00, -0.00, -1.00, 137.5, 372.0)">Y</text><text xml:space="preserve" font-family="Avenir-Light" font-size="39.1" fill="#FEFFFF" transform="matrix(1.00, 0.00, -0.00, -1.00, 166.2, 372.0)"> </text><text xml:space="preserve" font-family="Avenir-Light" font-size="39.1" fill="#FEFFFF" transform="matrix(1.00, 0.00, -0.00, -1.00, 182.6, 372.0)">T</text><text xml:space="preserve" font-family="Avenir-Light" font-size="39.1" fill="#FEFFFF" transform="matrix(1.00, 0.00, -0.00, -1.00, 211.3, 372.0)">O</text><text xml:space="preserve" font-family="Avenir-Light" font-size="39.1" fill="#FEFFFF" transform="matrix(1.00, 0.00, -0.00, -1.00, 250.1, 372.0)"> </text><text xml:space="preserve" font-family="Avenir-Heavy" font-weight="bold" font-size="39.1" fill="#FEFFFF" transform="matrix(1.00, 0.00, -0.00, -1.00, 266.5, 372.0)">O</text><text xml:space="preserve" font-family="Avenir-Heavy" font-weight="bold" font-size="39.1" fill="#FEFFFF" transform="matrix(1.00, 0.00, -0.00, -1.00, 305.3, 372.0)">R</text><text xml:space="preserve" font-family="Avenir-Heavy" font-weight="bold" font-size="39.1" fill="#FEFFFF" transform="matrix(1.00, 0.00, -0.00, -1.00, 336.2, 372.0)">G</text><text xml:space="preserve" font-family="Avenir-Heavy" font-weight="bold" font-size="39.1" fill="#FEFFFF" transform="matrix(1.00, 0.00, -0.00, -1.00, 372.8, 372.0)">A</text><text xml:space="preserve" font-family="Avenir-Heavy" font-weight="bold" font-size="39.1" fill="#FEFFFF" transform="matrix(1.00, 0.00, -0.00, -1.00, 407.2, 372.0)">N</text><text xml:space="preserve" font-family="Avenir-Heavy" font-weight="bold" font-size="39.1" fill="#FEFFFF" transform="matrix(1.00, 0.00, -0.00, -1.00, 444.6, 372.0)">I</text><text xml:space="preserve" font-family="Avenir-Heavy" font-weight="bold" font-size="39.1" fill="#FEFFFF" transform="matrix(1.00, 0.00, -0.00, -1.00, 461.7, 372.0)">Z</text><text xml:space="preserve" font-family="Avenir-Heavy" font-weight="bold" font-size="39.1" fill="#FEFFFF" transform="matrix(1.00, 0.00, -0.00, -1.00, 491.8, 372.0)">E</text><text xml:space="preserve" font-family="Avenir-Light" font-size="39.1" fill="#FEFFFF" transform="matrix(1.00, 0.00, -0.00, -1.00, 521.9, 372.0)"> </text><text xml:space="preserve" font-family="Avenir-Light" font-size="39.1" fill="#FEFFFF" transform="matrix(1.00, 0.00, -0.00, -1.00, 538.3, 372.0)">T</text><text xml:space="preserve" font-family="Avenir-Light" font-size="39.1" fill="#FEFFFF" transform="matrix(1.00, 0.00, -0.00, -1.00, 567.0, 372.0)">H</text><text xml:space="preserve" font-family="Avenir-Light" font-size="39.1" fill="#FEFFFF" transform="matrix(1.00, 0.00, -0.00, -1.00, 601.5, 372.0)">E</text><text xml:space="preserve" font-family="Avenir-Light" font-size="39.1" fill="#FEFFFF" transform="matrix(1.00, 0.00, -0.00, -1.00, 630.9, 372.0)">I</text><text xml:space="preserve" font-family="Avenir-Light" font-size="39.1" fill="#FEFFFF" transform="matrix(1.00, 0.00, -0.00, -1.00, 647.3, 372.0)">R</text><text xml:space="preserve" font-family="Avenir-Light" font-size="39.1" fill="#FEFFFF" transform="matrix(1.00, 0.00, -0.00, -1.00, 676.7, 372.0)"> </text><text xml:space="preserve" font-family="Avenir-Light" font-size="39.1" fill="#FEFFFF" transform="matrix(1.00, 0.00, -0.00, -1.00, 693.1, 372.0)">T</text><text xml:space="preserve" font-family="Avenir-Light" font-size="39.1" fill="#FEFFFF" transform="matrix(1.00, 0.00, -0.00, -1.00, 721.8, 372.0)">I</text><text xml:space="preserve" font-family="Avenir-Light" font-size="39.1" fill="#FEFFFF" transform="matrix(1.00, 0.00, -0.00, -1.00, 738.2, 372.0)">M</text><text xml:space="preserve" font-family="Avenir-Light" font-size="39.1" fill="#FEFFFF" transform="matrix(1.00, 0.00, -0.00, -1.00, 779.1, 372.0)">E</text><text xml:space="preserve" font-family="Avenir-Light" font-size="39.1" fill="#FEFFFF" transform="matrix(1.00, 0.00, -0.00, -1.00, 808.5, 372.0)">L</text><text xml:space="preserve" font-family="Avenir-Light" font-size="39.1" fill="#FEFFFF" transform="matrix(1.00, 0.00, -0.00, -1.00, 834.3, 372.0)">I</text><text xml:space="preserve" font-family="Avenir-Light" font-size="39.1" fill="#FEFFFF" transform="matrix(1.00, 0.00, -0.00, -1.00, 850.7, 372.0)">N</text><text xml:space="preserve" font-family="Avenir-Light" font-size="39.1" fill="#FEFFFF" transform="matrix(1.00, 0.00, -0.00, -1.00, 887.4, 372.0)">E</text><text xml:space="preserve" font-family="Avenir-Light" font-size="39.1" fill="#FEFFFF" transform="matrix(1.00, 0.00, -0.00, -1.00, 916.8, 372.0)">S</text><text xml:space="preserve" font-family="Avenir-Light" font-size="39.1" fill="#FEFFFF" transform="matrix(1.00, 0.00, -0.00, -1.00, 944.7, 372.0)">/</text><text xml:space="preserve" font-family="Avenir-Light" font-size="39.1" fill="#FEFFFF" transform="matrix(1.00, 0.00, -0.00, -1.00, 72.0, 319.0)">F</text><text xml:space="preserve" font-family="Avenir-Light" font-size="39.1" fill="#FEFFFF" transform="matrix(1.00, 0.00, -0.00, -1.00, 100.0, 319.0)">E</text><text xml:space="preserve" font-family="Avenir-Light" font-size="39.1" fill="#FEFFFF" transform="matrix(1.00, 0.00, -0.00, -1.00, 129.4, 319.0)">E</text><text xml:space="preserve" font-family="Avenir-Light" font-size="39.1" fill="#FEFFFF" transform="matrix(1.00, 0.00, -0.00, -1.00, 158.8, 319.0)">D</text><text xml:space="preserve" font-family="Avenir-Light" font-size="39.1" fill="#FEFFFF" transform="matrix(1.00, 0.00, -0.00, -1.00, 194.0, 319.0)">S</text><text xml:space="preserve" font-family="Avenir-Light" font-size="39.1" fill="#FEFFFF" transform="matrix(1.00, 0.00, -0.00, -1.00, 222.0, 319.0)"> </text><text xml:space="preserve" font-family="Avenir-Light" font-size="39.1" fill="#FEFFFF" transform="matrix(1.00, 0.00, -0.00, -1.00, 238.4, 319.0)">A</text><text xml:space="preserve" font-family="Avenir-Light" font-size="39.1" fill="#FEFFFF" transform="matrix(1.00, 0.00, -0.00, -1.00, 271.4, 319.0)">C</text><text xml:space="preserve" font-family="Avenir-Light" font-size="39.1" fill="#FEFFFF" transform="matrix(1.00, 0.00, -0.00, -1.00, 305.1, 319.0)">R</text><text xml:space="preserve" font-family="Avenir-Light" font-size="39.1" fill="#FEFFFF" transform="matrix(1.00, 0.00, -0.00, -1.00, 334.5, 319.0)">O</text><text xml:space="preserve" font-family="Avenir-Light" font-size="39.1" fill="#FEFFFF" transform="matrix(1.00, 0.00, -0.00, -1.00, 373.3, 319.0)">S</text><text xml:space="preserve" font-family="Avenir-Light" font-size="39.1" fill="#FEFFFF" transform="matrix(1.00, 0.00, -0.00, -1.00, 401.3, 319.0)">S</text><text xml:space="preserve" font-family="Avenir-Light" font-size="39.1" fill="#FEFFFF" transform="matrix(1.00, 0.00, -0.00, -1.00, 429.3, 319.0)"> </text><text xml:space="preserve" font-family="Avenir-Heavy" font-weight="bold" font-size="39.1" fill="#FEFFFF" transform="matrix(1.00, 0.00, -0.00, -1.00, 445.7, 319.0)">M</text><text xml:space="preserve" font-family="Avenir-Heavy" font-weight="bold" font-size="39.1" fill="#FEFFFF" transform="matrix(1.00, 0.00, -0.00, -1.00, 488.1, 319.0)">U</text><text xml:space="preserve" font-family="Avenir-Heavy" font-weight="bold" font-size="39.1" fill="#FEFFFF" transform="matrix(1.00, 0.00, -0.00, -1.00, 522.6, 319.0)">L</text><text xml:space="preserve" font-family="Avenir-Heavy" font-weight="bold" font-size="39.1" fill="#FEFFFF" transform="matrix(1.00, 0.00, -0.00, -1.00, 545.5, 319.0)">T</text><text xml:space="preserve" font-family="Avenir-Heavy" font-weight="bold" font-size="39.1" fill="#FEFFFF" transform="matrix(1.00, 0.00, -0.00, -1.00, 574.2, 319.0)">I</text><text xml:space="preserve" font-family="Avenir-Heavy" font-weight="bold" font-size="39.1" fill="#FEFFFF" transform="matrix(1.00, 0.00, -0.00, -1.00, 591.3, 319.0)">P</text><text xml:space="preserve" font-family="Avenir-Heavy" font-weight="bold" font-size="39.1" fill="#FEFFFF" transform="matrix(1.00, 0.00, -0.00, -1.00, 621.4, 319.0)">L</text><text xml:space="preserve" font-family="Avenir-Heavy" font-weight="bold" font-size="39.1" fill="#FEFFFF" transform="matrix(1.00, 0.00, -0.00, -1.00, 647.9, 319.0)">E</text><text xml:space="preserve" font-family="Avenir-Light" font-size="39.1" fill="#FEFFFF" transform="matrix(1.00, 0.00, -0.00, -1.00, 678.0, 319.0)"> </text><text xml:space="preserve" font-family="Avenir-Light" font-size="39.1" fill="#FEFFFF" transform="matrix(1.00, 0.00, -0.00, -1.00, 694.4, 319.0)">N</text><text xml:space="preserve" font-family="Avenir-Light" font-size="39.1" fill="#FEFFFF" transform="matrix(1.00, 0.00, -0.00, -1.00, 731.1, 319.0)">E</text><text xml:space="preserve" font-family="Avenir-Light" font-size="39.1" fill="#FEFFFF" transform="matrix(1.00, 0.00, -0.00, -1.00, 760.5, 319.0)">T</text><text xml:space="preserve" font-family="Avenir-Light" font-size="39.1" fill="#FEFFFF" transform="matrix(1.00, 0.00, -0.00, -1.00, 789.1, 319.0)">W</text><text xml:space="preserve" font-family="Avenir-Light" font-size="39.1" fill="#FEFFFF" transform="matrix(1.00, 0.00, -0.00, -1.00, 832.3, 319.0)">O</text><text xml:space="preserve" font-family="Avenir-Light" font-size="39.1" fill="#FEFFFF" transform="matrix(1.00, 0.00, -0.00, -1.00, 871.1, 319.0)">R</text><text xml:space="preserve" font-family="Avenir-Light" font-size="39.1" fill="#FEFFFF" transform="matrix(1.00, 0.00, -0.00, -1.00, 900.5, 319.0)">K</text><text xml:space="preserve" font-family="Avenir-Light" font-size="39.1" fill="#FEFFFF" transform="matrix(1.00, 0.00, -0.00, -1.00, 930.6, 319.0)">S</text></g></svg>