<?xml version="1.0" encoding="UTF-8"?><svg xmlns="http://www.w3.org/2000/svg" xmlns:xlink="http://www.w3.org/1999/xlink" clip-rule="evenodd" stroke-miterlimit="4.00" viewBox="0 0 720 405"><desc>SVG generated by Keynote</desc><defs></defs><g transform="matrix(1.00, 0.00, -0.00, -1.00, 0.0, 405.0)"><path d="M 0.0 0.0 L 720.0 0.0 L 720.0 405.0 L 0.0 405.0 Z M 0.0 0.0 " fill="#212121"></path><g><clipPath id="clip-78"><path d="M 0.0 15.0 L 720.0 15.0 L 720.0 0.0 L 0.0 0.0 Z M 0.0 14.6 "></path></clipPath><g clip-path="url(#clip-78)"><image xlink:href="../../F9151A63-6472-4580-9350-F8B065CF0AEF/assets/E727F7411E2471EE462B064648A9C275.jpeg" width="721.00" height="26.00" transform="matrix(1.00, 0.00, -0.00, -1.04, 0.0, 27.0)"></image></g></g><text xml:space="preserve" font-family="ProximaNova-Regular" font-size="25.8" fill="#FFAB40" transform="matrix(1.00, 0.00, -0.00, -1.00, 32.0, 338.0)">U</text><text xml:space="preserve" font-family="ProximaNova-Regular" font-size="25.8" fill="#FFAB40" transform="matrix(1.00, 0.00, -0.00, -1.00, 50.1, 338.0)">S</text><text xml:space="preserve" font-family="ProximaNova-Regular" font-size="25.8" fill="#FFAB40" transform="matrix(1.00, 0.00, -0.00, -1.00, 65.2, 338.0)">E</text><text xml:space="preserve" font-family="ProximaNova-Regular" font-size="25.8" fill="#FFAB40" transform="matrix(1.00, 0.00, -0.00, -1.00, 79.8, 338.0)">R</text><text xml:space="preserve" font-family="ProximaNova-Regular" font-size="25.8" fill="#FFAB40" transform="matrix(1.00, 0.00, -0.00, -1.00, 95.5, 338.0)"> </text><text xml:space="preserve" font-family="ProximaNova-Regular" font-size="25.8" fill="#FFAB40" transform="matrix(1.00, 0.00, -0.00, -1.00, 102.2, 338.0)">T</text><text xml:space="preserve" font-family="ProximaNova-Regular" font-size="25.8" fill="#FFAB40" transform="matrix(1.00, 0.00, -0.00, -1.00, 116.9, 338.0)">E</text><text xml:space="preserve" font-family="ProximaNova-Regular" font-size="25.8" fill="#FFAB40" transform="matrix(1.00, 0.00, -0.00, -1.00, 131.5, 338.0)">S</text><text xml:space="preserve" font-family="ProximaNova-Regular" font-size="25.8" fill="#FFAB40" transform="matrix(1.00, 0.00, -0.00, -1.00, 146.5, 338.0)">T</text><text xml:space="preserve" font-family="ProximaNova-Regular" font-size="25.8" fill="#FFAB40" transform="matrix(1.00, 0.00, -0.00, -1.00, 161.1, 338.0)"> </text><text xml:space="preserve" font-family="ProximaNova-Regular" font-size="25.8" fill="#FFAB40" transform="matrix(1.00, 0.00, -0.00, -1.00, 167.8, 338.0)">F</text><text xml:space="preserve" font-family="ProximaNova-Regular" font-size="25.8" fill="#FFAB40" transform="matrix(1.00, 0.00, -0.00, -1.00, 182.0, 338.0)">I</text><text xml:space="preserve" font-family="ProximaNova-Regular" font-size="25.8" fill="#FFAB40" transform="matrix(1.00, 0.00, -0.00, -1.00, 188.2, 338.0)">N</text><text xml:space="preserve" font-family="ProximaNova-Regular" font-size="25.8" fill="#FFAB40" transform="matrix(1.00, 0.00, -0.00, -1.00, 206.4, 338.0)">D</text><text xml:space="preserve" font-family="ProximaNova-Regular" font-size="25.8" fill="#FFAB40" transform="matrix(1.00, 0.00, -0.00, -1.00, 224.4, 338.0)">I</text><text xml:space="preserve" font-family="ProximaNova-Regular" font-size="25.8" fill="#FFAB40" transform="matrix(1.00, 0.00, -0.00, -1.00, 230.6, 338.0)">N</text><text xml:space="preserve" font-family="ProximaNova-Regular" font-size="25.8" fill="#FFAB40" transform="matrix(1.00, 0.00, -0.00, -1.00, 248.8, 338.0)">G</text><text xml:space="preserve" font-family="ProximaNova-Regular" font-size="25.8" fill="#FFAB40" transform="matrix(1.00, 0.00, -0.00, -1.00, 267.2, 338.0)">S</text><g><clipPath id="clip-79"><path d="M 299.7 324.9 L 695.5 324.9 L 695.5 28.0 L 299.7 28.0 Z M 299.7 324.9 "></path></clipPath><g clip-path="url(#clip-79)"><image xlink:href="4393D5512A4315BF148F502B8364AB97.jpeg" width="396.00" height="297.00" transform="matrix(1.00, 0.00, -0.00, -1.00, 299.7, 324.9)"></image></g></g><text xml:space="preserve" font-family="ProximaNova-Bold" font-weight="bold" font-size="14.0" fill="#FFE499" transform="matrix(1.00, 0.00, -0.00, -1.00, 32.0, 285.0)">S</text><text xml:space="preserve" font-family="ProximaNova-Bold" font-weight="bold" font-size="14.0" fill="#FFE499" transform="matrix(1.00, 0.00, -0.00, -1.00, 40.4, 285.0)">C</text><text xml:space="preserve" font-family="ProximaNova-Bold" font-weight="bold" font-size="14.0" fill="#FFE499" transform="matrix(1.00, 0.00, -0.00, -1.00, 50.0, 285.0)">E</text><text xml:space="preserve" font-family="ProximaNova-Bold" font-weight="bold" font-size="14.0" fill="#FFE499" transform="matrix(1.00, 0.00, -0.00, -1.00, 58.2, 285.0)">N</text><text xml:space="preserve" font-family="ProximaNova-Bold" font-weight="bold" font-size="14.0" fill="#FFE499" transform="matrix(1.00, 0.00, -0.00, -1.00, 68.4, 285.0)">A</text><text xml:space="preserve" font-family="ProximaNova-Bold" font-weight="bold" font-size="14.0" fill="#FFE499" transform="matrix(1.00, 0.00, -0.00, -1.00, 78.0, 285.0)">R</text><text xml:space="preserve" font-family="ProximaNova-Bold" font-weight="bold" font-size="14.0" fill="#FFE499" transform="matrix(1.00, 0.00, -0.00, -1.00, 87.0, 285.0)">I</text><text xml:space="preserve" font-family="ProximaNova-Bold" font-weight="bold" font-size="14.0" fill="#FFE499" transform="matrix(1.00, 0.00, -0.00, -1.00, 90.8, 285.0)">O</text><text xml:space="preserve" font-family="ProximaNova-Bold" font-weight="bold" font-size="14.0" fill="#FFE499" transform="matrix(1.00, 0.00, -0.00, -1.00, 101.5, 285.0)">:</text><text xml:space="preserve" font-family="ProximaNova-Bold" font-weight="bold" font-size="14.0" fill="#000000" transform="matrix(1.00, 0.00, -0.00, -1.00, 105.0, 285.0)"> </text><text xml:space="preserve" font-family="ProximaNova-Regular" font-size="14.0" fill="#FFE499" transform="matrix(1.00, 0.00, -0.00, -1.00, 32.0, 251.0)">Y</text><text xml:space="preserve" font-family="ProximaNova-Regular" font-size="14.0" fill="#FFE499" transform="matrix(1.00, 0.00, -0.00, -1.00, 39.0, 251.0)">o</text><text xml:space="preserve" font-family="ProximaNova-Regular" font-size="14.0" fill="#FFE499" transform="matrix(1.00, 0.00, -0.00, -1.00, 47.0, 251.0)">u</text><text xml:space="preserve" font-family="ProximaNova-Regular" font-size="14.0" fill="#FFE499" transform="matrix(1.00, 0.00, -0.00, -1.00, 54.7, 251.0)"> </text><text xml:space="preserve" font-family="ProximaNova-Regular" font-size="14.0" fill="#FFE499" transform="matrix(1.00, 0.00, -0.00, -1.00, 58.3, 251.0)">a</text><text xml:space="preserve" font-family="ProximaNova-Regular" font-size="14.0" fill="#FFE499" transform="matrix(1.00, 0.00, -0.00, -1.00, 65.7, 251.0)">r</text><text xml:space="preserve" font-family="ProximaNova-Regular" font-size="14.0" fill="#FFE499" transform="matrix(1.00, 0.00, -0.00, -1.00, 70.3, 251.0)">e</text><text xml:space="preserve" font-family="ProximaNova-Regular" font-size="14.0" fill="#FFE499" transform="matrix(1.00, 0.00, -0.00, -1.00, 78.2, 251.0)"> </text><text xml:space="preserve" font-family="ProximaNova-Regular" font-size="14.0" fill="#FFE499" transform="matrix(1.00, 0.00, -0.00, -1.00, 81.9, 251.0)">a</text><text xml:space="preserve" font-family="ProximaNova-Regular" font-size="14.0" fill="#FFE499" transform="matrix(1.00, 0.00, -0.00, -1.00, 89.2, 251.0)"> </text><text xml:space="preserve" font-family="ProximaNova-Regular" font-size="14.0" fill="#FFE499" transform="matrix(1.00, 0.00, -0.00, -1.00, 92.9, 251.0)">s</text><text xml:space="preserve" font-family="ProximaNova-Regular" font-size="14.0" fill="#FFE499" transform="matrix(1.00, 0.00, -0.00, -1.00, 99.4, 251.0)">e</text><text xml:space="preserve" font-family="ProximaNova-Regular" font-size="14.0" fill="#FFE499" transform="matrix(1.00, 0.00, -0.00, -1.00, 107.3, 251.0)">n</text><text xml:space="preserve" font-family="ProximaNova-Regular" font-size="14.0" fill="#FFE499" transform="matrix(1.00, 0.00, -0.00, -1.00, 115.0, 251.0)">i</text><text xml:space="preserve" font-family="ProximaNova-Regular" font-size="14.0" fill="#FFE499" transform="matrix(1.00, 0.00, -0.00, -1.00, 118.1, 251.0)">o</text><text xml:space="preserve" font-family="ProximaNova-Regular" font-size="14.0" fill="#FFE499" transform="matrix(1.00, 0.00, -0.00, -1.00, 126.1, 251.0)">r</text><text xml:space="preserve" font-family="ProximaNova-Regular" font-size="14.0" fill="#FFE499" transform="matrix(1.00, 0.00, -0.00, -1.00, 130.8, 251.0)"> </text><text xml:space="preserve" font-family="ProximaNova-Regular" font-size="14.0" fill="#FFE499" transform="matrix(1.00, 0.00, -0.00, -1.00, 134.4, 251.0)">i</text><text xml:space="preserve" font-family="ProximaNova-Regular" font-size="14.0" fill="#FFE499" transform="matrix(1.00, 0.00, -0.00, -1.00, 137.5, 251.0)">n</text><text xml:space="preserve" font-family="ProximaNova-Regular" font-size="14.0" fill="#FFE499" transform="matrix(1.00, 0.00, -0.00, -1.00, 145.3, 251.0)"> </text><text xml:space="preserve" font-family="ProximaNova-Regular" font-size="14.0" fill="#FFE499" transform="matrix(1.00, 0.00, -0.00, -1.00, 148.9, 251.0)">y</text><text xml:space="preserve" font-family="ProximaNova-Regular" font-size="14.0" fill="#FFE499" transform="matrix(1.00, 0.00, -0.00, -1.00, 155.8, 251.0)">o</text><text xml:space="preserve" font-family="ProximaNova-Regular" font-size="14.0" fill="#FFE499" transform="matrix(1.00, 0.00, -0.00, -1.00, 163.8, 251.0)">u</text><text xml:space="preserve" font-family="ProximaNova-Regular" font-size="14.0" fill="#FFE499" transform="matrix(1.00, 0.00, -0.00, -1.00, 171.5, 251.0)">r</text><text xml:space="preserve" font-family="ProximaNova-Regular" font-size="14.0" fill="#FFE499" transform="matrix(1.00, 0.00, -0.00, -1.00, 176.1, 251.0)"> </text><text xml:space="preserve" font-family="ProximaNova-Regular" font-size="14.0" fill="#FFE499" transform="matrix(1.00, 0.00, -0.00, -1.00, 179.7, 251.0)">f</text><text xml:space="preserve" font-family="ProximaNova-Regular" font-size="14.0" fill="#FFE499" transform="matrix(1.00, 0.00, -0.00, -1.00, 183.7, 251.0)">a</text><text xml:space="preserve" font-family="ProximaNova-Regular" font-size="14.0" fill="#FFE499" transform="matrix(1.00, 0.00, -0.00, -1.00, 191.1, 251.0)">l</text><text xml:space="preserve" font-family="ProximaNova-Regular" font-size="14.0" fill="#FFE499" transform="matrix(1.00, 0.00, -0.00, -1.00, 194.2, 251.0)">l</text><text xml:space="preserve" font-family="ProximaNova-Regular" font-size="14.0" fill="#FFE499" transform="matrix(1.00, 0.00, -0.00, -1.00, 197.4, 251.0)"> </text><text xml:space="preserve" font-family="ProximaNova-Regular" font-size="14.0" fill="#FFE499" transform="matrix(1.00, 0.00, -0.00, -1.00, 32.0, 234.0)">s</text><text xml:space="preserve" font-family="ProximaNova-Regular" font-size="14.0" fill="#FFE499" transform="matrix(1.00, 0.00, -0.00, -1.00, 38.5, 234.0)">e</text><text xml:space="preserve" font-family="ProximaNova-Regular" font-size="14.0" fill="#FFE499" transform="matrix(1.00, 0.00, -0.00, -1.00, 46.4, 234.0)">m</text><text xml:space="preserve" font-family="ProximaNova-Regular" font-size="14.0" fill="#FFE499" transform="matrix(1.00, 0.00, -0.00, -1.00, 57.7, 234.0)">e</text><text xml:space="preserve" font-family="ProximaNova-Regular" font-size="14.0" fill="#FFE499" transform="matrix(1.00, 0.00, -0.00, -1.00, 65.6, 234.0)">s</text><text xml:space="preserve" font-family="ProximaNova-Regular" font-size="14.0" fill="#FFE499" transform="matrix(1.00, 0.00, -0.00, -1.00, 72.1, 234.0)">t</text><text xml:space="preserve" font-family="ProximaNova-Regular" font-size="14.0" fill="#FFE499" transform="matrix(1.00, 0.00, -0.00, -1.00, 76.2, 234.0)">e</text><text xml:space="preserve" font-family="ProximaNova-Regular" font-size="14.0" fill="#FFE499" transform="matrix(1.00, 0.00, -0.00, -1.00, 84.1, 234.0)">r</text><text xml:space="preserve" font-family="ProximaNova-Regular" font-size="14.0" fill="#FFE499" transform="matrix(1.00, 0.00, -0.00, -1.00, 88.7, 234.0)"> </text><text xml:space="preserve" font-family="ProximaNova-Regular" font-size="14.0" fill="#FFE499" transform="matrix(1.00, 0.00, -0.00, -1.00, 92.3, 234.0)">i</text><text xml:space="preserve" font-family="ProximaNova-Regular" font-size="14.0" fill="#FFE499" transform="matrix(1.00, 0.00, -0.00, -1.00, 95.5, 234.0)">n</text><text xml:space="preserve" font-family="ProximaNova-Regular" font-size="14.0" fill="#FFE499" transform="matrix(1.00, 0.00, -0.00, -1.00, 103.2, 234.0)"> </text><text xml:space="preserve" font-family="ProximaNova-Regular" font-size="14.0" fill="#FFE499" transform="matrix(1.00, 0.00, -0.00, -1.00, 106.8, 234.0)">t</text><text xml:space="preserve" font-family="ProximaNova-Regular" font-size="14.0" fill="#FFE499" transform="matrix(1.00, 0.00, -0.00, -1.00, 111.0, 234.0)">h</text><text xml:space="preserve" font-family="ProximaNova-Regular" font-size="14.0" fill="#FFE499" transform="matrix(1.00, 0.00, -0.00, -1.00, 118.7, 234.0)">e</text><text xml:space="preserve" font-family="ProximaNova-Regular" font-size="14.0" fill="#FFE499" transform="matrix(1.00, 0.00, -0.00, -1.00, 126.6, 234.0)"> </text><text xml:space="preserve" font-family="ProximaNova-Regular" font-size="14.0" fill="#FFE499" transform="matrix(1.00, 0.00, -0.00, -1.00, 130.2, 234.0)">p</text><text xml:space="preserve" font-family="ProximaNova-Regular" font-size="14.0" fill="#FFE499" transform="matrix(1.00, 0.00, -0.00, -1.00, 138.2, 234.0)">r</text><text xml:space="preserve" font-family="ProximaNova-Regular" font-size="14.0" fill="#FFE499" transform="matrix(1.00, 0.00, -0.00, -1.00, 142.8, 234.0)">o</text><text xml:space="preserve" font-family="ProximaNova-Regular" font-size="14.0" fill="#FFE499" transform="matrix(1.00, 0.00, -0.00, -1.00, 150.8, 234.0)">c</text><text xml:space="preserve" font-family="ProximaNova-Regular" font-size="14.0" fill="#FFE499" transform="matrix(1.00, 0.00, -0.00, -1.00, 157.8, 234.0)">e</text><text xml:space="preserve" font-family="ProximaNova-Regular" font-size="14.0" fill="#FFE499" transform="matrix(1.00, 0.00, -0.00, -1.00, 165.7, 234.0)">s</text><text xml:space="preserve" font-family="ProximaNova-Regular" font-size="14.0" fill="#FFE499" transform="matrix(1.00, 0.00, -0.00, -1.00, 172.2, 234.0)">s</text><text xml:space="preserve" font-family="ProximaNova-Regular" font-size="14.0" fill="#FFE499" transform="matrix(1.00, 0.00, -0.00, -1.00, 178.7, 234.0)"> </text><text xml:space="preserve" font-family="ProximaNova-Regular" font-size="14.0" fill="#FFE499" transform="matrix(1.00, 0.00, -0.00, -1.00, 182.3, 234.0)">o</text><text xml:space="preserve" font-family="ProximaNova-Regular" font-size="14.0" fill="#FFE499" transform="matrix(1.00, 0.00, -0.00, -1.00, 190.3, 234.0)">f</text><text xml:space="preserve" font-family="ProximaNova-Regular" font-size="14.0" fill="#FFE499" transform="matrix(1.00, 0.00, -0.00, -1.00, 194.3, 234.0)"> </text><text xml:space="preserve" font-family="ProximaNova-Regular" font-size="14.0" fill="#FFE499" transform="matrix(1.00, 0.00, -0.00, -1.00, 32.0, 217.0)">a</text><text xml:space="preserve" font-family="ProximaNova-Regular" font-size="14.0" fill="#FFE499" transform="matrix(1.00, 0.00, -0.00, -1.00, 39.4, 217.0)">p</text><text xml:space="preserve" font-family="ProximaNova-Regular" font-size="14.0" fill="#FFE499" transform="matrix(1.00, 0.00, -0.00, -1.00, 47.4, 217.0)">p</text><text xml:space="preserve" font-family="ProximaNova-Regular" font-size="14.0" fill="#FFE499" transform="matrix(1.00, 0.00, -0.00, -1.00, 55.4, 217.0)">l</text><text xml:space="preserve" font-family="ProximaNova-Regular" font-size="14.0" fill="#FFE499" transform="matrix(1.00, 0.00, -0.00, -1.00, 58.6, 217.0)">y</text><text xml:space="preserve" font-family="ProximaNova-Regular" font-size="14.0" fill="#FFE499" transform="matrix(1.00, 0.00, -0.00, -1.00, 65.4, 217.0)">i</text><text xml:space="preserve" font-family="ProximaNova-Regular" font-size="14.0" fill="#FFE499" transform="matrix(1.00, 0.00, -0.00, -1.00, 68.6, 217.0)">n</text><text xml:space="preserve" font-family="ProximaNova-Regular" font-size="14.0" fill="#FFE499" transform="matrix(1.00, 0.00, -0.00, -1.00, 76.3, 217.0)">g</text><text xml:space="preserve" font-family="ProximaNova-Regular" font-size="14.0" fill="#FFE499" transform="matrix(1.00, 0.00, -0.00, -1.00, 84.3, 217.0)"> </text><text xml:space="preserve" font-family="ProximaNova-Regular" font-size="14.0" fill="#FFE499" transform="matrix(1.00, 0.00, -0.00, -1.00, 88.0, 217.0)">t</text><text xml:space="preserve" font-family="ProximaNova-Regular" font-size="14.0" fill="#FFE499" transform="matrix(1.00, 0.00, -0.00, -1.00, 92.1, 217.0)">o</text><text xml:space="preserve" font-family="ProximaNova-Regular" font-size="14.0" fill="#FFE499" transform="matrix(1.00, 0.00, -0.00, -1.00, 100.1, 217.0)"> </text><text xml:space="preserve" font-family="ProximaNova-Regular" font-size="14.0" fill="#FFE499" transform="matrix(1.00, 0.00, -0.00, -1.00, 103.7, 217.0)">N</text><text xml:space="preserve" font-family="ProximaNova-Regular" font-size="14.0" fill="#FFE499" transform="matrix(1.00, 0.00, -0.00, -1.00, 113.6, 217.0)">Y</text><text xml:space="preserve" font-family="ProximaNova-Regular" font-size="14.0" fill="#FFE499" transform="matrix(1.00, 0.00, -0.00, -1.00, 122.4, 217.0)">U</text><text xml:space="preserve" font-family="ProximaNova-Regular" font-size="14.0" fill="#FFE499" transform="matrix(1.00, 0.00, -0.00, -1.00, 132.2, 217.0)">.</text><text xml:space="preserve" font-family="ProximaNova-Regular" font-size="14.0" fill="#FFE499" transform="matrix(1.00, 0.00, -0.00, -1.00, 135.4, 217.0)"> </text><text xml:space="preserve" font-family="ProximaNova-Regular" font-size="14.0" fill="#000000" transform="matrix(1.00, 0.00, -0.00, -1.00, 139.1, 217.0)"> </text><text xml:space="preserve" font-family="ProximaNova-Bold" font-weight="bold" font-size="14.0" fill="#FFE499" transform="matrix(1.00, 0.00, -0.00, -1.00, 32.0, 183.0)">T</text><text xml:space="preserve" font-family="ProximaNova-Bold" font-weight="bold" font-size="14.0" fill="#FFE499" transform="matrix(1.00, 0.00, -0.00, -1.00, 39.3, 183.0)">A</text><text xml:space="preserve" font-family="ProximaNova-Bold" font-weight="bold" font-size="14.0" fill="#FFE499" transform="matrix(1.00, 0.00, -0.00, -1.00, 48.7, 183.0)">S</text><text xml:space="preserve" font-family="ProximaNova-Bold" font-weight="bold" font-size="14.0" fill="#FFE499" transform="matrix(1.00, 0.00, -0.00, -1.00, 57.1, 183.0)">K</text><text xml:space="preserve" font-family="ProximaNova-Bold" font-weight="bold" font-size="14.0" fill="#FFE499" transform="matrix(1.00, 0.00, -0.00, -1.00, 66.0, 183.0)">:</text><text xml:space="preserve" font-family="ProximaNova-Bold" font-weight="bold" font-size="14.0" fill="#000000" transform="matrix(1.00, 0.00, -0.00, -1.00, 69.5, 183.0)"> </text><text xml:space="preserve" font-family="ProximaNova-Regular" font-size="14.0" fill="#FFE499" transform="matrix(1.00, 0.00, -0.00, -1.00, 32.0, 149.0)">C</text><text xml:space="preserve" font-family="ProximaNova-Regular" font-size="14.0" fill="#FFE499" transform="matrix(1.00, 0.00, -0.00, -1.00, 41.5, 149.0)">h</text><text xml:space="preserve" font-family="ProximaNova-Regular" font-size="14.0" fill="#FFE499" transform="matrix(1.00, 0.00, -0.00, -1.00, 49.2, 149.0)">e</text><text xml:space="preserve" font-family="ProximaNova-Regular" font-size="14.0" fill="#FFE499" transform="matrix(1.00, 0.00, -0.00, -1.00, 57.1, 149.0)">c</text><text xml:space="preserve" font-family="ProximaNova-Regular" font-size="14.0" fill="#FFE499" transform="matrix(1.00, 0.00, -0.00, -1.00, 64.0, 149.0)">k</text><text xml:space="preserve" font-family="ProximaNova-Regular" font-size="14.0" fill="#FFE499" transform="matrix(1.00, 0.00, -0.00, -1.00, 71.2, 149.0)"> </text><text xml:space="preserve" font-family="ProximaNova-Regular" font-size="14.0" fill="#FFE499" transform="matrix(1.00, 0.00, -0.00, -1.00, 74.8, 149.0)">y</text><text xml:space="preserve" font-family="ProximaNova-Regular" font-size="14.0" fill="#FFE499" transform="matrix(1.00, 0.00, -0.00, -1.00, 81.7, 149.0)">o</text><text xml:space="preserve" font-family="ProximaNova-Regular" font-size="14.0" fill="#FFE499" transform="matrix(1.00, 0.00, -0.00, -1.00, 89.7, 149.0)">u</text><text xml:space="preserve" font-family="ProximaNova-Regular" font-size="14.0" fill="#FFE499" transform="matrix(1.00, 0.00, -0.00, -1.00, 97.4, 149.0)">r</text><text xml:space="preserve" font-family="ProximaNova-Regular" font-size="14.0" fill="#FFE499" transform="matrix(1.00, 0.00, -0.00, -1.00, 102.0, 149.0)"> </text><text xml:space="preserve" font-family="ProximaNova-Regular" font-size="14.0" fill="#FFE499" transform="matrix(1.00, 0.00, -0.00, -1.00, 105.7, 149.0)">t</text><text xml:space="preserve" font-family="ProximaNova-Regular" font-size="14.0" fill="#FFE499" transform="matrix(1.00, 0.00, -0.00, -1.00, 109.8, 149.0)">o</text><text xml:space="preserve" font-family="ProximaNova-Regular" font-size="14.0" fill="#FFE499" transform="matrix(1.00, 0.00, -0.00, -1.00, 117.8, 149.0)">-</text><text xml:space="preserve" font-family="ProximaNova-Regular" font-size="14.0" fill="#FFE499" transform="matrix(1.00, 0.00, -0.00, -1.00, 122.0, 149.0)">d</text><text xml:space="preserve" font-family="ProximaNova-Regular" font-size="14.0" fill="#FFE499" transform="matrix(1.00, 0.00, -0.00, -1.00, 130.0, 149.0)">o</text><text xml:space="preserve" font-family="ProximaNova-Regular" font-size="14.0" fill="#FFE499" transform="matrix(1.00, 0.00, -0.00, -1.00, 138.1, 149.0)"> </text><text xml:space="preserve" font-family="ProximaNova-Regular" font-size="14.0" fill="#FFE499" transform="matrix(1.00, 0.00, -0.00, -1.00, 141.7, 149.0)">l</text><text xml:space="preserve" font-family="ProximaNova-Regular" font-size="14.0" fill="#FFE499" transform="matrix(1.00, 0.00, -0.00, -1.00, 144.8, 149.0)">i</text><text xml:space="preserve" font-family="ProximaNova-Regular" font-size="14.0" fill="#FFE499" transform="matrix(1.00, 0.00, -0.00, -1.00, 148.0, 149.0)">s</text><text xml:space="preserve" font-family="ProximaNova-Regular" font-size="14.0" fill="#FFE499" transform="matrix(1.00, 0.00, -0.00, -1.00, 154.5, 149.0)">t</text><text xml:space="preserve" font-family="ProximaNova-Regular" font-size="14.0" fill="#FFE499" transform="matrix(1.00, 0.00, -0.00, -1.00, 158.6, 149.0)"> </text><text xml:space="preserve" font-family="ProximaNova-Regular" font-size="14.0" fill="#FFE499" transform="matrix(1.00, 0.00, -0.00, -1.00, 162.2, 149.0)">f</text><text xml:space="preserve" font-family="ProximaNova-Regular" font-size="14.0" fill="#FFE499" transform="matrix(1.00, 0.00, -0.00, -1.00, 166.2, 149.0)">o</text><text xml:space="preserve" font-family="ProximaNova-Regular" font-size="14.0" fill="#FFE499" transform="matrix(1.00, 0.00, -0.00, -1.00, 174.2, 149.0)">r</text><text xml:space="preserve" font-family="ProximaNova-Regular" font-size="14.0" fill="#FFE499" transform="matrix(1.00, 0.00, -0.00, -1.00, 178.8, 149.0)"> </text><text xml:space="preserve" font-family="ProximaNova-Regular" font-size="14.0" fill="#FFE499" transform="matrix(1.00, 0.00, -0.00, -1.00, 182.5, 149.0)">y</text><text xml:space="preserve" font-family="ProximaNova-Regular" font-size="14.0" fill="#FFE499" transform="matrix(1.00, 0.00, -0.00, -1.00, 189.3, 149.0)">o</text><text xml:space="preserve" font-family="ProximaNova-Regular" font-size="14.0" fill="#FFE499" transform="matrix(1.00, 0.00, -0.00, -1.00, 197.3, 149.0)">u</text><text xml:space="preserve" font-family="ProximaNova-Regular" font-size="14.0" fill="#FFE499" transform="matrix(1.00, 0.00, -0.00, -1.00, 205.0, 149.0)">r</text><text xml:space="preserve" font-family="ProximaNova-Regular" font-size="14.0" fill="#FFE499" transform="matrix(1.00, 0.00, -0.00, -1.00, 209.7, 149.0)"> </text><text xml:space="preserve" font-family="ProximaNova-Regular" font-size="14.0" fill="#FFE499" transform="matrix(1.00, 0.00, -0.00, -1.00, 213.3, 149.0)">N</text><text xml:space="preserve" font-family="ProximaNova-Regular" font-size="14.0" fill="#FFE499" transform="matrix(1.00, 0.00, -0.00, -1.00, 223.2, 149.0)">Y</text><text xml:space="preserve" font-family="ProximaNova-Regular" font-size="14.0" fill="#FFE499" transform="matrix(1.00, 0.00, -0.00, -1.00, 232.0, 149.0)">U</text><text xml:space="preserve" font-family="ProximaNova-Regular" font-size="14.0" fill="#FFE499" transform="matrix(1.00, 0.00, -0.00, -1.00, 241.8, 149.0)"> </text><text xml:space="preserve" font-family="ProximaNova-Regular" font-size="14.0" fill="#FFE499" transform="matrix(1.00, 0.00, -0.00, -1.00, 32.0, 132.0)">a</text><text xml:space="preserve" font-family="ProximaNova-Regular" font-size="14.0" fill="#FFE499" transform="matrix(1.00, 0.00, -0.00, -1.00, 39.4, 132.0)">p</text><text xml:space="preserve" font-family="ProximaNova-Regular" font-size="14.0" fill="#FFE499" transform="matrix(1.00, 0.00, -0.00, -1.00, 47.4, 132.0)">p</text><text xml:space="preserve" font-family="ProximaNova-Regular" font-size="14.0" fill="#FFE499" transform="matrix(1.00, 0.00, -0.00, -1.00, 55.4, 132.0)">l</text><text xml:space="preserve" font-family="ProximaNova-Regular" font-size="14.0" fill="#FFE499" transform="matrix(1.00, 0.00, -0.00, -1.00, 58.6, 132.0)">i</text><text xml:space="preserve" font-family="ProximaNova-Regular" font-size="14.0" fill="#FFE499" transform="matrix(1.00, 0.00, -0.00, -1.00, 61.7, 132.0)">c</text><text xml:space="preserve" font-family="ProximaNova-Regular" font-size="14.0" fill="#FFE499" transform="matrix(1.00, 0.00, -0.00, -1.00, 68.7, 132.0)">a</text><text xml:space="preserve" font-family="ProximaNova-Regular" font-size="14.0" fill="#FFE499" transform="matrix(1.00, 0.00, -0.00, -1.00, 76.0, 132.0)">t</text><text xml:space="preserve" font-family="ProximaNova-Regular" font-size="14.0" fill="#FFE499" transform="matrix(1.00, 0.00, -0.00, -1.00, 80.2, 132.0)">i</text><text xml:space="preserve" font-family="ProximaNova-Regular" font-size="14.0" fill="#FFE499" transform="matrix(1.00, 0.00, -0.00, -1.00, 83.3, 132.0)">o</text><text xml:space="preserve" font-family="ProximaNova-Regular" font-size="14.0" fill="#FFE499" transform="matrix(1.00, 0.00, -0.00, -1.00, 91.3, 132.0)">n</text><text xml:space="preserve" font-family="ProximaNova-Regular" font-size="14.0" fill="#FFE499" transform="matrix(1.00, 0.00, -0.00, -1.00, 99.0, 132.0)">.</text><text xml:space="preserve" font-family="ProximaNova-Regular" font-size="14.0" fill="#FFE499" transform="matrix(1.00, 0.00, -0.00, -1.00, 102.3, 132.0)"> </text></g></svg>