<?xml version="1.0" encoding="UTF-8"?><svg xmlns="http://www.w3.org/2000/svg" xmlns:xlink="http://www.w3.org/1999/xlink" clip-rule="evenodd" stroke-miterlimit="4.00" viewBox="0 0 1024 768"><desc>SVG generated by Keynote</desc><defs></defs><g transform="matrix(1.00, 0.00, -0.00, -1.00, 0.0, 768.0)"><path d="M 0.0 0.0 L 1024.0 0.0 L 1024.0 768.0 L 0.0 768.0 Z M 0.0 0.0 " fill="#000000"></path><text xml:space="preserve" font-family="Avenir-Light" font-size="45.0" fill="#FEFFFF" transform="matrix(1.00, 0.00, -0.00, -1.00, 81.0, 628.0)">C</text><text xml:space="preserve" font-family="Avenir-Light" font-size="45.0" fill="#FEFFFF" transform="matrix(1.00, 0.00, -0.00, -1.00, 119.9, 628.0)">O</text><text xml:space="preserve" font-family="Avenir-Light" font-size="45.0" fill="#FEFFFF" transform="matrix(1.00, 0.00, -0.00, -1.00, 164.6, 628.0)">N</text><text xml:space="preserve" font-family="Avenir-Light" font-size="45.0" fill="#FEFFFF" transform="matrix(1.00, 0.00, -0.00, -1.00, 206.8, 628.0)">N</text><text xml:space="preserve" font-family="Avenir-Light" font-size="45.0" fill="#FEFFFF" transform="matrix(1.00, 0.00, -0.00, -1.00, 249.0, 628.0)">E</text><text xml:space="preserve" font-family="Avenir-Light" font-size="45.0" fill="#FEFFFF" transform="matrix(1.00, 0.00, -0.00, -1.00, 282.9, 628.0)">C</text><text xml:space="preserve" font-family="Avenir-Light" font-size="45.0" fill="#FEFFFF" transform="matrix(1.00, 0.00, -0.00, -1.00, 321.8, 628.0)">T</text><text xml:space="preserve" font-family="Avenir-Light" font-size="45.0" fill="#FEFFFF" transform="matrix(1.00, 0.00, -0.00, -1.00, 354.8, 628.0)"> </text><text xml:space="preserve" font-family="Avenir-Light" font-size="45.0" fill="#919191" transform="matrix(1.00, 0.00, -0.00, -1.00, 373.7, 628.0)">&gt;</text><text xml:space="preserve" font-family="Avenir-Light" font-size="45.0" fill="#919191" transform="matrix(1.00, 0.00, -0.00, -1.00, 410.9, 628.0)"> </text><text xml:space="preserve" font-family="Avenir-Light" font-size="45.0" fill="#919191" transform="matrix(1.00, 0.00, -0.00, -1.00, 429.8, 628.0)">C</text><text xml:space="preserve" font-family="Avenir-Light" font-size="45.0" fill="#919191" transform="matrix(1.00, 0.00, -0.00, -1.00, 468.7, 628.0)">R</text><text xml:space="preserve" font-family="Avenir-Light" font-size="45.0" fill="#919191" transform="matrix(1.00, 0.00, -0.00, -1.00, 502.6, 628.0)">E</text><text xml:space="preserve" font-family="Avenir-Light" font-size="45.0" fill="#919191" transform="matrix(1.00, 0.00, -0.00, -1.00, 536.4, 628.0)">A</text><text xml:space="preserve" font-family="Avenir-Light" font-size="45.0" fill="#919191" transform="matrix(1.00, 0.00, -0.00, -1.00, 571.4, 628.0)">T</text><text xml:space="preserve" font-family="Avenir-Light" font-size="45.0" fill="#919191" transform="matrix(1.00, 0.00, -0.00, -1.00, 604.4, 628.0)">E</text><text xml:space="preserve" font-family="Avenir-Light" font-size="45.0" fill="#919191" transform="matrix(1.00, 0.00, -0.00, -1.00, 638.3, 628.0)"> </text><text xml:space="preserve" font-family="Avenir-Light" font-size="45.0" fill="#919191" transform="matrix(1.00, 0.00, -0.00, -1.00, 657.2, 628.0)">&gt;</text><text xml:space="preserve" font-family="Avenir-Light" font-size="45.0" fill="#919191" transform="matrix(1.00, 0.00, -0.00, -1.00, 694.4, 628.0)"> </text><text xml:space="preserve" font-family="Avenir-Light" font-size="45.0" fill="#919191" transform="matrix(1.00, 0.00, -0.00, -1.00, 713.3, 628.0)">B</text><text xml:space="preserve" font-family="Avenir-Light" font-size="45.0" fill="#919191" transform="matrix(1.00, 0.00, -0.00, -1.00, 748.8, 628.0)">R</text><text xml:space="preserve" font-family="Avenir-Light" font-size="45.0" fill="#919191" transform="matrix(1.00, 0.00, -0.00, -1.00, 782.7, 628.0)">O</text><text xml:space="preserve" font-family="Avenir-Light" font-size="45.0" fill="#919191" transform="matrix(1.00, 0.00, -0.00, -1.00, 827.5, 628.0)">W</text><text xml:space="preserve" font-family="Avenir-Light" font-size="45.0" fill="#919191" transform="matrix(1.00, 0.00, -0.00, -1.00, 877.1, 628.0)">S</text><text xml:space="preserve" font-family="Avenir-Light" font-size="45.0" fill="#919191" transform="matrix(1.00, 0.00, -0.00, -1.00, 909.4, 628.0)">E</text><text xml:space="preserve" font-family="Avenir-Book" font-size="24.0" fill="#55D6FF" transform="matrix(1.00, 0.00, -0.00, -1.00, 82.0, 684.0)">S</text><text xml:space="preserve" font-family="Avenir-Book" font-size="24.0" fill="#55D6FF" transform="matrix(1.00, 0.00, -0.00, -1.00, 99.2, 684.0)">K</text><text xml:space="preserve" font-family="Avenir-Book" font-size="24.0" fill="#55D6FF" transform="matrix(1.00, 0.00, -0.00, -1.00, 118.1, 684.0)">E</text><text xml:space="preserve" font-family="Avenir-Book" font-size="24.0" fill="#55D6FF" transform="matrix(1.00, 0.00, -0.00, -1.00, 136.2, 684.0)">T</text><text xml:space="preserve" font-family="Avenir-Book" font-size="24.0" fill="#55D6FF" transform="matrix(1.00, 0.00, -0.00, -1.00, 153.8, 684.0)">C</text><text xml:space="preserve" font-family="Avenir-Book" font-size="24.0" fill="#55D6FF" transform="matrix(1.00, 0.00, -0.00, -1.00, 174.6, 684.0)">H</text><text xml:space="preserve" font-family="Avenir-Book" font-size="24.0" fill="#55D6FF" transform="matrix(1.00, 0.00, -0.00, -1.00, 195.7, 684.0)">E</text><text xml:space="preserve" font-family="Avenir-Book" font-size="24.0" fill="#55D6FF" transform="matrix(1.00, 0.00, -0.00, -1.00, 213.8, 684.0)">S</text><g><clipPath id="clip-151"><path d="M 117.0 559.0 L 907.0 559.0 L 907.0 119.0 L 117.0 119.0 Z M 116.8 559.3 "></path></clipPath><g clip-path="url(#clip-151)"><image xlink:href="../../93B20C64-B4B8-4A2B-8E65-3ABB0D027A70/assets/808D9B7ABFB5B457A35D9B72534A3F46.jpeg" width="963.00" height="768.00" transform="matrix(1.14, 0.00, -0.00, -1.14, 117.0, 559.0)"></image></g></g></g></svg>